<?xml version="1.0" encoding="utf-8" standalone="no"?>
<!DOCTYPE svg PUBLIC "-//W3C//DTD SVG 1.1//EN"
  "http://www.w3.org/Graphics/SVG/1.1/DTD/svg11.dtd">
<svg xmlns:xlink="http://www.w3.org/1999/xlink" width="460.8pt" height="345.6pt" viewBox="0 0 460.8 345.6" xmlns="http://www.w3.org/2000/svg" version="1.1">
 <metadata>
  <rdf:RDF xmlns:dc="http://purl.org/dc/elements/1.1/" xmlns:cc="http://creativecommons.org/ns#" xmlns:rdf="http://www.w3.org/1999/02/22-rdf-syntax-ns#">
   <cc:Work>
    <dc:type rdf:resource="http://purl.org/dc/dcmitype/StillImage"/>
    <dc:date>2026-02-06T16:10:00.066277</dc:date>
    <dc:format>image/svg+xml</dc:format>
    <dc:creator>
     <cc:Agent>
      <dc:title>Matplotlib v3.7.1, https://matplotlib.org/</dc:title>
     </cc:Agent>
    </dc:creator>
   </cc:Work>
  </rdf:RDF>
 </metadata>
 <defs>
  <style type="text/css">*{stroke-linejoin: round; stroke-linecap: butt}</style>
 </defs>
 <g id="figure_1">
  <g id="patch_1">
   <path d="M 0 345.6 
L 460.8 345.6 
L 460.8 0 
L 0 0 
z
" style="fill: #ffffff"/>
  </g>
  <g id="axes_1">
   <g id="patch_2">
    <path d="M 57.6 307.584 
L 414.72 307.584 
L 414.72 41.472 
L 57.6 41.472 
z
" style="fill: #ffffff"/>
   </g>
   <g id="matplotlib.axis_1">
    <g id="xtick_1">
     <g id="line2d_1">
      <defs>
       <path id="me70dfc68ec" d="M 0 0 
L 0 3.5 
" style="stroke: #000000; stroke-width: 0.8"/>
      </defs>
      <g>
       <use xlink:href="#me70dfc68ec" x="73.801758" y="307.584" style="stroke: #000000; stroke-width: 0.8"/>
      </g>
     </g>
     <g id="text_1">
      <!-- 10 -->
      <g transform="translate(66.166758 323.702125) scale(0.12 -0.12)">
       <defs>
        <path id="DejaVuSans-31" d="M 794 531 
L 1825 531 
L 1825 4091 
L 703 3866 
L 703 4441 
L 1819 4666 
L 2450 4666 
L 2450 531 
L 3481 531 
L 3481 0 
L 794 0 
L 794 531 
z
" transform="scale(0.015625)"/>
        <path id="DejaVuSans-30" d="M 2034 4250 
Q 1547 4250 1301 3770 
Q 1056 3291 1056 2328 
Q 1056 1369 1301 889 
Q 1547 409 2034 409 
Q 2525 409 2770 889 
Q 3016 1369 3016 2328 
Q 3016 3291 2770 3770 
Q 2525 4250 2034 4250 
z
M 2034 4750 
Q 2819 4750 3233 4129 
Q 3647 3509 3647 2328 
Q 3647 1150 3233 529 
Q 2819 -91 2034 -91 
Q 1250 -91 836 529 
Q 422 1150 422 2328 
Q 422 3509 836 4129 
Q 1250 4750 2034 4750 
z
" transform="scale(0.015625)"/>
       </defs>
       <use xlink:href="#DejaVuSans-31"/>
       <use xlink:href="#DejaVuSans-30" x="63.623047"/>
      </g>
     </g>
    </g>
    <g id="xtick_2">
     <g id="line2d_2">
      <g>
       <use xlink:href="#me70dfc68ec" x="114.388811" y="307.584" style="stroke: #000000; stroke-width: 0.8"/>
      </g>
     </g>
     <g id="text_2">
      <!-- 20 -->
      <g transform="translate(106.753811 323.702125) scale(0.12 -0.12)">
       <defs>
        <path id="DejaVuSans-32" d="M 1228 531 
L 3431 531 
L 3431 0 
L 469 0 
L 469 531 
Q 828 903 1448 1529 
Q 2069 2156 2228 2338 
Q 2531 2678 2651 2914 
Q 2772 3150 2772 3378 
Q 2772 3750 2511 3984 
Q 2250 4219 1831 4219 
Q 1534 4219 1204 4116 
Q 875 4013 500 3803 
L 500 4441 
Q 881 4594 1212 4672 
Q 1544 4750 1819 4750 
Q 2544 4750 2975 4387 
Q 3406 4025 3406 3419 
Q 3406 3131 3298 2873 
Q 3191 2616 2906 2266 
Q 2828 2175 2409 1742 
Q 1991 1309 1228 531 
z
" transform="scale(0.015625)"/>
       </defs>
       <use xlink:href="#DejaVuSans-32"/>
       <use xlink:href="#DejaVuSans-30" x="63.623047"/>
      </g>
     </g>
    </g>
    <g id="xtick_3">
     <g id="line2d_3">
      <g>
       <use xlink:href="#me70dfc68ec" x="154.975864" y="307.584" style="stroke: #000000; stroke-width: 0.8"/>
      </g>
     </g>
     <g id="text_3">
      <!-- 30 -->
      <g transform="translate(147.340864 323.702125) scale(0.12 -0.12)">
       <defs>
        <path id="DejaVuSans-33" d="M 2597 2516 
Q 3050 2419 3304 2112 
Q 3559 1806 3559 1356 
Q 3559 666 3084 287 
Q 2609 -91 1734 -91 
Q 1441 -91 1130 -33 
Q 819 25 488 141 
L 488 750 
Q 750 597 1062 519 
Q 1375 441 1716 441 
Q 2309 441 2620 675 
Q 2931 909 2931 1356 
Q 2931 1769 2642 2001 
Q 2353 2234 1838 2234 
L 1294 2234 
L 1294 2753 
L 1863 2753 
Q 2328 2753 2575 2939 
Q 2822 3125 2822 3475 
Q 2822 3834 2567 4026 
Q 2313 4219 1838 4219 
Q 1578 4219 1281 4162 
Q 984 4106 628 3988 
L 628 4550 
Q 988 4650 1302 4700 
Q 1616 4750 1894 4750 
Q 2613 4750 3031 4423 
Q 3450 4097 3450 3541 
Q 3450 3153 3228 2886 
Q 3006 2619 2597 2516 
z
" transform="scale(0.015625)"/>
       </defs>
       <use xlink:href="#DejaVuSans-33"/>
       <use xlink:href="#DejaVuSans-30" x="63.623047"/>
      </g>
     </g>
    </g>
    <g id="xtick_4">
     <g id="line2d_4">
      <g>
       <use xlink:href="#me70dfc68ec" x="195.562917" y="307.584" style="stroke: #000000; stroke-width: 0.8"/>
      </g>
     </g>
     <g id="text_4">
      <!-- 40 -->
      <g transform="translate(187.927917 323.702125) scale(0.12 -0.12)">
       <defs>
        <path id="DejaVuSans-34" d="M 2419 4116 
L 825 1625 
L 2419 1625 
L 2419 4116 
z
M 2253 4666 
L 3047 4666 
L 3047 1625 
L 3713 1625 
L 3713 1100 
L 3047 1100 
L 3047 0 
L 2419 0 
L 2419 1100 
L 313 1100 
L 313 1709 
L 2253 4666 
z
" transform="scale(0.015625)"/>
       </defs>
       <use xlink:href="#DejaVuSans-34"/>
       <use xlink:href="#DejaVuSans-30" x="63.623047"/>
      </g>
     </g>
    </g>
    <g id="xtick_5">
     <g id="line2d_5">
      <g>
       <use xlink:href="#me70dfc68ec" x="236.14997" y="307.584" style="stroke: #000000; stroke-width: 0.8"/>
      </g>
     </g>
     <g id="text_5">
      <!-- 50 -->
      <g transform="translate(228.51497 323.702125) scale(0.12 -0.12)">
       <defs>
        <path id="DejaVuSans-35" d="M 691 4666 
L 3169 4666 
L 3169 4134 
L 1269 4134 
L 1269 2991 
Q 1406 3038 1543 3061 
Q 1681 3084 1819 3084 
Q 2600 3084 3056 2656 
Q 3513 2228 3513 1497 
Q 3513 744 3044 326 
Q 2575 -91 1722 -91 
Q 1428 -91 1123 -41 
Q 819 9 494 109 
L 494 744 
Q 775 591 1075 516 
Q 1375 441 1709 441 
Q 2250 441 2565 725 
Q 2881 1009 2881 1497 
Q 2881 1984 2565 2268 
Q 2250 2553 1709 2553 
Q 1456 2553 1204 2497 
Q 953 2441 691 2322 
L 691 4666 
z
" transform="scale(0.015625)"/>
       </defs>
       <use xlink:href="#DejaVuSans-35"/>
       <use xlink:href="#DejaVuSans-30" x="63.623047"/>
      </g>
     </g>
    </g>
    <g id="xtick_6">
     <g id="line2d_6">
      <g>
       <use xlink:href="#me70dfc68ec" x="276.737023" y="307.584" style="stroke: #000000; stroke-width: 0.8"/>
      </g>
     </g>
     <g id="text_6">
      <!-- 60 -->
      <g transform="translate(269.102023 323.702125) scale(0.12 -0.12)">
       <defs>
        <path id="DejaVuSans-36" d="M 2113 2584 
Q 1688 2584 1439 2293 
Q 1191 2003 1191 1497 
Q 1191 994 1439 701 
Q 1688 409 2113 409 
Q 2538 409 2786 701 
Q 3034 994 3034 1497 
Q 3034 2003 2786 2293 
Q 2538 2584 2113 2584 
z
M 3366 4563 
L 3366 3988 
Q 3128 4100 2886 4159 
Q 2644 4219 2406 4219 
Q 1781 4219 1451 3797 
Q 1122 3375 1075 2522 
Q 1259 2794 1537 2939 
Q 1816 3084 2150 3084 
Q 2853 3084 3261 2657 
Q 3669 2231 3669 1497 
Q 3669 778 3244 343 
Q 2819 -91 2113 -91 
Q 1303 -91 875 529 
Q 447 1150 447 2328 
Q 447 3434 972 4092 
Q 1497 4750 2381 4750 
Q 2619 4750 2861 4703 
Q 3103 4656 3366 4563 
z
" transform="scale(0.015625)"/>
       </defs>
       <use xlink:href="#DejaVuSans-36"/>
       <use xlink:href="#DejaVuSans-30" x="63.623047"/>
      </g>
     </g>
    </g>
    <g id="xtick_7">
     <g id="line2d_7">
      <g>
       <use xlink:href="#me70dfc68ec" x="317.324075" y="307.584" style="stroke: #000000; stroke-width: 0.8"/>
      </g>
     </g>
     <g id="text_7">
      <!-- 70 -->
      <g transform="translate(309.689075 323.702125) scale(0.12 -0.12)">
       <defs>
        <path id="DejaVuSans-37" d="M 525 4666 
L 3525 4666 
L 3525 4397 
L 1831 0 
L 1172 0 
L 2766 4134 
L 525 4134 
L 525 4666 
z
" transform="scale(0.015625)"/>
       </defs>
       <use xlink:href="#DejaVuSans-37"/>
       <use xlink:href="#DejaVuSans-30" x="63.623047"/>
      </g>
     </g>
    </g>
    <g id="xtick_8">
     <g id="line2d_8">
      <g>
       <use xlink:href="#me70dfc68ec" x="357.911128" y="307.584" style="stroke: #000000; stroke-width: 0.8"/>
      </g>
     </g>
     <g id="text_8">
      <!-- 80 -->
      <g transform="translate(350.276128 323.702125) scale(0.12 -0.12)">
       <defs>
        <path id="DejaVuSans-38" d="M 2034 2216 
Q 1584 2216 1326 1975 
Q 1069 1734 1069 1313 
Q 1069 891 1326 650 
Q 1584 409 2034 409 
Q 2484 409 2743 651 
Q 3003 894 3003 1313 
Q 3003 1734 2745 1975 
Q 2488 2216 2034 2216 
z
M 1403 2484 
Q 997 2584 770 2862 
Q 544 3141 544 3541 
Q 544 4100 942 4425 
Q 1341 4750 2034 4750 
Q 2731 4750 3128 4425 
Q 3525 4100 3525 3541 
Q 3525 3141 3298 2862 
Q 3072 2584 2669 2484 
Q 3125 2378 3379 2068 
Q 3634 1759 3634 1313 
Q 3634 634 3220 271 
Q 2806 -91 2034 -91 
Q 1263 -91 848 271 
Q 434 634 434 1313 
Q 434 1759 690 2068 
Q 947 2378 1403 2484 
z
M 1172 3481 
Q 1172 3119 1398 2916 
Q 1625 2713 2034 2713 
Q 2441 2713 2670 2916 
Q 2900 3119 2900 3481 
Q 2900 3844 2670 4047 
Q 2441 4250 2034 4250 
Q 1625 4250 1398 4047 
Q 1172 3844 1172 3481 
z
" transform="scale(0.015625)"/>
       </defs>
       <use xlink:href="#DejaVuSans-38"/>
       <use xlink:href="#DejaVuSans-30" x="63.623047"/>
      </g>
     </g>
    </g>
    <g id="xtick_9">
     <g id="line2d_9">
      <g>
       <use xlink:href="#me70dfc68ec" x="398.498181" y="307.584" style="stroke: #000000; stroke-width: 0.8"/>
      </g>
     </g>
     <g id="text_9">
      <!-- 90 -->
      <g transform="translate(390.863181 323.702125) scale(0.12 -0.12)">
       <defs>
        <path id="DejaVuSans-39" d="M 703 97 
L 703 672 
Q 941 559 1184 500 
Q 1428 441 1663 441 
Q 2288 441 2617 861 
Q 2947 1281 2994 2138 
Q 2813 1869 2534 1725 
Q 2256 1581 1919 1581 
Q 1219 1581 811 2004 
Q 403 2428 403 3163 
Q 403 3881 828 4315 
Q 1253 4750 1959 4750 
Q 2769 4750 3195 4129 
Q 3622 3509 3622 2328 
Q 3622 1225 3098 567 
Q 2575 -91 1691 -91 
Q 1453 -91 1209 -44 
Q 966 3 703 97 
z
M 1959 2075 
Q 2384 2075 2632 2365 
Q 2881 2656 2881 3163 
Q 2881 3666 2632 3958 
Q 2384 4250 1959 4250 
Q 1534 4250 1286 3958 
Q 1038 3666 1038 3163 
Q 1038 2656 1286 2365 
Q 1534 2075 1959 2075 
z
" transform="scale(0.015625)"/>
       </defs>
       <use xlink:href="#DejaVuSans-39"/>
       <use xlink:href="#DejaVuSans-30" x="63.623047"/>
      </g>
     </g>
    </g>
    <g id="text_10">
     <!-- 2θ° -->
     <g transform="translate(225.67125 339.315875) scale(0.12 -0.12)">
      <defs>
       <path id="DejaVuSans-3b8" d="M 2953 2219 
L 963 2219 
Q 1009 1284 1225 888 
Q 1494 400 1959 400 
Q 2428 400 2688 891 
Q 2916 1322 2953 2219 
z
M 2944 2750 
Q 2856 3638 2688 3950 
Q 2419 4444 1959 4444 
Q 1481 4444 1228 3956 
Q 1028 3563 969 2750 
L 2944 2750 
z
M 1959 4913 
Q 2709 4913 3138 4250 
Q 3566 3591 3566 2422 
Q 3566 1256 3138 594 
Q 2709 -72 1959 -72 
Q 1206 -72 781 594 
Q 353 1256 353 2422 
Q 353 3591 781 4250 
Q 1206 4913 1959 4913 
z
" transform="scale(0.015625)"/>
       <path id="DejaVuSans-b0" d="M 1600 4347 
Q 1350 4347 1178 4173 
Q 1006 4000 1006 3750 
Q 1006 3503 1178 3333 
Q 1350 3163 1600 3163 
Q 1850 3163 2022 3333 
Q 2194 3503 2194 3750 
Q 2194 3997 2020 4172 
Q 1847 4347 1600 4347 
z
M 1600 4750 
Q 1800 4750 1984 4673 
Q 2169 4597 2303 4453 
Q 2447 4313 2519 4134 
Q 2591 3956 2591 3750 
Q 2591 3338 2302 3052 
Q 2013 2766 1594 2766 
Q 1172 2766 890 3047 
Q 609 3328 609 3750 
Q 609 4169 896 4459 
Q 1184 4750 1600 4750 
z
" transform="scale(0.015625)"/>
      </defs>
      <use xlink:href="#DejaVuSans-32"/>
      <use xlink:href="#DejaVuSans-3b8" x="63.623047"/>
      <use xlink:href="#DejaVuSans-b0" x="124.804688"/>
     </g>
    </g>
   </g>
   <g id="matplotlib.axis_2">
    <g id="ytick_1">
     <g id="line2d_10">
      <defs>
       <path id="m117a3319d4" d="M 0 0 
L -3.5 0 
" style="stroke: #000000; stroke-width: 0.8"/>
      </defs>
      <g>
       <use xlink:href="#m117a3319d4" x="57.6" y="295.488255" style="stroke: #000000; stroke-width: 0.8"/>
      </g>
     </g>
     <g id="text_11">
      <!-- 0 -->
      <g transform="translate(42.965 300.047318) scale(0.12 -0.12)">
       <use xlink:href="#DejaVuSans-30"/>
      </g>
     </g>
    </g>
    <g id="ytick_2">
     <g id="line2d_11">
      <g>
       <use xlink:href="#m117a3319d4" x="57.6" y="244.30445" style="stroke: #000000; stroke-width: 0.8"/>
      </g>
     </g>
     <g id="text_12">
      <!-- 10000 -->
      <g transform="translate(12.425 248.863513) scale(0.12 -0.12)">
       <use xlink:href="#DejaVuSans-31"/>
       <use xlink:href="#DejaVuSans-30" x="63.623047"/>
       <use xlink:href="#DejaVuSans-30" x="127.246094"/>
       <use xlink:href="#DejaVuSans-30" x="190.869141"/>
       <use xlink:href="#DejaVuSans-30" x="254.492188"/>
      </g>
     </g>
    </g>
    <g id="ytick_3">
     <g id="line2d_12">
      <g>
       <use xlink:href="#m117a3319d4" x="57.6" y="193.120645" style="stroke: #000000; stroke-width: 0.8"/>
      </g>
     </g>
     <g id="text_13">
      <!-- 20000 -->
      <g transform="translate(12.425 197.679707) scale(0.12 -0.12)">
       <use xlink:href="#DejaVuSans-32"/>
       <use xlink:href="#DejaVuSans-30" x="63.623047"/>
       <use xlink:href="#DejaVuSans-30" x="127.246094"/>
       <use xlink:href="#DejaVuSans-30" x="190.869141"/>
       <use xlink:href="#DejaVuSans-30" x="254.492188"/>
      </g>
     </g>
    </g>
    <g id="ytick_4">
     <g id="line2d_13">
      <g>
       <use xlink:href="#m117a3319d4" x="57.6" y="141.93684" style="stroke: #000000; stroke-width: 0.8"/>
      </g>
     </g>
     <g id="text_14">
      <!-- 30000 -->
      <g transform="translate(12.425 146.495902) scale(0.12 -0.12)">
       <use xlink:href="#DejaVuSans-33"/>
       <use xlink:href="#DejaVuSans-30" x="63.623047"/>
       <use xlink:href="#DejaVuSans-30" x="127.246094"/>
       <use xlink:href="#DejaVuSans-30" x="190.869141"/>
       <use xlink:href="#DejaVuSans-30" x="254.492188"/>
      </g>
     </g>
    </g>
    <g id="ytick_5">
     <g id="line2d_14">
      <g>
       <use xlink:href="#m117a3319d4" x="57.6" y="90.753034" style="stroke: #000000; stroke-width: 0.8"/>
      </g>
     </g>
     <g id="text_15">
      <!-- 40000 -->
      <g transform="translate(12.425 95.312097) scale(0.12 -0.12)">
       <use xlink:href="#DejaVuSans-34"/>
       <use xlink:href="#DejaVuSans-30" x="63.623047"/>
       <use xlink:href="#DejaVuSans-30" x="127.246094"/>
       <use xlink:href="#DejaVuSans-30" x="190.869141"/>
       <use xlink:href="#DejaVuSans-30" x="254.492188"/>
      </g>
     </g>
    </g>
    <g id="text_16">
     <!-- I (a.u.) -->
     <g transform="translate(5.929375 194.179875) rotate(-90) scale(0.12 -0.12)">
      <defs>
       <path id="DejaVuSans-49" d="M 628 4666 
L 1259 4666 
L 1259 0 
L 628 0 
L 628 4666 
z
" transform="scale(0.015625)"/>
       <path id="DejaVuSans-20" transform="scale(0.015625)"/>
       <path id="DejaVuSans-28" d="M 1984 4856 
Q 1566 4138 1362 3434 
Q 1159 2731 1159 2009 
Q 1159 1288 1364 580 
Q 1569 -128 1984 -844 
L 1484 -844 
Q 1016 -109 783 600 
Q 550 1309 550 2009 
Q 550 2706 781 3412 
Q 1013 4119 1484 4856 
L 1984 4856 
z
" transform="scale(0.015625)"/>
       <path id="DejaVuSans-61" d="M 2194 1759 
Q 1497 1759 1228 1600 
Q 959 1441 959 1056 
Q 959 750 1161 570 
Q 1363 391 1709 391 
Q 2188 391 2477 730 
Q 2766 1069 2766 1631 
L 2766 1759 
L 2194 1759 
z
M 3341 1997 
L 3341 0 
L 2766 0 
L 2766 531 
Q 2569 213 2275 61 
Q 1981 -91 1556 -91 
Q 1019 -91 701 211 
Q 384 513 384 1019 
Q 384 1609 779 1909 
Q 1175 2209 1959 2209 
L 2766 2209 
L 2766 2266 
Q 2766 2663 2505 2880 
Q 2244 3097 1772 3097 
Q 1472 3097 1187 3025 
Q 903 2953 641 2809 
L 641 3341 
Q 956 3463 1253 3523 
Q 1550 3584 1831 3584 
Q 2591 3584 2966 3190 
Q 3341 2797 3341 1997 
z
" transform="scale(0.015625)"/>
       <path id="DejaVuSans-2e" d="M 684 794 
L 1344 794 
L 1344 0 
L 684 0 
L 684 794 
z
" transform="scale(0.015625)"/>
       <path id="DejaVuSans-75" d="M 544 1381 
L 544 3500 
L 1119 3500 
L 1119 1403 
Q 1119 906 1312 657 
Q 1506 409 1894 409 
Q 2359 409 2629 706 
Q 2900 1003 2900 1516 
L 2900 3500 
L 3475 3500 
L 3475 0 
L 2900 0 
L 2900 538 
Q 2691 219 2414 64 
Q 2138 -91 1772 -91 
Q 1169 -91 856 284 
Q 544 659 544 1381 
z
M 1991 3584 
L 1991 3584 
z
" transform="scale(0.015625)"/>
       <path id="DejaVuSans-29" d="M 513 4856 
L 1013 4856 
Q 1481 4119 1714 3412 
Q 1947 2706 1947 2009 
Q 1947 1309 1714 600 
Q 1481 -109 1013 -844 
L 513 -844 
Q 928 -128 1133 580 
Q 1338 1288 1338 2009 
Q 1338 2731 1133 3434 
Q 928 4138 513 4856 
z
" transform="scale(0.015625)"/>
      </defs>
      <use xlink:href="#DejaVuSans-49"/>
      <use xlink:href="#DejaVuSans-20" x="29.492188"/>
      <use xlink:href="#DejaVuSans-28" x="61.279297"/>
      <use xlink:href="#DejaVuSans-61" x="100.292969"/>
      <use xlink:href="#DejaVuSans-2e" x="161.572266"/>
      <use xlink:href="#DejaVuSans-75" x="193.359375"/>
      <use xlink:href="#DejaVuSans-2e" x="256.738281"/>
      <use xlink:href="#DejaVuSans-29" x="288.525391"/>
     </g>
    </g>
   </g>
   <g id="line2d_15">
    <path d="M 73.832727 294.264962 
L 73.939311 294.377567 
L 74.045895 294.193305 
L 74.259063 294.377567 
L 74.472231 294.23937 
L 74.685398 294.382685 
L 74.898566 294.162595 
L 75.00515 294.377567 
L 75.111734 294.188187 
L 75.218318 294.392922 
L 75.431486 294.193305 
L 75.644653 294.300791 
L 75.751237 294.372448 
L 75.857821 294.162595 
L 76.070989 294.234252 
L 76.817076 294.382685 
L 76.92366 294.224015 
L 77.136828 294.459461 
L 77.349996 294.254726 
L 77.45658 294.418514 
L 77.669747 294.285436 
L 78.202667 294.362212 
L 78.522419 294.403159 
L 78.629003 294.408277 
L 78.735586 294.264962 
L 78.948754 294.444106 
L 79.268506 294.346856 
L 79.481674 294.382685 
L 79.588258 294.536237 
L 80.014593 294.321265 
L 80.121177 294.357093 
L 80.334345 294.244489 
L 80.440929 294.510645 
L 80.547513 294.234252 
L 80.76068 294.403159 
L 81.187016 294.39804 
L 81.2936 294.479934 
L 81.506768 294.438987 
L 82.039687 294.377567 
L 82.146271 294.290554 
L 82.359439 294.541355 
L 82.466023 294.341738 
L 82.572607 294.531118 
L 82.892358 294.392922 
L 83.318694 294.423632 
L 83.74503 294.351975 
L 83.958197 294.597657 
L 84.064781 294.372448 
L 84.384533 294.413395 
L 84.917452 294.582302 
L 85.13062 294.290554 
L 85.343788 294.572065 
L 86.196459 294.469698 
L 86.303043 294.362212 
L 86.409627 294.55671 
L 86.516211 294.449224 
L 86.729379 294.623249 
L 86.835963 294.377567 
L 87.04913 294.449224 
L 87.262298 294.613012 
L 87.368882 294.618131 
L 87.475466 294.433869 
L 87.58205 294.623249 
L 87.795218 294.526 
L 88.114969 294.664196 
L 88.221553 294.490171 
L 88.328137 294.679551 
L 88.434721 294.602775 
L 88.541305 294.710261 
L 88.861057 294.464579 
L 88.96764 294.71538 
L 89.074224 294.536237 
L 89.393976 294.669314 
L 89.607144 294.505526 
L 89.820312 294.500408 
L 90.672983 294.720498 
L 90.992734 294.597657 
L 91.205902 294.740972 
L 91.525654 294.490171 
L 91.632238 294.428751 
L 91.845406 294.705143 
L 91.951989 294.623249 
L 92.058573 294.730735 
L 92.271741 294.674433 
L 92.484909 294.623249 
L 92.698077 294.653959 
L 92.804661 294.725617 
L 93.017828 294.669314 
L 93.230996 294.577184 
L 93.33758 294.792156 
L 93.444164 294.55671 
L 93.657332 294.720498 
L 93.763916 294.515763 
L 93.977083 294.648841 
L 94.296835 294.623249 
L 94.723171 294.751209 
L 94.936339 294.582302 
L 95.042922 294.787037 
L 95.575842 294.572065 
L 95.895594 294.725617 
L 96.108761 294.495289 
L 96.215345 294.725617 
L 96.321929 294.628367 
L 96.428513 294.720498 
L 96.641681 294.669314 
L 96.854849 294.725617 
L 96.961433 294.68467 
L 97.068016 294.766564 
L 97.1746 294.648841 
L 97.281184 294.787037 
L 97.494352 294.751209 
L 97.600936 294.771682 
L 97.70752 294.643723 
L 97.814104 294.848458 
L 98.133855 294.633486 
L 98.240439 294.751209 
L 98.347023 294.58742 
L 98.453607 294.7768 
L 98.666775 294.689788 
L 98.773359 294.7768 
L 98.879943 294.58742 
L 98.986527 294.694906 
L 99.09311 294.633486 
L 99.306278 294.751209 
L 99.412862 294.659078 
L 99.62603 294.71538 
L 99.839198 294.700025 
L 99.945782 294.725617 
L 100.052366 294.633486 
L 100.265533 294.740972 
L 100.372117 294.781919 
L 100.585285 294.71538 
L 100.905037 294.833103 
L 101.011621 294.700025 
L 101.118204 294.802392 
L 101.331372 294.674433 
L 101.864292 294.827984 
L 101.970876 294.638604 
L 102.184043 294.787037 
L 102.290627 294.664196 
L 102.503795 294.781919 
L 102.610379 294.700025 
L 102.716963 294.781919 
L 102.823547 294.664196 
L 102.930131 294.807511 
L 103.036715 294.633486 
L 103.356466 294.771682 
L 103.46305 294.664196 
L 103.569634 294.827984 
L 103.676218 294.68467 
L 103.99597 294.720498 
L 104.102554 294.664196 
L 104.209137 294.853576 
L 104.422305 294.71538 
L 105.061809 294.817747 
L 105.168393 294.689788 
L 105.38156 294.807511 
L 105.91448 294.740972 
L 106.021064 294.740972 
L 106.127648 294.628367 
L 106.340815 294.868931 
L 106.447399 294.879168 
L 106.553983 294.725617 
L 106.767151 294.802392 
L 107.086903 294.679551 
L 107.406654 294.87405 
L 107.619822 294.7768 
L 107.726406 294.689788 
L 107.83299 294.884286 
L 108.046158 294.7768 
L 108.685661 294.638604 
L 109.111997 294.863813 
L 109.431748 294.674433 
L 109.538332 294.781919 
L 109.7515 294.638604 
L 109.964668 294.802392 
L 110.071252 294.735853 
L 110.177836 294.827984 
L 110.28442 294.700025 
L 110.604171 294.853576 
L 110.710755 294.725617 
L 110.817339 294.87405 
L 111.030507 294.740972 
L 111.243675 294.781919 
L 111.456842 294.7768 
L 111.67001 294.7768 
L 111.883178 294.838221 
L 111.989762 294.756327 
L 112.096346 294.822866 
L 112.309514 294.74609 
L 112.522681 294.7768 
L 112.949017 294.740972 
L 113.375352 294.812629 
L 113.481936 294.71538 
L 113.58852 294.833103 
L 113.695104 294.669314 
L 114.014856 294.812629 
L 114.228024 294.664196 
L 114.441191 294.838221 
L 114.547775 294.735853 
L 114.760943 294.7768 
L 114.974111 294.817747 
L 115.187279 294.807511 
L 115.50703 294.771682 
L 115.613614 294.761445 
L 115.720198 294.889405 
L 115.826782 294.71538 
L 116.146534 294.781919 
L 117.318957 294.848458 
L 117.532124 294.694906 
L 117.745292 294.817747 
L 118.278212 294.781919 
L 118.491379 294.700025 
L 118.917715 294.766564 
L 119.130883 294.628367 
L 119.237467 294.740972 
L 119.663802 293.517679 
L 119.87697 291.86956 
L 120.090138 288.220155 
L 120.303306 275.925805 
L 120.729641 293.973215 
L 120.942809 294.653959 
L 121.049393 294.602775 
L 121.262561 294.674433 
L 121.369145 294.710261 
L 121.475729 294.920115 
L 121.902064 294.7768 
L 122.008648 294.87405 
L 122.115232 294.7768 
L 122.3284 294.833103 
L 122.648151 294.735853 
L 123.394239 294.884286 
L 123.607406 294.807511 
L 123.71399 294.802392 
L 123.927158 294.909878 
L 124.140326 294.802392 
L 124.24691 294.93547 
L 124.353494 294.838221 
L 124.460078 294.914997 
L 124.673245 294.838221 
L 125.099581 294.90476 
L 125.312749 294.853576 
L 125.525917 294.930352 
L 125.739084 294.812629 
L 125.845668 294.986654 
L 125.952252 294.7768 
L 126.272004 294.909878 
L 126.485172 294.848458 
L 126.804923 294.991772 
L 126.911507 294.787037 
L 127.444427 294.920115 
L 127.764178 294.879168 
L 127.977346 294.914997 
L 128.08393 294.751209 
L 128.190514 294.884286 
L 128.403682 294.495289 
L 128.510266 294.520881 
L 128.723433 293.778716 
L 129.469521 294.894523 
L 129.576105 294.705143 
L 129.682688 294.961062 
L 129.789272 294.848458 
L 130.00244 295.037838 
L 130.109024 294.899642 
L 130.215608 294.996891 
L 130.322192 294.858695 
L 130.428776 294.96618 
L 130.641944 294.925233 
L 130.748527 294.971299 
L 130.855111 294.884286 
L 130.961695 295.037838 
L 131.174863 294.981536 
L 131.281447 295.017364 
L 131.494615 294.925233 
L 131.707782 294.991772 
L 131.814366 294.909878 
L 131.92095 295.048075 
L 132.240702 295.002009 
L 132.45387 294.971299 
L 132.560454 294.90476 
L 132.667038 295.017364 
L 132.986789 294.971299 
L 133.306541 294.976417 
L 133.519709 294.955944 
L 133.83946 294.96618 
L 134.052628 295.022483 
L 134.265796 294.976417 
L 134.478964 295.007128 
L 135.438219 294.961062 
L 135.651387 295.083903 
L 135.971138 294.991772 
L 136.184306 294.986654 
L 136.930393 295.06343 
L 137.036977 294.909878 
L 137.250145 295.083903 
L 137.356729 295.002009 
L 137.463313 295.068548 
L 137.676481 294.909878 
L 137.889648 294.986654 
L 137.996232 295.027601 
L 138.102816 294.930352 
L 138.2094 295.037838 
L 138.315984 294.961062 
L 138.422568 295.09414 
L 138.529152 294.93547 
L 138.74232 295.104377 
L 139.062071 294.950825 
L 139.594991 295.058311 
L 140.12791 295.002009 
L 140.341078 295.099258 
L 140.767414 295.089022 
L 143.112259 294.991772 
L 143.218843 295.119732 
L 143.432011 295.027601 
L 143.645179 295.083903 
L 143.858347 294.945707 
L 144.071514 295.002009 
L 144.49785 293.630283 
L 144.711018 291.214408 
L 144.817602 291.419143 
L 145.030769 293.312944 
L 145.350521 294.833103 
L 145.457105 295.012246 
L 145.563689 294.971299 
L 145.776857 295.083903 
L 146.096608 294.996891 
L 148.121702 295.109495 
L 148.441454 295.042956 
L 148.761206 295.06343 
L 149.187541 295.037838 
L 149.294125 295.12485 
L 149.400709 294.894523 
L 150.040213 295.119732 
L 151.958723 295.053193 
L 152.17189 295.053193 
L 152.278474 295.09414 
L 152.491642 294.899642 
L 152.598226 294.940589 
L 152.811394 294.781919 
L 153.131145 293.568863 
L 153.237729 293.123564 
L 153.450897 293.8299 
L 153.770649 294.868931 
L 154.303568 295.058311 
L 154.410152 294.930352 
L 154.729904 295.170916 
L 154.836488 295.042956 
L 154.943072 295.109495 
L 155.049656 295.032719 
L 155.262823 295.170916 
L 155.369407 295.007128 
L 155.582575 295.048075 
L 155.795743 294.986654 
L 156.008911 295.150442 
L 156.115495 294.991772 
L 156.328662 295.027601 
L 156.435246 294.899642 
L 156.54183 295.053193 
L 156.754998 294.925233 
L 156.861582 295.022483 
L 157.287917 294.700025 
L 157.501085 294.316146 
L 157.820837 292.074295 
L 157.927421 290.938015 
L 158.034005 291.4908 
L 158.247172 292.857408 
L 158.566924 294.756327 
L 158.780092 294.822866 
L 159.206428 294.797274 
L 159.313011 294.669314 
L 159.419595 294.827984 
L 159.632763 294.659078 
L 159.845931 294.705143 
L 159.952515 294.541355 
L 160.165683 294.597657 
L 160.91177 294.04999 
L 161.231522 293.502324 
L 161.444689 291.992401 
L 161.657857 287.462635 
L 161.871025 276.417169 
L 162.084193 238.827783 
L 162.403944 53.568 
L 162.617112 183.288236 
L 162.723696 174.571634 
L 162.936864 277.348715 
L 163.150032 289.586763 
L 163.469783 293.425548 
L 163.682951 293.794071 
L 163.896119 294.311028 
L 164.322455 294.346856 
L 164.535622 294.664196 
L 164.642206 294.607894 
L 164.961958 294.756327 
L 165.068542 294.740972 
L 165.175126 294.853576 
L 165.388293 294.843339 
L 166.134381 294.991772 
L 167.093636 295.06343 
L 167.413387 295.042956 
L 168.479226 295.155561 
L 168.692394 295.027601 
L 169.11873 295.109495 
L 169.331898 295.09414 
L 169.545065 295.181152 
L 169.758233 295.155561 
L 169.864817 295.191389 
L 170.077985 295.073666 
L 170.291153 295.140205 
L 170.397737 295.078785 
L 170.717488 295.196508 
L 171.250408 294.976417 
L 171.356992 295.083903 
L 171.783327 294.479934 
L 172.103079 293.394838 
L 172.635998 294.843339 
L 172.95575 295.170916 
L 173.275502 295.058311 
L 173.382086 295.216981 
L 173.595253 295.150442 
L 175.194012 295.135087 
L 175.300596 295.027601 
L 175.513764 295.09414 
L 175.940099 295.211863 
L 176.046683 295.104377 
L 176.366435 295.196508 
L 176.473019 295.140205 
L 176.686186 295.181152 
L 178.178361 295.186271 
L 178.391529 295.2221 
L 178.498113 295.09414 
L 178.604696 295.227218 
L 178.71128 295.145324 
L 178.924448 295.170916 
L 179.670535 294.853576 
L 179.777119 294.597657 
L 179.990287 292.468411 
L 180.096871 290.538781 
L 180.310039 293.835018 
L 180.523207 293.108208 
L 180.736374 294.955944 
L 181.056126 295.160679 
L 181.16271 295.109495 
L 181.375878 295.232336 
L 181.589046 295.150442 
L 181.695629 295.242573 
L 181.802213 295.135087 
L 181.908797 295.257928 
L 182.228549 295.160679 
L 182.441717 295.263047 
L 183.187804 295.017364 
L 183.400972 294.490171 
L 183.720723 291.96681 
L 183.933891 293.568863 
L 184.147059 293.778716 
L 184.360227 294.889405 
L 184.573395 295.109495 
L 185.106314 295.247691 
L 186.172153 295.155561 
L 186.705073 295.309112 
L 186.91824 295.191389 
L 187.237992 295.28352 
L 187.664328 295.263047 
L 187.877495 295.216981 
L 187.984079 295.170916 
L 188.197247 295.263047 
L 188.623583 295.247691 
L 188.83675 295.242573 
L 189.263086 295.201626 
L 189.476254 295.227218 
L 190.328925 295.263047 
L 190.435509 295.170916 
L 190.542093 295.257928 
L 190.648677 295.150442 
L 190.755261 295.334704 
L 190.968428 295.211863 
L 191.28818 295.303994 
L 191.607932 295.247691 
L 191.8211 295.319349 
L 192.247435 295.196508 
L 192.354019 295.257928 
L 192.460603 295.145324 
L 192.673771 295.211863 
L 193.313274 295.28352 
L 193.952777 294.991772 
L 194.272529 293.359009 
L 194.592281 294.510645 
L 194.698865 294.300791 
L 195.1252 295.165797 
L 195.231784 295.181152 
L 195.764704 294.198423 
L 195.977871 294.807511 
L 196.084455 294.679551 
L 196.191039 294.618131 
L 196.510791 295.263047 
L 198.216133 295.268165 
L 198.535885 295.273283 
L 199.281972 295.247691 
L 199.49514 295.293757 
L 199.921476 295.25281 
L 200.028059 295.303994 
L 200.241227 295.232336 
L 200.880731 295.293757 
L 201.093898 295.242573 
L 201.626818 295.303994 
L 201.839986 295.242573 
L 202.692657 295.298875 
L 203.012409 295.247691 
L 203.33216 295.303994 
L 203.438744 295.237455 
L 203.651912 295.303994 
L 204.291415 295.242573 
L 204.397999 295.293757 
L 204.611167 295.227218 
L 204.824335 295.232336 
L 205.144086 295.278402 
L 205.78359 295.329586 
L 205.890174 295.201626 
L 206.209925 295.303994 
L 206.636261 295.155561 
L 206.742845 295.181152 
L 206.956013 294.955944 
L 207.7021 295.232336 
L 207.915268 295.263047 
L 208.128436 295.191389 
L 208.981107 295.232336 
L 209.194274 295.25281 
L 209.514026 295.181152 
L 209.833778 294.858695 
L 210.046946 293.809426 
L 210.260113 294.843339 
L 210.366697 294.889405 
L 210.473281 294.710261 
L 210.899617 295.196508 
L 211.006201 295.273283 
L 211.325952 295.181152 
L 211.432536 295.298875 
L 211.53912 295.216981 
L 211.645704 295.28352 
L 211.858872 295.2221 
L 212.178624 295.263047 
L 212.818127 295.268165 
L 213.670798 295.298875 
L 213.777382 295.191389 
L 213.99055 295.216981 
L 214.203718 295.232336 
L 215.802476 295.176034 
L 216.122228 295.09414 
L 216.335395 295.068548 
L 216.548563 294.914997 
L 216.974899 294.761445 
L 217.188067 294.408277 
L 217.294651 294.17795 
L 217.507818 292.995604 
L 217.720986 288.440245 
L 217.934154 274.231621 
L 218.147322 260.626966 
L 218.360489 281.653273 
L 218.467073 280.516992 
L 218.573657 276.657733 
L 218.999993 293.835018 
L 219.213161 294.638604 
L 219.319745 294.664196 
L 219.639496 295.073666 
L 219.959248 295.042956 
L 220.385583 295.186271 
L 220.598751 295.12485 
L 220.705335 295.186271 
L 220.811919 295.078785 
L 221.025087 295.201626 
L 221.771174 295.135087 
L 222.090926 295.181152 
L 222.410677 295.201626 
L 222.623845 295.278402 
L 222.837013 295.140205 
L 222.943597 295.28352 
L 223.050181 295.196508 
L 223.156765 295.31423 
L 223.369933 295.2221 
L 223.5831 295.309112 
L 223.689684 295.160679 
L 223.902852 295.25281 
L 224.435771 295.227218 
L 224.542355 295.329586 
L 224.755523 295.227218 
L 225.181859 295.263047 
L 225.288443 295.191389 
L 225.395027 295.303994 
L 225.714778 295.186271 
L 225.927946 295.288638 
L 226.247698 295.232336 
L 226.460866 295.216981 
L 226.780617 295.114614 
L 226.993785 295.257928 
L 227.313537 295.242573 
L 228.912295 295.257928 
L 229.125463 295.2221 
L 230.084718 295.278402 
L 230.297886 295.227218 
L 230.724221 295.181152 
L 231.150557 294.894523 
L 231.470309 294.454342 
L 231.576892 294.495289 
L 231.683476 294.659078 
L 231.79006 294.551592 
L 231.896644 294.653959 
L 232.003228 294.572065 
L 232.216396 295.042956 
L 232.642731 295.191389 
L 232.749315 295.145324 
L 233.069067 295.309112 
L 233.282235 295.303994 
L 237.758758 295.206744 
L 237.971926 295.099258 
L 238.291678 295.247691 
L 238.504846 295.186271 
L 238.718013 295.278402 
L 238.931181 295.329586 
L 239.144349 295.273283 
L 239.357517 295.334704 
L 239.570685 295.263047 
L 239.783852 295.278402 
L 240.210188 295.31423 
L 241.062859 295.360296 
L 241.382611 295.288638 
L 241.702363 295.303994 
L 242.022114 295.303994 
L 243.620873 295.334704 
L 244.473544 295.288638 
L 244.686712 295.329586 
L 244.899879 295.293757 
L 251.614665 295.273283 
L 252.041 294.71538 
L 252.147584 294.305909 
L 252.360752 294.561828 
L 252.57392 294.96618 
L 252.893672 294.807511 
L 253.106839 295.206744 
L 253.426591 295.237455 
L 253.533175 295.191389 
L 253.639759 295.288638 
L 253.852927 295.263047 
L 254.066094 295.268165 
L 254.918766 295.273283 
L 255.025349 295.334704 
L 255.238517 295.31423 
L 255.558269 295.288638 
L 255.771437 295.263047 
L 255.984605 295.303994 
L 257.583363 295.273283 
L 257.796531 295.293757 
L 258.116282 295.31423 
L 261.207215 295.293757 
L 261.420383 295.186271 
L 261.526967 295.268165 
L 261.846719 295.104377 
L 261.953303 295.135087 
L 262.059887 294.991772 
L 262.16647 295.068548 
L 262.379638 294.285436 
L 262.592806 291.772311 
L 262.805974 289.607236 
L 263.125726 293.087735 
L 263.232309 292.980249 
L 263.338893 292.289267 
L 263.445477 292.488884 
L 263.765229 294.408277 
L 264.084981 294.628367 
L 264.298148 295.032719 
L 264.511316 295.017364 
L 264.724484 294.914997 
L 264.937652 295.257928 
L 265.15082 295.247691 
L 265.470571 295.28352 
L 266.003491 295.288638 
L 266.323242 295.25281 
L 266.749578 295.273283 
L 267.495665 295.216981 
L 267.708833 295.06343 
L 267.922001 294.577184 
L 268.028585 294.653959 
L 268.241753 295.160679 
L 268.561504 294.90476 
L 268.774672 295.109495 
L 268.881256 295.25281 
L 269.201008 295.201626 
L 269.414175 295.155561 
L 269.627343 295.176034 
L 269.840511 295.247691 
L 270.053679 295.191389 
L 270.693182 295.135087 
L 271.226102 295.186271 
L 271.332685 295.155561 
L 271.545853 295.257928 
L 271.759021 295.135087 
L 271.972189 295.145324 
L 272.185357 295.242573 
L 272.931444 295.002009 
L 273.144612 294.976417 
L 273.251196 294.889405 
L 273.464363 295.06343 
L 273.570947 295.032719 
L 273.784115 295.150442 
L 273.890699 295.104377 
L 274.103867 295.309112 
L 274.423618 295.263047 
L 274.849954 295.365414 
L 275.063122 295.247691 
L 275.27629 295.268165 
L 275.915793 295.06343 
L 276.128961 294.71538 
L 276.342129 295.048075 
L 276.66188 295.140205 
L 276.768464 295.032719 
L 277.301384 295.257928 
L 278.154055 295.25281 
L 278.367223 295.370533 
L 278.793558 295.28352 
L 279.11331 295.298875 
L 279.326478 295.28352 
L 279.646229 295.339822 
L 279.859397 295.350059 
L 280.285733 295.273283 
L 280.4989 295.319349 
L 280.712068 295.329586 
L 280.818652 295.278402 
L 280.925236 295.360296 
L 281.03182 295.28352 
L 281.138404 295.355177 
L 281.564739 295.104377 
L 281.777907 295.129969 
L 281.991075 295.263047 
L 282.310827 295.12485 
L 282.630578 295.135087 
L 282.737162 294.996891 
L 283.056914 295.176034 
L 283.270082 295.129969 
L 283.376666 295.232336 
L 283.589833 295.201626 
L 283.696417 295.150442 
L 283.909585 295.2221 
L 284.442505 295.329586 
L 284.655672 295.273283 
L 285.828095 295.31423 
L 286.147847 295.309112 
L 290.517787 295.237455 
L 290.730954 295.083903 
L 291.15729 295.273283 
L 291.583626 294.976417 
L 291.903377 295.176034 
L 292.116545 295.227218 
L 295.207478 295.309112 
L 295.420646 295.268165 
L 295.633814 295.319349 
L 296.060149 295.268165 
L 296.593069 295.263047 
L 296.699653 295.191389 
L 296.91282 295.298875 
L 297.44574 295.232336 
L 298.404995 295.288638 
L 298.724747 295.145324 
L 298.937914 295.12485 
L 299.257666 294.7768 
L 299.577418 295.176034 
L 299.897169 295.007128 
L 300.963008 295.165797 
L 301.069592 295.053193 
L 301.28276 295.155561 
L 301.709096 294.827984 
L 301.922263 294.198423 
L 302.135431 290.89195 
L 302.348599 284.57075 
L 302.455183 285.609781 
L 302.668351 292.289267 
L 302.774935 293.031433 
L 302.881519 292.637317 
L 303.094686 289.863155 
L 303.20127 290.103719 
L 303.521022 294.613012 
L 303.73419 294.899642 
L 304.160525 295.165797 
L 305.546116 295.268165 
L 306.292203 295.181152 
L 306.505371 295.2221 
L 308.637049 295.263047 
L 308.743633 295.355177 
L 308.850217 295.247691 
L 309.063384 295.293757 
L 309.48972 295.293757 
L 309.702888 295.2221 
L 310.02264 295.257928 
L 323.45221 295.319349 
L 323.665378 295.350059 
L 324.091714 295.268165 
L 324.518049 295.31423 
L 325.477304 295.268165 
L 325.690472 295.298875 
L 325.797056 295.160679 
L 326.010224 295.298875 
L 329.634076 295.263047 
L 329.847244 295.119732 
L 330.060412 294.812629 
L 330.166996 294.725617 
L 330.380164 295.073666 
L 330.806499 295.129969 
L 331.019667 295.017364 
L 331.232835 295.114614 
L 331.446002 295.293757 
L 332.831593 295.186271 
L 333.044761 295.12485 
L 333.151345 295.257928 
L 333.897432 294.996891 
L 334.217184 295.176034 
L 334.536935 295.155561 
L 334.643519 295.078785 
L 334.963271 295.2221 
L 336.135694 295.237455 
L 336.348862 295.288638 
L 336.775197 295.237455 
L 337.094949 295.2221 
L 337.308117 295.12485 
L 337.414701 295.191389 
L 337.734452 294.996891 
L 337.841036 295.022483 
L 338.054204 294.945707 
L 338.373956 294.858695 
L 338.587123 294.275199 
L 338.800291 292.427464 
L 339.120043 288.281576 
L 339.333211 291.424261 
L 339.546379 293.42043 
L 339.652962 293.614928 
L 339.972714 291.746719 
L 340.079298 291.982165 
L 340.39905 294.357093 
L 340.612218 294.843339 
L 340.931969 295.053193 
L 341.358305 295.201626 
L 341.464889 295.160679 
L 341.571473 295.298875 
L 341.78464 295.242573 
L 342.424144 295.28352 
L 342.530728 295.201626 
L 342.743895 295.303994 
L 343.916318 295.293757 
L 344.129486 295.263047 
L 345.515077 295.319349 
L 345.834828 295.237455 
L 346.047996 295.350059 
L 346.580916 295.227218 
L 346.6875 295.31423 
L 346.900667 295.232336 
L 347.433587 295.298875 
L 347.646755 295.268165 
L 347.859922 295.288638 
L 347.966506 295.216981 
L 348.179674 295.237455 
L 348.60601 295.334704 
L 349.352097 295.293757 
L 366.192352 295.28352 
L 366.40552 295.380769 
L 366.618688 295.263047 
L 366.725272 295.334704 
L 366.93844 295.237455 
L 367.258191 295.350059 
L 367.577943 295.28352 
L 368.004279 295.31423 
L 368.217446 295.344941 
L 368.537198 295.324467 
L 368.750366 295.288638 
L 369.603037 295.303994 
L 369.922789 295.319349 
L 370.24254 295.324467 
L 371.521547 295.268165 
L 371.628131 295.324467 
L 371.841299 295.25281 
L 371.947883 295.309112 
L 372.161051 295.216981 
L 372.480802 295.309112 
L 372.69397 295.191389 
L 372.907138 295.2221 
L 373.013722 295.165797 
L 373.22689 295.211863 
L 373.759809 294.894523 
L 373.972977 293.962978 
L 374.079561 293.589336 
L 374.399312 290.748635 
L 374.825648 294.14724 
L 375.038816 294.423632 
L 375.465151 293.287352 
L 376.104655 295.114614 
L 376.211239 295.201626 
L 376.424406 295.181152 
L 376.744158 295.242573 
L 378.129749 295.257928 
L 378.342917 295.344941 
L 379.515339 295.324467 
L 379.941675 295.344941 
L 380.154843 295.309112 
L 380.581178 295.344941 
L 381.433849 295.28352 
L 381.647017 295.329586 
L 381.753601 295.298875 
L 381.966769 295.334704 
L 382.499688 295.303994 
L 382.926024 295.257928 
L 383.139192 295.119732 
L 383.35236 295.247691 
L 383.565527 295.201626 
L 383.778695 295.237455 
L 384.205031 295.303994 
L 384.524782 295.232336 
L 384.73795 295.273283 
L 385.27087 295.242573 
L 385.484037 295.380769 
L 385.803789 295.319349 
L 398.487273 295.355177 
L 398.487273 295.355177 
" clip-path="url(#p60010675d6)" style="fill: none; stroke: #1f77b4; stroke-width: 1.5; stroke-linecap: square"/>
   </g>
   <g id="line2d_16">
    <path d="M 73.832727 295.488 
L 143.96493 295.436309 
L 144.178098 295.233728 
L 144.391266 294.498307 
L 144.817602 291.696588 
L 145.243937 295.061355 
L 145.457105 295.424562 
L 145.990024 295.4753 
L 155.475991 295.457007 
L 159.419595 295.31754 
L 160.37885 295.110147 
L 160.91177 294.775029 
L 161.231522 294.293801 
L 161.444689 293.45316 
L 161.551273 292.363156 
L 161.764441 285.47276 
L 161.977609 265.891576 
L 162.29736 228.739708 
L 162.403944 224.347871 
L 162.510528 227.828186 
L 163.043448 290.380648 
L 163.256616 293.611688 
L 163.576367 294.52246 
L 164.002703 294.955105 
L 164.642206 295.210723 
L 165.814629 295.366529 
L 168.692394 295.451619 
L 181.482462 295.483594 
L 215.589308 295.386301 
L 216.655147 295.19365 
L 217.081483 294.91193 
L 217.294651 294.537209 
L 217.507818 293.272906 
L 217.720986 288.630381 
L 217.934154 275.058334 
L 218.040738 261.964495 
L 218.147322 263.047779 
L 218.360489 280.111124 
L 218.573657 277.118793 
L 218.893409 293.088017 
L 219.106577 294.476265 
L 219.426328 294.985143 
L 219.852664 295.22356 
L 220.705335 295.375939 
L 222.943597 295.456586 
L 233.921738 295.483526 
L 251.614665 295.388425 
L 251.934417 295.135596 
L 252.360752 294.680273 
L 252.57392 294.841446 
L 253.000255 295.300829 
L 253.426591 295.420874 
L 254.918766 295.459947 
L 261.633551 295.396442 
L 261.953303 295.275086 
L 262.16647 294.972629 
L 262.379638 294.202442 
L 263.019142 291.072131 
L 263.232309 291.985318 
L 263.658645 294.059257 
L 263.978397 294.849172 
L 264.404732 295.170207 
L 265.15082 295.41143 
L 266.323242 295.470447 
L 279.326478 295.486015 
L 301.069592 295.394651 
L 301.389344 295.260321 
L 301.602512 294.949401 
L 301.81568 294.216294 
L 302.135431 291.978825 
L 302.561767 288.862462 
L 302.668351 288.722901 
L 302.774935 288.9563 
L 302.988102 290.334296 
L 303.521022 294.341209 
L 303.840774 295.177362 
L 304.160525 295.377237 
L 305.013196 295.444695 
L 310.02264 295.482263 
L 329.420908 295.414218 
L 330.913083 295.209303 
L 331.978922 295.451917 
L 334.430352 295.473511 
L 337.841036 295.388845 
L 338.160788 295.227246 
L 338.48054 294.7495 
L 338.800291 293.740609 
L 339.439795 291.335218 
L 339.652962 291.284479 
L 339.86613 291.789429 
L 340.825385 295.067635 
L 341.145137 295.340035 
L 341.678056 295.438583 
L 344.768989 295.477776 
L 371.947883 295.459064 
L 373.546641 295.322944 
L 373.972977 295.032802 
L 375.038816 293.884939 
L 375.251984 294.003468 
L 375.784903 294.729068 
L 376.317822 295.255908 
L 376.850742 295.40955 
L 378.4495 295.462772 
L 389.853977 295.48654 
L 398.487273 295.487468 
L 398.487273 295.487468 
" clip-path="url(#p60010675d6)" style="fill: none; stroke: #ff7f0e; stroke-width: 1.5; stroke-linecap: square"/>
   </g>
   <g id="line2d_17">
    <path d="M 73.832727 295.472691 
L 118.597963 295.341491 
L 119.344051 295.16526 
L 119.557218 294.839865 
L 119.663802 294.22805 
L 119.87697 290.325157 
L 120.196722 281.709787 
L 120.303306 282.601784 
L 120.836225 294.761474 
L 121.049393 295.206847 
L 121.475729 295.320359 
L 122.967903 295.376538 
L 128.08393 295.340887 
L 128.403682 295.072979 
L 128.830017 294.404554 
L 129.043185 294.732896 
L 129.362937 295.271732 
L 129.682688 295.384011 
L 132.027534 295.402435 
L 152.491642 295.371037 
L 152.70481 295.216708 
L 152.917978 294.745944 
L 153.237729 293.452765 
L 153.770649 295.232748 
L 154.090401 295.414556 
L 155.582575 295.418934 
L 157.07475 295.317759 
L 157.287917 295.075404 
L 157.501085 294.367194 
L 157.927421 291.464133 
L 158.353756 294.522061 
L 158.673508 295.24637 
L 158.99326 295.339105 
L 160.165683 295.269182 
L 160.91177 295.056533 
L 161.338105 294.686494 
L 161.551273 294.263484 
L 161.764441 293.353093 
L 161.977609 290.735936 
L 162.084193 285.345428 
L 162.190777 249.581054 
L 162.29736 145.734702 
L 162.403944 145.967193 
L 162.510528 226.408041 
L 162.617112 224.751675 
L 162.723696 226.612684 
L 162.936864 284.957253 
L 163.150032 293.255909 
L 163.469783 294.496295 
L 163.789535 294.916403 
L 164.322455 295.187465 
L 165.28171 295.343174 
L 167.733139 295.428342 
L 171.356992 295.369207 
L 171.570159 295.189936 
L 172.209663 294.02792 
L 172.422831 294.490294 
L 172.742582 295.288427 
L 173.062334 295.417776 
L 174.87426 295.455835 
L 179.457368 295.364178 
L 179.670535 295.193613 
L 179.777119 294.896736 
L 179.883703 294.239323 
L 180.096871 290.65908 
L 180.310039 293.725939 
L 180.416623 293.453059 
L 180.523207 293.55563 
L 180.736374 295.248784 
L 181.056126 295.398505 
L 182.228549 295.440791 
L 182.974636 295.378496 
L 183.187804 295.176263 
L 183.400972 294.513505 
L 183.827307 292.830671 
L 184.573395 295.379567 
L 185.106314 295.44596 
L 189.689422 295.465981 
L 193.73961 295.393613 
L 193.952777 295.190745 
L 194.272529 293.756028 
L 194.379113 293.809027 
L 194.592281 294.678069 
L 194.698865 294.526146 
L 195.018616 295.357606 
L 195.231784 295.348756 
L 195.444952 295.137027 
L 195.871288 294.56007 
L 196.191039 295.093419 
L 196.510791 295.419477 
L 197.150294 295.461407 
L 206.636261 295.431442 
L 206.849429 295.271235 
L 207.062597 295.188504 
L 207.275764 295.320061 
L 207.488932 295.349669 
L 207.808684 295.445351 
L 209.407442 295.427784 
L 209.62061 295.380829 
L 209.727194 295.269402 
L 210.046946 294.295835 
L 210.260113 295.081096 
L 210.473281 294.967126 
L 210.899617 295.428834 
L 212.178624 295.457095 
L 230.617637 295.406335 
L 230.937389 295.253528 
L 231.683476 294.633088 
L 231.896644 294.799143 
L 232.32298 295.277232 
L 232.855899 295.432051 
L 234.134906 295.468328 
L 237.652175 295.37211 
L 238.398262 295.399224 
L 239.570685 295.465801 
L 254.172678 295.481621 
L 267.389081 295.373555 
L 267.922001 295.030785 
L 268.241753 295.167335 
L 268.668088 295.251874 
L 269.201008 295.38431 
L 270.266847 295.304187 
L 270.90635 295.350846 
L 272.078773 295.343586 
L 272.82486 295.176736 
L 273.251196 295.125748 
L 274.74337 295.448905 
L 275.702625 295.388251 
L 276.128961 295.025232 
L 276.448712 295.283332 
L 276.981632 295.327023 
L 277.621135 295.459648 
L 281.03182 295.446058 
L 281.351572 295.363656 
L 281.564739 295.224717 
L 282.204243 295.350675 
L 283.056914 295.265148 
L 284.549088 295.447725 
L 288.70586 295.460682 
L 290.944122 295.343111 
L 291.690209 295.291399 
L 293.821887 295.450205 
L 296.593069 295.41371 
L 300.216921 295.320632 
L 301.069592 295.435258 
L 306.185619 295.413805 
L 307.890962 295.395521 
L 309.916056 295.414261 
L 311.301646 295.436686 
L 313.966244 295.461463 
L 328.461653 295.447293 
L 330.166996 295.468353 
L 332.618425 295.355494 
L 334.1106 295.262047 
L 337.094949 295.385526 
L 338.267372 295.123018 
L 338.693707 295.119705 
L 340.292466 295.43884 
L 346.6875 295.418213 
L 349.352097 295.449757 
L 352.869365 295.406969 
L 353.189117 295.42775 
L 353.935204 295.453914 
L 373.759809 295.340211 
L 373.866393 295.142945 
L 374.079561 293.788025 
L 374.292728 292.278241 
L 374.399312 292.598488 
L 374.825648 295.340198 
L 375.038816 295.454535 
L 376.850742 295.475277 
L 382.926024 295.383156 
L 383.35236 295.331435 
L 383.991863 295.386541 
L 388.042051 295.464134 
L 398.487273 295.483118 
L 398.487273 295.483118 
" clip-path="url(#p60010675d6)" style="fill: none; stroke: #2ca02c; stroke-width: 1.5; stroke-linecap: square"/>
   </g>
   <g id="patch_3">
    <path d="M 57.6 307.584 
L 57.6 41.472 
" style="fill: none; stroke: #000000; stroke-width: 0.8; stroke-linejoin: miter; stroke-linecap: square"/>
   </g>
   <g id="patch_4">
    <path d="M 414.72 307.584 
L 414.72 41.472 
" style="fill: none; stroke: #000000; stroke-width: 0.8; stroke-linejoin: miter; stroke-linecap: square"/>
   </g>
   <g id="patch_5">
    <path d="M 57.6 307.584 
L 414.72 307.584 
" style="fill: none; stroke: #000000; stroke-width: 0.8; stroke-linejoin: miter; stroke-linecap: square"/>
   </g>
   <g id="patch_6">
    <path d="M 57.6 41.472 
L 414.72 41.472 
" style="fill: none; stroke: #000000; stroke-width: 0.8; stroke-linejoin: miter; stroke-linecap: square"/>
   </g>
   <g id="legend_1">
    <g id="patch_7">
     <path d="M 298.993125 103.91325 
L 406.32 103.91325 
Q 408.72 103.91325 408.72 101.51325 
L 408.72 49.872 
Q 408.72 47.472 406.32 47.472 
L 298.993125 47.472 
Q 296.593125 47.472 296.593125 49.872 
L 296.593125 101.51325 
Q 296.593125 103.91325 298.993125 103.91325 
z
" style="fill: #ffffff; opacity: 0.8; stroke: #cccccc; stroke-linejoin: miter"/>
    </g>
    <g id="line2d_18">
     <path d="M 301.393125 57.190125 
L 313.393125 57.190125 
L 325.393125 57.190125 
" style="fill: none; stroke: #1f77b4; stroke-width: 1.5; stroke-linecap: square"/>
    </g>
    <g id="text_17">
     <!-- experiment -->
     <g transform="translate(334.993125 61.390125) scale(0.12 -0.12)">
      <defs>
       <path id="DejaVuSans-65" d="M 3597 1894 
L 3597 1613 
L 953 1613 
Q 991 1019 1311 708 
Q 1631 397 2203 397 
Q 2534 397 2845 478 
Q 3156 559 3463 722 
L 3463 178 
Q 3153 47 2828 -22 
Q 2503 -91 2169 -91 
Q 1331 -91 842 396 
Q 353 884 353 1716 
Q 353 2575 817 3079 
Q 1281 3584 2069 3584 
Q 2775 3584 3186 3129 
Q 3597 2675 3597 1894 
z
M 3022 2063 
Q 3016 2534 2758 2815 
Q 2500 3097 2075 3097 
Q 1594 3097 1305 2825 
Q 1016 2553 972 2059 
L 3022 2063 
z
" transform="scale(0.015625)"/>
       <path id="DejaVuSans-78" d="M 3513 3500 
L 2247 1797 
L 3578 0 
L 2900 0 
L 1881 1375 
L 863 0 
L 184 0 
L 1544 1831 
L 300 3500 
L 978 3500 
L 1906 2253 
L 2834 3500 
L 3513 3500 
z
" transform="scale(0.015625)"/>
       <path id="DejaVuSans-70" d="M 1159 525 
L 1159 -1331 
L 581 -1331 
L 581 3500 
L 1159 3500 
L 1159 2969 
Q 1341 3281 1617 3432 
Q 1894 3584 2278 3584 
Q 2916 3584 3314 3078 
Q 3713 2572 3713 1747 
Q 3713 922 3314 415 
Q 2916 -91 2278 -91 
Q 1894 -91 1617 61 
Q 1341 213 1159 525 
z
M 3116 1747 
Q 3116 2381 2855 2742 
Q 2594 3103 2138 3103 
Q 1681 3103 1420 2742 
Q 1159 2381 1159 1747 
Q 1159 1113 1420 752 
Q 1681 391 2138 391 
Q 2594 391 2855 752 
Q 3116 1113 3116 1747 
z
" transform="scale(0.015625)"/>
       <path id="DejaVuSans-72" d="M 2631 2963 
Q 2534 3019 2420 3045 
Q 2306 3072 2169 3072 
Q 1681 3072 1420 2755 
Q 1159 2438 1159 1844 
L 1159 0 
L 581 0 
L 581 3500 
L 1159 3500 
L 1159 2956 
Q 1341 3275 1631 3429 
Q 1922 3584 2338 3584 
Q 2397 3584 2469 3576 
Q 2541 3569 2628 3553 
L 2631 2963 
z
" transform="scale(0.015625)"/>
       <path id="DejaVuSans-69" d="M 603 3500 
L 1178 3500 
L 1178 0 
L 603 0 
L 603 3500 
z
M 603 4863 
L 1178 4863 
L 1178 4134 
L 603 4134 
L 603 4863 
z
" transform="scale(0.015625)"/>
       <path id="DejaVuSans-6d" d="M 3328 2828 
Q 3544 3216 3844 3400 
Q 4144 3584 4550 3584 
Q 5097 3584 5394 3201 
Q 5691 2819 5691 2113 
L 5691 0 
L 5113 0 
L 5113 2094 
Q 5113 2597 4934 2840 
Q 4756 3084 4391 3084 
Q 3944 3084 3684 2787 
Q 3425 2491 3425 1978 
L 3425 0 
L 2847 0 
L 2847 2094 
Q 2847 2600 2669 2842 
Q 2491 3084 2119 3084 
Q 1678 3084 1418 2786 
Q 1159 2488 1159 1978 
L 1159 0 
L 581 0 
L 581 3500 
L 1159 3500 
L 1159 2956 
Q 1356 3278 1631 3431 
Q 1906 3584 2284 3584 
Q 2666 3584 2933 3390 
Q 3200 3197 3328 2828 
z
" transform="scale(0.015625)"/>
       <path id="DejaVuSans-6e" d="M 3513 2113 
L 3513 0 
L 2938 0 
L 2938 2094 
Q 2938 2591 2744 2837 
Q 2550 3084 2163 3084 
Q 1697 3084 1428 2787 
Q 1159 2491 1159 1978 
L 1159 0 
L 581 0 
L 581 3500 
L 1159 3500 
L 1159 2956 
Q 1366 3272 1645 3428 
Q 1925 3584 2291 3584 
Q 2894 3584 3203 3211 
Q 3513 2838 3513 2113 
z
" transform="scale(0.015625)"/>
       <path id="DejaVuSans-74" d="M 1172 4494 
L 1172 3500 
L 2356 3500 
L 2356 3053 
L 1172 3053 
L 1172 1153 
Q 1172 725 1289 603 
Q 1406 481 1766 481 
L 2356 481 
L 2356 0 
L 1766 0 
Q 1100 0 847 248 
Q 594 497 594 1153 
L 594 3053 
L 172 3053 
L 172 3500 
L 594 3500 
L 594 4494 
L 1172 4494 
z
" transform="scale(0.015625)"/>
      </defs>
      <use xlink:href="#DejaVuSans-65"/>
      <use xlink:href="#DejaVuSans-78" x="59.773438"/>
      <use xlink:href="#DejaVuSans-70" x="118.953125"/>
      <use xlink:href="#DejaVuSans-65" x="182.429688"/>
      <use xlink:href="#DejaVuSans-72" x="243.953125"/>
      <use xlink:href="#DejaVuSans-69" x="285.066406"/>
      <use xlink:href="#DejaVuSans-6d" x="312.849609"/>
      <use xlink:href="#DejaVuSans-65" x="410.261719"/>
      <use xlink:href="#DejaVuSans-6e" x="471.785156"/>
      <use xlink:href="#DejaVuSans-74" x="535.164062"/>
     </g>
    </g>
    <g id="line2d_19">
     <path d="M 301.393125 74.803875 
L 313.393125 74.803875 
L 325.393125 74.803875 
" style="fill: none; stroke: #ff7f0e; stroke-width: 1.5; stroke-linecap: square"/>
    </g>
    <g id="text_18">
     <!-- NaCl -->
     <g transform="translate(334.993125 79.003875) scale(0.12 -0.12)">
      <defs>
       <path id="DejaVuSans-4e" d="M 628 4666 
L 1478 4666 
L 3547 763 
L 3547 4666 
L 4159 4666 
L 4159 0 
L 3309 0 
L 1241 3903 
L 1241 0 
L 628 0 
L 628 4666 
z
" transform="scale(0.015625)"/>
       <path id="DejaVuSans-43" d="M 4122 4306 
L 4122 3641 
Q 3803 3938 3442 4084 
Q 3081 4231 2675 4231 
Q 1875 4231 1450 3742 
Q 1025 3253 1025 2328 
Q 1025 1406 1450 917 
Q 1875 428 2675 428 
Q 3081 428 3442 575 
Q 3803 722 4122 1019 
L 4122 359 
Q 3791 134 3420 21 
Q 3050 -91 2638 -91 
Q 1578 -91 968 557 
Q 359 1206 359 2328 
Q 359 3453 968 4101 
Q 1578 4750 2638 4750 
Q 3056 4750 3426 4639 
Q 3797 4528 4122 4306 
z
" transform="scale(0.015625)"/>
       <path id="DejaVuSans-6c" d="M 603 4863 
L 1178 4863 
L 1178 0 
L 603 0 
L 603 4863 
z
" transform="scale(0.015625)"/>
      </defs>
      <use xlink:href="#DejaVuSans-4e"/>
      <use xlink:href="#DejaVuSans-61" x="74.804688"/>
      <use xlink:href="#DejaVuSans-43" x="136.083984"/>
      <use xlink:href="#DejaVuSans-6c" x="205.908203"/>
     </g>
    </g>
    <g id="line2d_20">
     <path d="M 301.393125 92.417625 
L 313.393125 92.417625 
L 325.393125 92.417625 
" style="fill: none; stroke: #2ca02c; stroke-width: 1.5; stroke-linecap: square"/>
    </g>
    <g id="text_19">
     <!-- Li2CO3 -->
     <g transform="translate(334.993125 96.617625) scale(0.12 -0.12)">
      <defs>
       <path id="DejaVuSans-4c" d="M 628 4666 
L 1259 4666 
L 1259 531 
L 3531 531 
L 3531 0 
L 628 0 
L 628 4666 
z
" transform="scale(0.015625)"/>
       <path id="DejaVuSans-4f" d="M 2522 4238 
Q 1834 4238 1429 3725 
Q 1025 3213 1025 2328 
Q 1025 1447 1429 934 
Q 1834 422 2522 422 
Q 3209 422 3611 934 
Q 4013 1447 4013 2328 
Q 4013 3213 3611 3725 
Q 3209 4238 2522 4238 
z
M 2522 4750 
Q 3503 4750 4090 4092 
Q 4678 3434 4678 2328 
Q 4678 1225 4090 567 
Q 3503 -91 2522 -91 
Q 1538 -91 948 565 
Q 359 1222 359 2328 
Q 359 3434 948 4092 
Q 1538 4750 2522 4750 
z
" transform="scale(0.015625)"/>
      </defs>
      <use xlink:href="#DejaVuSans-4c"/>
      <use xlink:href="#DejaVuSans-69" x="55.712891"/>
      <use xlink:href="#DejaVuSans-32" x="83.496094"/>
      <use xlink:href="#DejaVuSans-43" x="147.119141"/>
      <use xlink:href="#DejaVuSans-4f" x="216.943359"/>
      <use xlink:href="#DejaVuSans-33" x="295.654297"/>
     </g>
    </g>
   </g>
  </g>
 </g>
 <defs>
  <clipPath id="p60010675d6">
   <rect x="57.6" y="41.472" width="357.12" height="266.112"/>
  </clipPath>
 </defs>
</svg>
