<?xml version="1.0" encoding="utf-8" standalone="no"?>
<!DOCTYPE svg PUBLIC "-//W3C//DTD SVG 1.1//EN"
  "http://www.w3.org/Graphics/SVG/1.1/DTD/svg11.dtd">
<svg xmlns:xlink="http://www.w3.org/1999/xlink" width="460.8pt" height="345.6pt" viewBox="0 0 460.8 345.6" xmlns="http://www.w3.org/2000/svg" version="1.1">
 <metadata>
  <rdf:RDF xmlns:dc="http://purl.org/dc/elements/1.1/" xmlns:cc="http://creativecommons.org/ns#" xmlns:rdf="http://www.w3.org/1999/02/22-rdf-syntax-ns#">
   <cc:Work>
    <dc:type rdf:resource="http://purl.org/dc/dcmitype/StillImage"/>
    <dc:date>2026-02-06T16:09:31.449505</dc:date>
    <dc:format>image/svg+xml</dc:format>
    <dc:creator>
     <cc:Agent>
      <dc:title>Matplotlib v3.7.1, https://matplotlib.org/</dc:title>
     </cc:Agent>
    </dc:creator>
   </cc:Work>
  </rdf:RDF>
 </metadata>
 <defs>
  <style type="text/css">*{stroke-linejoin: round; stroke-linecap: butt}</style>
 </defs>
 <g id="figure_1">
  <g id="patch_1">
   <path d="M 0 345.6 
L 460.8 345.6 
L 460.8 0 
L 0 0 
z
" style="fill: #ffffff"/>
  </g>
  <g id="axes_1">
   <g id="patch_2">
    <path d="M 57.6 307.584 
L 414.72 307.584 
L 414.72 41.472 
L 57.6 41.472 
z
" style="fill: #ffffff"/>
   </g>
   <g id="matplotlib.axis_1">
    <g id="xtick_1">
     <g id="line2d_1">
      <defs>
       <path id="mf3a35a2db9" d="M 0 0 
L 0 3.5 
" style="stroke: #000000; stroke-width: 0.8"/>
      </defs>
      <g>
       <use xlink:href="#mf3a35a2db9" x="73.801758" y="307.584" style="stroke: #000000; stroke-width: 0.8"/>
      </g>
     </g>
     <g id="text_1">
      <!-- 10 -->
      <g transform="translate(66.166758 323.702125) scale(0.12 -0.12)">
       <defs>
        <path id="DejaVuSans-31" d="M 794 531 
L 1825 531 
L 1825 4091 
L 703 3866 
L 703 4441 
L 1819 4666 
L 2450 4666 
L 2450 531 
L 3481 531 
L 3481 0 
L 794 0 
L 794 531 
z
" transform="scale(0.015625)"/>
        <path id="DejaVuSans-30" d="M 2034 4250 
Q 1547 4250 1301 3770 
Q 1056 3291 1056 2328 
Q 1056 1369 1301 889 
Q 1547 409 2034 409 
Q 2525 409 2770 889 
Q 3016 1369 3016 2328 
Q 3016 3291 2770 3770 
Q 2525 4250 2034 4250 
z
M 2034 4750 
Q 2819 4750 3233 4129 
Q 3647 3509 3647 2328 
Q 3647 1150 3233 529 
Q 2819 -91 2034 -91 
Q 1250 -91 836 529 
Q 422 1150 422 2328 
Q 422 3509 836 4129 
Q 1250 4750 2034 4750 
z
" transform="scale(0.015625)"/>
       </defs>
       <use xlink:href="#DejaVuSans-31"/>
       <use xlink:href="#DejaVuSans-30" x="63.623047"/>
      </g>
     </g>
    </g>
    <g id="xtick_2">
     <g id="line2d_2">
      <g>
       <use xlink:href="#mf3a35a2db9" x="114.388811" y="307.584" style="stroke: #000000; stroke-width: 0.8"/>
      </g>
     </g>
     <g id="text_2">
      <!-- 20 -->
      <g transform="translate(106.753811 323.702125) scale(0.12 -0.12)">
       <defs>
        <path id="DejaVuSans-32" d="M 1228 531 
L 3431 531 
L 3431 0 
L 469 0 
L 469 531 
Q 828 903 1448 1529 
Q 2069 2156 2228 2338 
Q 2531 2678 2651 2914 
Q 2772 3150 2772 3378 
Q 2772 3750 2511 3984 
Q 2250 4219 1831 4219 
Q 1534 4219 1204 4116 
Q 875 4013 500 3803 
L 500 4441 
Q 881 4594 1212 4672 
Q 1544 4750 1819 4750 
Q 2544 4750 2975 4387 
Q 3406 4025 3406 3419 
Q 3406 3131 3298 2873 
Q 3191 2616 2906 2266 
Q 2828 2175 2409 1742 
Q 1991 1309 1228 531 
z
" transform="scale(0.015625)"/>
       </defs>
       <use xlink:href="#DejaVuSans-32"/>
       <use xlink:href="#DejaVuSans-30" x="63.623047"/>
      </g>
     </g>
    </g>
    <g id="xtick_3">
     <g id="line2d_3">
      <g>
       <use xlink:href="#mf3a35a2db9" x="154.975864" y="307.584" style="stroke: #000000; stroke-width: 0.8"/>
      </g>
     </g>
     <g id="text_3">
      <!-- 30 -->
      <g transform="translate(147.340864 323.702125) scale(0.12 -0.12)">
       <defs>
        <path id="DejaVuSans-33" d="M 2597 2516 
Q 3050 2419 3304 2112 
Q 3559 1806 3559 1356 
Q 3559 666 3084 287 
Q 2609 -91 1734 -91 
Q 1441 -91 1130 -33 
Q 819 25 488 141 
L 488 750 
Q 750 597 1062 519 
Q 1375 441 1716 441 
Q 2309 441 2620 675 
Q 2931 909 2931 1356 
Q 2931 1769 2642 2001 
Q 2353 2234 1838 2234 
L 1294 2234 
L 1294 2753 
L 1863 2753 
Q 2328 2753 2575 2939 
Q 2822 3125 2822 3475 
Q 2822 3834 2567 4026 
Q 2313 4219 1838 4219 
Q 1578 4219 1281 4162 
Q 984 4106 628 3988 
L 628 4550 
Q 988 4650 1302 4700 
Q 1616 4750 1894 4750 
Q 2613 4750 3031 4423 
Q 3450 4097 3450 3541 
Q 3450 3153 3228 2886 
Q 3006 2619 2597 2516 
z
" transform="scale(0.015625)"/>
       </defs>
       <use xlink:href="#DejaVuSans-33"/>
       <use xlink:href="#DejaVuSans-30" x="63.623047"/>
      </g>
     </g>
    </g>
    <g id="xtick_4">
     <g id="line2d_4">
      <g>
       <use xlink:href="#mf3a35a2db9" x="195.562917" y="307.584" style="stroke: #000000; stroke-width: 0.8"/>
      </g>
     </g>
     <g id="text_4">
      <!-- 40 -->
      <g transform="translate(187.927917 323.702125) scale(0.12 -0.12)">
       <defs>
        <path id="DejaVuSans-34" d="M 2419 4116 
L 825 1625 
L 2419 1625 
L 2419 4116 
z
M 2253 4666 
L 3047 4666 
L 3047 1625 
L 3713 1625 
L 3713 1100 
L 3047 1100 
L 3047 0 
L 2419 0 
L 2419 1100 
L 313 1100 
L 313 1709 
L 2253 4666 
z
" transform="scale(0.015625)"/>
       </defs>
       <use xlink:href="#DejaVuSans-34"/>
       <use xlink:href="#DejaVuSans-30" x="63.623047"/>
      </g>
     </g>
    </g>
    <g id="xtick_5">
     <g id="line2d_5">
      <g>
       <use xlink:href="#mf3a35a2db9" x="236.14997" y="307.584" style="stroke: #000000; stroke-width: 0.8"/>
      </g>
     </g>
     <g id="text_5">
      <!-- 50 -->
      <g transform="translate(228.51497 323.702125) scale(0.12 -0.12)">
       <defs>
        <path id="DejaVuSans-35" d="M 691 4666 
L 3169 4666 
L 3169 4134 
L 1269 4134 
L 1269 2991 
Q 1406 3038 1543 3061 
Q 1681 3084 1819 3084 
Q 2600 3084 3056 2656 
Q 3513 2228 3513 1497 
Q 3513 744 3044 326 
Q 2575 -91 1722 -91 
Q 1428 -91 1123 -41 
Q 819 9 494 109 
L 494 744 
Q 775 591 1075 516 
Q 1375 441 1709 441 
Q 2250 441 2565 725 
Q 2881 1009 2881 1497 
Q 2881 1984 2565 2268 
Q 2250 2553 1709 2553 
Q 1456 2553 1204 2497 
Q 953 2441 691 2322 
L 691 4666 
z
" transform="scale(0.015625)"/>
       </defs>
       <use xlink:href="#DejaVuSans-35"/>
       <use xlink:href="#DejaVuSans-30" x="63.623047"/>
      </g>
     </g>
    </g>
    <g id="xtick_6">
     <g id="line2d_6">
      <g>
       <use xlink:href="#mf3a35a2db9" x="276.737023" y="307.584" style="stroke: #000000; stroke-width: 0.8"/>
      </g>
     </g>
     <g id="text_6">
      <!-- 60 -->
      <g transform="translate(269.102023 323.702125) scale(0.12 -0.12)">
       <defs>
        <path id="DejaVuSans-36" d="M 2113 2584 
Q 1688 2584 1439 2293 
Q 1191 2003 1191 1497 
Q 1191 994 1439 701 
Q 1688 409 2113 409 
Q 2538 409 2786 701 
Q 3034 994 3034 1497 
Q 3034 2003 2786 2293 
Q 2538 2584 2113 2584 
z
M 3366 4563 
L 3366 3988 
Q 3128 4100 2886 4159 
Q 2644 4219 2406 4219 
Q 1781 4219 1451 3797 
Q 1122 3375 1075 2522 
Q 1259 2794 1537 2939 
Q 1816 3084 2150 3084 
Q 2853 3084 3261 2657 
Q 3669 2231 3669 1497 
Q 3669 778 3244 343 
Q 2819 -91 2113 -91 
Q 1303 -91 875 529 
Q 447 1150 447 2328 
Q 447 3434 972 4092 
Q 1497 4750 2381 4750 
Q 2619 4750 2861 4703 
Q 3103 4656 3366 4563 
z
" transform="scale(0.015625)"/>
       </defs>
       <use xlink:href="#DejaVuSans-36"/>
       <use xlink:href="#DejaVuSans-30" x="63.623047"/>
      </g>
     </g>
    </g>
    <g id="xtick_7">
     <g id="line2d_7">
      <g>
       <use xlink:href="#mf3a35a2db9" x="317.324075" y="307.584" style="stroke: #000000; stroke-width: 0.8"/>
      </g>
     </g>
     <g id="text_7">
      <!-- 70 -->
      <g transform="translate(309.689075 323.702125) scale(0.12 -0.12)">
       <defs>
        <path id="DejaVuSans-37" d="M 525 4666 
L 3525 4666 
L 3525 4397 
L 1831 0 
L 1172 0 
L 2766 4134 
L 525 4134 
L 525 4666 
z
" transform="scale(0.015625)"/>
       </defs>
       <use xlink:href="#DejaVuSans-37"/>
       <use xlink:href="#DejaVuSans-30" x="63.623047"/>
      </g>
     </g>
    </g>
    <g id="xtick_8">
     <g id="line2d_8">
      <g>
       <use xlink:href="#mf3a35a2db9" x="357.911128" y="307.584" style="stroke: #000000; stroke-width: 0.8"/>
      </g>
     </g>
     <g id="text_8">
      <!-- 80 -->
      <g transform="translate(350.276128 323.702125) scale(0.12 -0.12)">
       <defs>
        <path id="DejaVuSans-38" d="M 2034 2216 
Q 1584 2216 1326 1975 
Q 1069 1734 1069 1313 
Q 1069 891 1326 650 
Q 1584 409 2034 409 
Q 2484 409 2743 651 
Q 3003 894 3003 1313 
Q 3003 1734 2745 1975 
Q 2488 2216 2034 2216 
z
M 1403 2484 
Q 997 2584 770 2862 
Q 544 3141 544 3541 
Q 544 4100 942 4425 
Q 1341 4750 2034 4750 
Q 2731 4750 3128 4425 
Q 3525 4100 3525 3541 
Q 3525 3141 3298 2862 
Q 3072 2584 2669 2484 
Q 3125 2378 3379 2068 
Q 3634 1759 3634 1313 
Q 3634 634 3220 271 
Q 2806 -91 2034 -91 
Q 1263 -91 848 271 
Q 434 634 434 1313 
Q 434 1759 690 2068 
Q 947 2378 1403 2484 
z
M 1172 3481 
Q 1172 3119 1398 2916 
Q 1625 2713 2034 2713 
Q 2441 2713 2670 2916 
Q 2900 3119 2900 3481 
Q 2900 3844 2670 4047 
Q 2441 4250 2034 4250 
Q 1625 4250 1398 4047 
Q 1172 3844 1172 3481 
z
" transform="scale(0.015625)"/>
       </defs>
       <use xlink:href="#DejaVuSans-38"/>
       <use xlink:href="#DejaVuSans-30" x="63.623047"/>
      </g>
     </g>
    </g>
    <g id="xtick_9">
     <g id="line2d_9">
      <g>
       <use xlink:href="#mf3a35a2db9" x="398.498181" y="307.584" style="stroke: #000000; stroke-width: 0.8"/>
      </g>
     </g>
     <g id="text_9">
      <!-- 90 -->
      <g transform="translate(390.863181 323.702125) scale(0.12 -0.12)">
       <defs>
        <path id="DejaVuSans-39" d="M 703 97 
L 703 672 
Q 941 559 1184 500 
Q 1428 441 1663 441 
Q 2288 441 2617 861 
Q 2947 1281 2994 2138 
Q 2813 1869 2534 1725 
Q 2256 1581 1919 1581 
Q 1219 1581 811 2004 
Q 403 2428 403 3163 
Q 403 3881 828 4315 
Q 1253 4750 1959 4750 
Q 2769 4750 3195 4129 
Q 3622 3509 3622 2328 
Q 3622 1225 3098 567 
Q 2575 -91 1691 -91 
Q 1453 -91 1209 -44 
Q 966 3 703 97 
z
M 1959 2075 
Q 2384 2075 2632 2365 
Q 2881 2656 2881 3163 
Q 2881 3666 2632 3958 
Q 2384 4250 1959 4250 
Q 1534 4250 1286 3958 
Q 1038 3666 1038 3163 
Q 1038 2656 1286 2365 
Q 1534 2075 1959 2075 
z
" transform="scale(0.015625)"/>
       </defs>
       <use xlink:href="#DejaVuSans-39"/>
       <use xlink:href="#DejaVuSans-30" x="63.623047"/>
      </g>
     </g>
    </g>
    <g id="text_10">
     <!-- 2θ° -->
     <g transform="translate(225.67125 339.315875) scale(0.12 -0.12)">
      <defs>
       <path id="DejaVuSans-3b8" d="M 2953 2219 
L 963 2219 
Q 1009 1284 1225 888 
Q 1494 400 1959 400 
Q 2428 400 2688 891 
Q 2916 1322 2953 2219 
z
M 2944 2750 
Q 2856 3638 2688 3950 
Q 2419 4444 1959 4444 
Q 1481 4444 1228 3956 
Q 1028 3563 969 2750 
L 2944 2750 
z
M 1959 4913 
Q 2709 4913 3138 4250 
Q 3566 3591 3566 2422 
Q 3566 1256 3138 594 
Q 2709 -72 1959 -72 
Q 1206 -72 781 594 
Q 353 1256 353 2422 
Q 353 3591 781 4250 
Q 1206 4913 1959 4913 
z
" transform="scale(0.015625)"/>
       <path id="DejaVuSans-b0" d="M 1600 4347 
Q 1350 4347 1178 4173 
Q 1006 4000 1006 3750 
Q 1006 3503 1178 3333 
Q 1350 3163 1600 3163 
Q 1850 3163 2022 3333 
Q 2194 3503 2194 3750 
Q 2194 3997 2020 4172 
Q 1847 4347 1600 4347 
z
M 1600 4750 
Q 1800 4750 1984 4673 
Q 2169 4597 2303 4453 
Q 2447 4313 2519 4134 
Q 2591 3956 2591 3750 
Q 2591 3338 2302 3052 
Q 2013 2766 1594 2766 
Q 1172 2766 890 3047 
Q 609 3328 609 3750 
Q 609 4169 896 4459 
Q 1184 4750 1600 4750 
z
" transform="scale(0.015625)"/>
      </defs>
      <use xlink:href="#DejaVuSans-32"/>
      <use xlink:href="#DejaVuSans-3b8" x="63.623047"/>
      <use xlink:href="#DejaVuSans-b0" x="124.804688"/>
     </g>
    </g>
   </g>
   <g id="matplotlib.axis_2">
    <g id="ytick_1">
     <g id="line2d_10">
      <defs>
       <path id="mc9a4b3615c" d="M 0 0 
L -3.5 0 
" style="stroke: #000000; stroke-width: 0.8"/>
      </defs>
      <g>
       <use xlink:href="#mc9a4b3615c" x="57.6" y="295.488442" style="stroke: #000000; stroke-width: 0.8"/>
      </g>
     </g>
     <g id="text_11">
      <!-- 0 -->
      <g transform="translate(42.965 300.047505) scale(0.12 -0.12)">
       <use xlink:href="#DejaVuSans-30"/>
      </g>
     </g>
    </g>
    <g id="ytick_2">
     <g id="line2d_11">
      <g>
       <use xlink:href="#mc9a4b3615c" x="57.6" y="261.554699" style="stroke: #000000; stroke-width: 0.8"/>
      </g>
     </g>
     <g id="text_12">
      <!-- 10000 -->
      <g transform="translate(12.425 266.113761) scale(0.12 -0.12)">
       <use xlink:href="#DejaVuSans-31"/>
       <use xlink:href="#DejaVuSans-30" x="63.623047"/>
       <use xlink:href="#DejaVuSans-30" x="127.246094"/>
       <use xlink:href="#DejaVuSans-30" x="190.869141"/>
       <use xlink:href="#DejaVuSans-30" x="254.492188"/>
      </g>
     </g>
    </g>
    <g id="ytick_3">
     <g id="line2d_12">
      <g>
       <use xlink:href="#mc9a4b3615c" x="57.6" y="227.620956" style="stroke: #000000; stroke-width: 0.8"/>
      </g>
     </g>
     <g id="text_13">
      <!-- 20000 -->
      <g transform="translate(12.425 232.180018) scale(0.12 -0.12)">
       <use xlink:href="#DejaVuSans-32"/>
       <use xlink:href="#DejaVuSans-30" x="63.623047"/>
       <use xlink:href="#DejaVuSans-30" x="127.246094"/>
       <use xlink:href="#DejaVuSans-30" x="190.869141"/>
       <use xlink:href="#DejaVuSans-30" x="254.492188"/>
      </g>
     </g>
    </g>
    <g id="ytick_4">
     <g id="line2d_13">
      <g>
       <use xlink:href="#mc9a4b3615c" x="57.6" y="193.687213" style="stroke: #000000; stroke-width: 0.8"/>
      </g>
     </g>
     <g id="text_14">
      <!-- 30000 -->
      <g transform="translate(12.425 198.246275) scale(0.12 -0.12)">
       <use xlink:href="#DejaVuSans-33"/>
       <use xlink:href="#DejaVuSans-30" x="63.623047"/>
       <use xlink:href="#DejaVuSans-30" x="127.246094"/>
       <use xlink:href="#DejaVuSans-30" x="190.869141"/>
       <use xlink:href="#DejaVuSans-30" x="254.492188"/>
      </g>
     </g>
    </g>
    <g id="ytick_5">
     <g id="line2d_14">
      <g>
       <use xlink:href="#mc9a4b3615c" x="57.6" y="159.753469" style="stroke: #000000; stroke-width: 0.8"/>
      </g>
     </g>
     <g id="text_15">
      <!-- 40000 -->
      <g transform="translate(12.425 164.312532) scale(0.12 -0.12)">
       <use xlink:href="#DejaVuSans-34"/>
       <use xlink:href="#DejaVuSans-30" x="63.623047"/>
       <use xlink:href="#DejaVuSans-30" x="127.246094"/>
       <use xlink:href="#DejaVuSans-30" x="190.869141"/>
       <use xlink:href="#DejaVuSans-30" x="254.492188"/>
      </g>
     </g>
    </g>
    <g id="ytick_6">
     <g id="line2d_15">
      <g>
       <use xlink:href="#mc9a4b3615c" x="57.6" y="125.819726" style="stroke: #000000; stroke-width: 0.8"/>
      </g>
     </g>
     <g id="text_16">
      <!-- 50000 -->
      <g transform="translate(12.425 130.378789) scale(0.12 -0.12)">
       <use xlink:href="#DejaVuSans-35"/>
       <use xlink:href="#DejaVuSans-30" x="63.623047"/>
       <use xlink:href="#DejaVuSans-30" x="127.246094"/>
       <use xlink:href="#DejaVuSans-30" x="190.869141"/>
       <use xlink:href="#DejaVuSans-30" x="254.492188"/>
      </g>
     </g>
    </g>
    <g id="ytick_7">
     <g id="line2d_16">
      <g>
       <use xlink:href="#mc9a4b3615c" x="57.6" y="91.885983" style="stroke: #000000; stroke-width: 0.8"/>
      </g>
     </g>
     <g id="text_17">
      <!-- 60000 -->
      <g transform="translate(12.425 96.445045) scale(0.12 -0.12)">
       <use xlink:href="#DejaVuSans-36"/>
       <use xlink:href="#DejaVuSans-30" x="63.623047"/>
       <use xlink:href="#DejaVuSans-30" x="127.246094"/>
       <use xlink:href="#DejaVuSans-30" x="190.869141"/>
       <use xlink:href="#DejaVuSans-30" x="254.492188"/>
      </g>
     </g>
    </g>
    <g id="ytick_8">
     <g id="line2d_17">
      <g>
       <use xlink:href="#mc9a4b3615c" x="57.6" y="57.95224" style="stroke: #000000; stroke-width: 0.8"/>
      </g>
     </g>
     <g id="text_18">
      <!-- 70000 -->
      <g transform="translate(12.425 62.511302) scale(0.12 -0.12)">
       <use xlink:href="#DejaVuSans-37"/>
       <use xlink:href="#DejaVuSans-30" x="63.623047"/>
       <use xlink:href="#DejaVuSans-30" x="127.246094"/>
       <use xlink:href="#DejaVuSans-30" x="190.869141"/>
       <use xlink:href="#DejaVuSans-30" x="254.492188"/>
      </g>
     </g>
    </g>
    <g id="text_19">
     <!-- I (a.u.) -->
     <g transform="translate(5.929375 194.179875) rotate(-90) scale(0.12 -0.12)">
      <defs>
       <path id="DejaVuSans-49" d="M 628 4666 
L 1259 4666 
L 1259 0 
L 628 0 
L 628 4666 
z
" transform="scale(0.015625)"/>
       <path id="DejaVuSans-20" transform="scale(0.015625)"/>
       <path id="DejaVuSans-28" d="M 1984 4856 
Q 1566 4138 1362 3434 
Q 1159 2731 1159 2009 
Q 1159 1288 1364 580 
Q 1569 -128 1984 -844 
L 1484 -844 
Q 1016 -109 783 600 
Q 550 1309 550 2009 
Q 550 2706 781 3412 
Q 1013 4119 1484 4856 
L 1984 4856 
z
" transform="scale(0.015625)"/>
       <path id="DejaVuSans-61" d="M 2194 1759 
Q 1497 1759 1228 1600 
Q 959 1441 959 1056 
Q 959 750 1161 570 
Q 1363 391 1709 391 
Q 2188 391 2477 730 
Q 2766 1069 2766 1631 
L 2766 1759 
L 2194 1759 
z
M 3341 1997 
L 3341 0 
L 2766 0 
L 2766 531 
Q 2569 213 2275 61 
Q 1981 -91 1556 -91 
Q 1019 -91 701 211 
Q 384 513 384 1019 
Q 384 1609 779 1909 
Q 1175 2209 1959 2209 
L 2766 2209 
L 2766 2266 
Q 2766 2663 2505 2880 
Q 2244 3097 1772 3097 
Q 1472 3097 1187 3025 
Q 903 2953 641 2809 
L 641 3341 
Q 956 3463 1253 3523 
Q 1550 3584 1831 3584 
Q 2591 3584 2966 3190 
Q 3341 2797 3341 1997 
z
" transform="scale(0.015625)"/>
       <path id="DejaVuSans-2e" d="M 684 794 
L 1344 794 
L 1344 0 
L 684 0 
L 684 794 
z
" transform="scale(0.015625)"/>
       <path id="DejaVuSans-75" d="M 544 1381 
L 544 3500 
L 1119 3500 
L 1119 1403 
Q 1119 906 1312 657 
Q 1506 409 1894 409 
Q 2359 409 2629 706 
Q 2900 1003 2900 1516 
L 2900 3500 
L 3475 3500 
L 3475 0 
L 2900 0 
L 2900 538 
Q 2691 219 2414 64 
Q 2138 -91 1772 -91 
Q 1169 -91 856 284 
Q 544 659 544 1381 
z
M 1991 3584 
L 1991 3584 
z
" transform="scale(0.015625)"/>
       <path id="DejaVuSans-29" d="M 513 4856 
L 1013 4856 
Q 1481 4119 1714 3412 
Q 1947 2706 1947 2009 
Q 1947 1309 1714 600 
Q 1481 -109 1013 -844 
L 513 -844 
Q 928 -128 1133 580 
Q 1338 1288 1338 2009 
Q 1338 2731 1133 3434 
Q 928 4138 513 4856 
z
" transform="scale(0.015625)"/>
      </defs>
      <use xlink:href="#DejaVuSans-49"/>
      <use xlink:href="#DejaVuSans-20" x="29.492188"/>
      <use xlink:href="#DejaVuSans-28" x="61.279297"/>
      <use xlink:href="#DejaVuSans-61" x="100.292969"/>
      <use xlink:href="#DejaVuSans-2e" x="161.572266"/>
      <use xlink:href="#DejaVuSans-75" x="193.359375"/>
      <use xlink:href="#DejaVuSans-2e" x="256.738281"/>
      <use xlink:href="#DejaVuSans-29" x="288.525391"/>
     </g>
    </g>
   </g>
   <g id="line2d_18">
    <path d="M 73.832727 294.653672 
L 73.939311 294.599378 
L 74.045895 294.701179 
L 74.152479 294.619738 
L 74.259063 294.779227 
L 74.365647 294.640099 
L 74.472231 294.718146 
L 74.685398 294.626525 
L 74.898566 294.684212 
L 75.53807 294.697786 
L 75.644653 294.78262 
L 75.857821 294.657066 
L 76.497325 294.711359 
L 76.92366 294.643492 
L 77.243412 294.714753 
L 77.45658 294.697786 
L 78.096083 294.738506 
L 78.309251 294.728326 
L 78.735586 294.758867 
L 78.84217 294.72154 
L 78.948754 294.806374 
L 79.055338 294.748687 
L 79.268506 294.769047 
L 79.481674 294.657066 
L 79.801425 294.799587 
L 80.121177 294.738506 
L 80.334345 294.786014 
L 80.440929 294.73172 
L 80.547513 294.857275 
L 80.654097 294.745293 
L 80.76068 294.840308 
L 80.867264 294.7419 
L 80.973848 294.864061 
L 81.080432 294.755473 
L 81.187016 294.867455 
L 81.506768 294.707966 
L 81.719936 294.789407 
L 81.933103 294.758867 
L 82.039687 294.680819 
L 82.252855 294.823341 
L 82.359439 294.728326 
L 82.572607 294.850488 
L 82.892358 294.799587 
L 82.998942 294.860668 
L 83.105526 294.704573 
L 83.425278 294.860668 
L 83.531862 294.697786 
L 83.74503 294.867455 
L 84.277949 294.7928 
L 84.704285 294.904782 
L 85.13062 294.806374 
L 85.66354 294.897995 
L 85.876707 294.816554 
L 85.983291 294.962469 
L 86.089875 294.799587 
L 86.303043 294.911569 
L 86.409627 294.670639 
L 86.622795 294.904782 
L 86.729379 294.813161 
L 86.835963 294.881028 
L 86.942546 294.789407 
L 87.04913 294.881028 
L 87.155714 294.823341 
L 87.262298 294.965863 
L 87.58205 294.779227 
L 88.008385 294.982829 
L 88.221553 294.823341 
L 88.541305 294.928535 
L 88.96764 294.925142 
L 89.074224 294.976043 
L 89.287392 294.877635 
L 89.50056 294.925142 
L 89.713728 294.867455 
L 90.246647 294.931929 
L 90.672983 294.874241 
L 90.992734 294.948896 
L 91.205902 294.897995 
L 91.525654 294.965863 
L 91.845406 294.935322 
L 91.951989 294.867455 
L 92.058573 294.972649 
L 92.271741 294.935322 
L 92.591493 294.935322 
L 92.804661 295.00319 
L 93.017828 294.874241 
L 93.230996 294.945502 
L 94.190251 295.00319 
L 94.403419 294.928535 
L 94.510003 295.016763 
L 94.829755 294.938716 
L 95.575842 294.931929 
L 95.78901 294.999796 
L 96.321929 294.894602 
L 96.641681 294.999796 
L 97.068016 294.948896 
L 97.281184 294.976043 
L 97.387768 294.925142 
L 97.600936 295.040517 
L 97.814104 294.982829 
L 98.027272 294.948896 
L 99.732614 295.009976 
L 99.945782 294.982829 
L 100.265533 295.01337 
L 100.585285 295.040517 
L 100.691869 294.908175 
L 100.905037 295.060877 
L 101.224788 295.009976 
L 101.437956 294.999796 
L 101.54454 295.101598 
L 101.864292 294.986223 
L 102.184043 295.04391 
L 102.930131 294.989616 
L 103.676218 295.06427 
L 104.102554 294.935322 
L 105.061809 295.05409 
L 105.168393 294.952289 
L 105.38156 295.071057 
L 105.488144 294.999796 
L 105.594728 295.152498 
L 105.701312 295.006583 
L 105.91448 295.098204 
L 106.553983 294.982829 
L 106.873735 295.098204 
L 107.193487 294.948896 
L 107.30007 295.115171 
L 107.83299 294.965863 
L 108.259325 294.986223 
L 108.365909 295.111778 
L 108.792245 295.006583 
L 109.005413 295.02355 
L 109.538332 295.050697 
L 109.644916 294.965863 
L 109.858084 295.118564 
L 110.071252 295.057484 
L 110.817339 295.00319 
L 111.243675 295.01337 
L 111.563426 294.999796 
L 111.67001 295.101598 
L 111.883178 294.976043 
L 112.309514 295.06427 
L 112.629265 295.04391 
L 113.695104 295.037123 
L 113.801688 295.084631 
L 113.908272 294.989616 
L 114.228024 295.084631 
L 114.547775 295.057484 
L 114.760943 295.050697 
L 115.293863 295.047304 
L 116.679453 295.06427 
L 116.786037 294.969256 
L 116.999205 295.016763 
L 118.704547 295.081237 
L 118.811131 295.01337 
L 119.130883 295.101598 
L 119.450635 294.884422 
L 119.663802 294.887815 
L 119.983554 294.43989 
L 120.090138 294.063225 
L 120.196722 293.191128 
L 120.303306 291.104203 
L 120.623057 294.022505 
L 120.836225 294.979436 
L 121.369145 295.074451 
L 121.582312 295.047304 
L 121.902064 295.077844 
L 122.008648 294.979436 
L 122.3284 295.121958 
L 122.648151 295.020157 
L 122.861319 295.088024 
L 122.967903 294.99301 
L 123.181071 295.101598 
L 123.820574 295.067664 
L 124.460078 295.057484 
L 124.673245 295.047304 
L 124.779829 295.030337 
L 124.886413 295.200005 
L 124.992997 295.05409 
L 125.099581 295.135531 
L 125.312749 295.091417 
L 127.124675 295.108384 
L 127.231259 295.210186 
L 127.337843 295.057484 
L 127.657594 295.155892 
L 127.870762 295.074451 
L 128.08393 295.111778 
L 128.510266 295.02355 
L 128.936601 294.986223 
L 129.256353 295.115171 
L 130.53536 295.101598 
L 130.641944 295.206792 
L 130.855111 295.067664 
L 131.174863 295.186432 
L 131.494615 295.138925 
L 132.880205 295.220366 
L 132.986789 295.288233 
L 133.306541 295.159285 
L 133.519709 295.138925 
L 133.732877 295.216972 
L 134.159212 295.135531 
L 134.265796 295.216972 
L 134.478964 295.159285 
L 135.544803 295.125351 
L 135.864554 295.189825 
L 136.184306 295.138925 
L 136.29089 295.227152 
L 136.397474 295.084631 
L 136.504058 295.220366 
L 136.717226 295.193219 
L 136.930393 295.230546 
L 137.250145 295.203399 
L 137.783065 295.206792 
L 138.315984 295.247513 
L 138.422568 295.278053 
L 138.635736 295.203399 
L 138.74232 295.152498 
L 138.955487 295.210186 
L 143.858347 295.200005 
L 144.391266 294.545084 
L 144.604434 293.350616 
L 144.711018 292.542993 
L 144.817602 292.726236 
L 145.030769 293.700134 
L 145.243937 294.901388 
L 145.457105 295.210186 
L 145.883441 295.206792 
L 147.375615 295.254299 
L 147.482199 295.186432 
L 147.695367 295.254299 
L 147.801951 295.169465 
L 148.015118 295.240726 
L 148.33487 295.220366 
L 152.917978 295.142318 
L 153.237729 294.881028 
L 153.344313 295.057484 
L 153.450897 294.976043 
L 154.090401 295.223759 
L 154.62332 295.183039 
L 154.836488 295.3052 
L 155.156239 295.162678 
L 155.689159 295.28484 
L 155.902327 295.186432 
L 157.501085 295.067664 
L 158.034005 294.266827 
L 158.247172 294.674032 
L 158.886676 295.06427 
L 159.632763 294.724933 
L 159.739347 294.881028 
L 160.059099 294.748687 
L 160.165683 294.843701 
L 160.37885 294.626525 
L 160.485434 294.789407 
L 160.698602 294.548478 
L 160.805186 294.521331 
L 161.018354 294.290581 
L 161.124938 294.185386 
L 161.444689 292.335997 
L 161.657857 287.792269 
L 161.871025 275.769544 
L 161.977609 265.090595 
L 162.084193 241.421809 
L 162.403944 53.568 
L 162.617112 176.157041 
L 162.723696 176.37761 
L 162.936864 280.11985 
L 163.150032 291.070269 
L 163.363199 293.028246 
L 163.789535 294.232894 
L 164.429038 294.707966 
L 164.535622 294.660459 
L 164.74879 294.901388 
L 164.961958 294.823341 
L 165.175126 295.03373 
L 165.388293 295.01337 
L 167.413387 295.240726 
L 167.626555 295.138925 
L 167.946307 295.254299 
L 168.372643 295.176252 
L 168.58581 295.261086 
L 168.905562 295.196612 
L 169.331898 295.203399 
L 171.783327 295.166072 
L 172.209663 294.925142 
L 172.422831 295.091417 
L 173.062334 295.26448 
L 173.382086 295.257693 
L 173.595253 295.254299 
L 173.808421 295.267873 
L 175.513764 295.322167 
L 175.726931 295.26448 
L 175.940099 295.3052 
L 176.046683 295.247513 
L 176.259851 295.281446 
L 176.473019 295.356101 
L 176.686186 295.288233 
L 176.899354 295.28484 
L 177.752025 295.31538 
L 177.965193 295.31538 
L 178.604696 295.376461 
L 178.71128 295.237333 
L 178.924448 295.298413 
L 179.2442 295.339134 
L 179.883703 295.135531 
L 180.096871 294.72154 
L 180.310039 295.108384 
L 180.523207 295.047304 
L 180.736374 295.29502 
L 181.695629 295.339134 
L 182.015381 295.261086 
L 182.335133 295.322167 
L 182.654885 295.29502 
L 182.761468 295.373067 
L 182.974636 295.328954 
L 183.294388 295.281446 
L 183.720723 294.789407 
L 184.040475 295.081237 
L 184.147059 295.057484 
L 184.466811 295.29502 
L 184.679979 295.339134 
L 187.237992 295.373067 
L 187.45116 295.328954 
L 194.059361 295.220366 
L 194.272529 294.986223 
L 195.018616 295.33574 
L 195.1252 295.281446 
L 195.338368 295.3052 
L 195.764704 295.237333 
L 196.191039 295.267873 
L 196.510791 295.322167 
L 197.363462 295.349314 
L 198.322717 295.318773 
L 198.535885 295.376461 
L 198.855637 295.298413 
L 198.962221 295.386641 
L 199.175388 295.33574 
L 199.708308 295.33574 
L 200.028059 295.349314 
L 200.347811 295.362887 
L 201.200482 295.342527 
L 201.626818 295.33574 
L 202.586073 295.33574 
L 202.692657 295.407001 
L 202.905825 295.33574 
L 209.833778 295.342527 
L 210.046946 295.088024 
L 210.15353 295.104991 
L 210.366697 295.267873 
L 210.579865 295.230546 
L 210.899617 295.339134 
L 211.965456 295.34592 
L 215.695892 295.311987 
L 215.802476 295.339134 
L 216.015644 295.278053 
L 217.081483 295.037123 
L 217.507818 294.032685 
L 217.720986 291.413 
L 217.934154 282.61398 
L 218.147322 273.2313 
L 218.360489 286.665669 
L 218.467073 286.044681 
L 218.573657 283.506437 
L 218.999993 294.314335 
L 219.213161 294.938716 
L 219.319745 295.125351 
L 219.532912 295.115171 
L 220.279 295.28484 
L 220.598751 295.237333 
L 221.131671 295.318773 
L 221.558006 295.267873 
L 221.66459 295.356101 
L 221.771174 295.281446 
L 221.984342 295.328954 
L 251.827833 295.29502 
L 252.254168 294.606165 
L 252.57392 295.162678 
L 252.787088 294.965863 
L 253.106839 295.29502 
L 253.852927 295.359494 
L 257.370195 295.376461 
L 257.903115 295.386641 
L 262.16647 295.159285 
L 262.273054 295.067664 
L 262.592806 293.700134 
L 262.805974 292.325817 
L 262.912558 292.804283 
L 263.125726 294.120912 
L 263.232309 294.280401 
L 263.445477 293.873196 
L 263.765229 294.986223 
L 263.978397 295.172858 
L 264.084981 295.084631 
L 264.298148 295.29502 
L 266.323242 295.400214 
L 266.962746 295.34592 
L 267.282497 295.396821 
L 268.028585 295.298413 
L 268.348336 295.352707 
L 276.022377 295.267873 
L 276.235545 295.244119 
L 276.342129 295.352707 
L 276.448712 295.267873 
L 276.66188 295.322167 
L 276.875048 295.339134 
L 277.621135 295.373067 
L 279.433062 295.386641 
L 281.351572 295.356101 
L 281.671323 295.356101 
L 281.884491 295.349314 
L 284.122753 295.362887 
L 284.442505 295.407001 
L 284.655672 295.386641 
L 285.40176 295.369674 
L 285.614927 295.376461 
L 285.934679 295.410395 
L 286.254431 295.400214 
L 286.893934 295.376461 
L 288.279525 295.373067 
L 288.599277 295.396821 
L 289.878283 295.356101 
L 290.091451 295.393428 
L 290.304619 295.359494 
L 291.263874 295.362887 
L 291.690209 295.339134 
L 292.329713 295.376461 
L 293.821887 295.379854 
L 293.928471 295.31538 
L 294.141639 295.352707 
L 294.567975 295.410395 
L 294.781142 295.373067 
L 295.420646 295.373067 
L 295.740398 295.366281 
L 295.953565 295.356101 
L 296.273317 295.32556 
L 296.593069 295.376461 
L 297.44574 295.366281 
L 298.191827 295.413788 
L 298.404995 295.342527 
L 298.724747 295.318773 
L 299.577418 295.288233 
L 301.176176 295.159285 
L 301.28276 295.074451 
L 301.495928 295.149105 
L 301.81568 294.745293 
L 302.028847 293.425271 
L 302.242015 287.978905 
L 302.348599 283.743974 
L 302.455183 284.778953 
L 302.668351 292.050954 
L 302.774935 293.252209 
L 302.881519 292.865364 
L 303.094686 289.774 
L 303.20127 290.09637 
L 303.521022 294.575625 
L 303.73419 295.020157 
L 304.267109 295.267873 
L 306.718539 295.33574 
L 307.251458 295.3052 
L 307.997545 295.359494 
L 310.981895 295.349314 
L 312.260901 295.366281 
L 314.072828 295.383248 
L 314.605747 295.373067 
L 315.032083 295.410395 
L 315.991338 295.33574 
L 316.097922 295.403608 
L 316.204505 295.328954 
L 316.417673 295.373067 
L 329.953828 295.26448 
L 330.060412 295.135531 
L 330.27358 295.261086 
L 330.806499 295.281446 
L 331.765754 295.359494 
L 331.978922 295.356101 
L 332.298674 295.356101 
L 332.511841 295.352707 
L 333.044761 295.373067 
L 333.364513 295.349314 
L 335.283023 295.373067 
L 335.602774 295.366281 
L 335.922526 295.32556 
L 336.455446 295.379854 
L 336.775197 295.32556 
L 338.373956 295.030337 
L 338.48054 294.965863 
L 338.587123 294.75208 
L 338.800291 293.62548 
L 339.120043 290.052257 
L 339.333211 292.461552 
L 339.546379 293.883376 
L 339.652962 294.042865 
L 340.079298 292.956985 
L 340.505634 294.830128 
L 340.718801 295.125351 
L 341.145137 295.27466 
L 342.104392 295.34592 
L 342.530728 295.34592 
L 342.850479 295.332347 
L 343.170231 295.349314 
L 344.555822 295.34592 
L 344.875573 295.362887 
L 345.301909 295.318773 
L 345.515077 295.376461 
L 346.261164 295.34592 
L 347.007251 295.352707 
L 348.499426 295.407001 
L 348.712594 295.383248 
L 351.696943 295.376461 
L 351.91011 295.359494 
L 352.336446 295.437542 
L 352.549614 295.349314 
L 352.869365 295.366281 
L 354.681292 295.393428 
L 355.214211 295.352707 
L 373.440057 295.28484 
L 373.866393 294.976043 
L 374.186145 293.564399 
L 374.399312 292.722842 
L 374.61248 293.63566 
L 374.825648 294.595985 
L 374.932232 294.802981 
L 375.251984 294.409349 
L 375.465151 294.120912 
L 375.784903 294.799587 
L 375.998071 295.183039 
L 376.744158 295.328954 
L 377.277078 295.369674 
L 378.4495 295.400214 
L 378.875836 295.393428 
L 398.487273 295.373067 
L 398.487273 295.373067 
" clip-path="url(#pbce0124e18)" style="fill: none; stroke: #1f77b4; stroke-width: 1.5; stroke-linecap: square"/>
   </g>
   <g id="line2d_19">
    <path d="M 73.832727 295.488 
L 143.96493 295.387738 
L 144.178098 295.173425 
L 144.391266 294.573628 
L 144.711018 292.689608 
L 145.030769 294.687877 
L 145.350521 295.338444 
L 145.670273 295.441783 
L 147.588783 295.47044 
L 157.287917 295.36943 
L 159.206428 295.181598 
L 160.059099 294.913294 
L 160.592018 294.516852 
L 160.91177 294.044502 
L 161.231522 293.096839 
L 161.444689 291.533665 
L 161.657857 286.328851 
L 161.871025 268.552171 
L 162.084193 222.041722 
L 162.403944 71.573984 
L 162.617112 215.236924 
L 162.936864 278.212856 
L 163.150032 289.281656 
L 163.363199 292.362501 
L 163.682951 293.757362 
L 164.109287 294.495063 
L 164.642206 294.903418 
L 165.388293 295.155599 
L 166.773884 295.331461 
L 169.864817 295.433896 
L 180.842958 295.479045 
L 215.802476 295.40454 
L 216.868315 295.235774 
L 217.188067 295.034698 
L 217.401234 294.530597 
L 217.614402 292.758063 
L 217.82757 288.23803 
L 218.253906 277.675422 
L 218.360489 279.086109 
L 218.893409 293.057749 
L 219.106577 294.621867 
L 219.319745 295.060122 
L 219.74608 295.275919 
L 220.705335 295.406191 
L 223.476516 295.469176 
L 242.44845 295.486297 
L 251.827833 295.379743 
L 252.680504 295.019531 
L 253.426591 295.44237 
L 254.705598 295.478508 
L 261.740135 295.410481 
L 262.059887 295.293898 
L 262.379638 294.894481 
L 263.125726 293.342712 
L 263.338893 293.671592 
L 263.978397 295.161206 
L 264.298148 295.376193 
L 265.044236 295.453528 
L 269.627343 295.484338 
L 301.602512 295.409988 
L 302.135431 295.236405 
L 302.988102 294.823472 
L 303.414438 295.075724 
L 303.947357 295.360899 
L 304.693445 295.44777 
L 308.743633 295.483111 
L 330.060412 295.408157 
L 331.446002 295.399242 
L 333.684264 295.474209 
L 339.013459 295.40664 
L 340.079298 295.257816 
L 341.78464 295.477152 
L 369.070118 295.4666 
L 373.120306 295.336518 
L 374.079561 295.115424 
L 374.61248 294.791297 
L 375.358567 294.208784 
L 375.678319 294.406784 
L 376.53099 295.075475 
L 377.277078 295.293 
L 378.662668 295.414523 
L 382.81944 295.472977 
L 398.487273 295.486659 
L 398.487273 295.486659 
" clip-path="url(#pbce0124e18)" style="fill: none; stroke: #ff7f0e; stroke-width: 1.5; stroke-linecap: square"/>
   </g>
   <g id="line2d_20">
    <path d="M 73.832727 295.479555 
L 118.704547 295.363986 
L 119.344051 295.199349 
L 119.557218 294.97348 
L 119.770386 294.462076 
L 120.090138 293.415556 
L 120.196722 293.538791 
L 120.729641 295.067972 
L 121.049393 295.277671 
L 121.79548 295.380072 
L 124.673245 295.419821 
L 128.403682 295.326157 
L 128.830017 295.337589 
L 129.576105 295.42315 
L 152.385058 295.387688 
L 153.131145 295.351168 
L 154.410152 295.4532 
L 156.968166 295.357668 
L 157.714253 295.186473 
L 158.673508 295.42066 
L 160.272266 295.381201 
L 161.124938 295.216664 
L 161.444689 294.998506 
L 161.657857 294.647775 
L 161.871025 293.710701 
L 161.977609 292.537937 
L 162.084193 289.715143 
L 162.29736 273.914757 
L 162.617112 292.653187 
L 162.83028 294.338236 
L 163.150032 295.008088 
L 163.576367 295.261149 
L 164.429038 295.394408 
L 166.987052 295.455412 
L 171.250408 295.373715 
L 171.996495 295.31694 
L 173.168918 295.457174 
L 178.178361 295.465252 
L 179.457368 295.374856 
L 180.096871 295.215742 
L 180.523207 295.406645 
L 181.589046 295.458856 
L 183.08122 295.364896 
L 183.720723 295.203598 
L 184.147059 295.402356 
L 185.106314 295.464192 
L 192.567187 295.469641 
L 193.846194 295.352594 
L 194.165945 295.276051 
L 194.912032 295.418283 
L 230.937389 295.432883 
L 231.79006 295.389549 
L 232.642731 295.462505 
L 240.956275 295.473544 
L 272.82486 295.41164 
L 273.357779 295.446799 
L 275.489457 295.437167 
L 276.66188 295.450741 
L 279.433062 295.475177 
L 301.176176 295.326195 
L 301.495928 295.13855 
L 301.709096 294.724958 
L 301.922263 293.780532 
L 302.668351 288.904842 
L 302.881519 290.078514 
L 303.414438 294.275943 
L 303.73419 295.1215 
L 304.053941 295.320828 
L 304.906613 295.41193 
L 308.104129 295.440681 
L 321.213949 295.46551 
L 337.308117 295.393263 
L 338.054204 295.224566 
L 338.267372 295.025057 
L 338.48054 294.46408 
L 338.906875 292.283498 
L 339.333211 293.504306 
L 339.652962 293.431886 
L 339.759546 293.398877 
L 339.972714 293.07614 
L 340.505634 294.978926 
L 340.825385 295.262238 
L 341.358305 295.388551 
L 343.170231 295.444246 
L 398.487273 295.483618 
L 398.487273 295.483618 
" clip-path="url(#pbce0124e18)" style="fill: none; stroke: #2ca02c; stroke-width: 1.5; stroke-linecap: square"/>
   </g>
   <g id="patch_3">
    <path d="M 57.6 307.584 
L 57.6 41.472 
" style="fill: none; stroke: #000000; stroke-width: 0.8; stroke-linejoin: miter; stroke-linecap: square"/>
   </g>
   <g id="patch_4">
    <path d="M 414.72 307.584 
L 414.72 41.472 
" style="fill: none; stroke: #000000; stroke-width: 0.8; stroke-linejoin: miter; stroke-linecap: square"/>
   </g>
   <g id="patch_5">
    <path d="M 57.6 307.584 
L 414.72 307.584 
" style="fill: none; stroke: #000000; stroke-width: 0.8; stroke-linejoin: miter; stroke-linecap: square"/>
   </g>
   <g id="patch_6">
    <path d="M 57.6 41.472 
L 414.72 41.472 
" style="fill: none; stroke: #000000; stroke-width: 0.8; stroke-linejoin: miter; stroke-linecap: square"/>
   </g>
   <g id="legend_1">
    <g id="patch_7">
     <path d="M 298.993125 103.91325 
L 406.32 103.91325 
Q 408.72 103.91325 408.72 101.51325 
L 408.72 49.872 
Q 408.72 47.472 406.32 47.472 
L 298.993125 47.472 
Q 296.593125 47.472 296.593125 49.872 
L 296.593125 101.51325 
Q 296.593125 103.91325 298.993125 103.91325 
z
" style="fill: #ffffff; opacity: 0.8; stroke: #cccccc; stroke-linejoin: miter"/>
    </g>
    <g id="line2d_21">
     <path d="M 301.393125 57.190125 
L 313.393125 57.190125 
L 325.393125 57.190125 
" style="fill: none; stroke: #1f77b4; stroke-width: 1.5; stroke-linecap: square"/>
    </g>
    <g id="text_20">
     <!-- experiment -->
     <g transform="translate(334.993125 61.390125) scale(0.12 -0.12)">
      <defs>
       <path id="DejaVuSans-65" d="M 3597 1894 
L 3597 1613 
L 953 1613 
Q 991 1019 1311 708 
Q 1631 397 2203 397 
Q 2534 397 2845 478 
Q 3156 559 3463 722 
L 3463 178 
Q 3153 47 2828 -22 
Q 2503 -91 2169 -91 
Q 1331 -91 842 396 
Q 353 884 353 1716 
Q 353 2575 817 3079 
Q 1281 3584 2069 3584 
Q 2775 3584 3186 3129 
Q 3597 2675 3597 1894 
z
M 3022 2063 
Q 3016 2534 2758 2815 
Q 2500 3097 2075 3097 
Q 1594 3097 1305 2825 
Q 1016 2553 972 2059 
L 3022 2063 
z
" transform="scale(0.015625)"/>
       <path id="DejaVuSans-78" d="M 3513 3500 
L 2247 1797 
L 3578 0 
L 2900 0 
L 1881 1375 
L 863 0 
L 184 0 
L 1544 1831 
L 300 3500 
L 978 3500 
L 1906 2253 
L 2834 3500 
L 3513 3500 
z
" transform="scale(0.015625)"/>
       <path id="DejaVuSans-70" d="M 1159 525 
L 1159 -1331 
L 581 -1331 
L 581 3500 
L 1159 3500 
L 1159 2969 
Q 1341 3281 1617 3432 
Q 1894 3584 2278 3584 
Q 2916 3584 3314 3078 
Q 3713 2572 3713 1747 
Q 3713 922 3314 415 
Q 2916 -91 2278 -91 
Q 1894 -91 1617 61 
Q 1341 213 1159 525 
z
M 3116 1747 
Q 3116 2381 2855 2742 
Q 2594 3103 2138 3103 
Q 1681 3103 1420 2742 
Q 1159 2381 1159 1747 
Q 1159 1113 1420 752 
Q 1681 391 2138 391 
Q 2594 391 2855 752 
Q 3116 1113 3116 1747 
z
" transform="scale(0.015625)"/>
       <path id="DejaVuSans-72" d="M 2631 2963 
Q 2534 3019 2420 3045 
Q 2306 3072 2169 3072 
Q 1681 3072 1420 2755 
Q 1159 2438 1159 1844 
L 1159 0 
L 581 0 
L 581 3500 
L 1159 3500 
L 1159 2956 
Q 1341 3275 1631 3429 
Q 1922 3584 2338 3584 
Q 2397 3584 2469 3576 
Q 2541 3569 2628 3553 
L 2631 2963 
z
" transform="scale(0.015625)"/>
       <path id="DejaVuSans-69" d="M 603 3500 
L 1178 3500 
L 1178 0 
L 603 0 
L 603 3500 
z
M 603 4863 
L 1178 4863 
L 1178 4134 
L 603 4134 
L 603 4863 
z
" transform="scale(0.015625)"/>
       <path id="DejaVuSans-6d" d="M 3328 2828 
Q 3544 3216 3844 3400 
Q 4144 3584 4550 3584 
Q 5097 3584 5394 3201 
Q 5691 2819 5691 2113 
L 5691 0 
L 5113 0 
L 5113 2094 
Q 5113 2597 4934 2840 
Q 4756 3084 4391 3084 
Q 3944 3084 3684 2787 
Q 3425 2491 3425 1978 
L 3425 0 
L 2847 0 
L 2847 2094 
Q 2847 2600 2669 2842 
Q 2491 3084 2119 3084 
Q 1678 3084 1418 2786 
Q 1159 2488 1159 1978 
L 1159 0 
L 581 0 
L 581 3500 
L 1159 3500 
L 1159 2956 
Q 1356 3278 1631 3431 
Q 1906 3584 2284 3584 
Q 2666 3584 2933 3390 
Q 3200 3197 3328 2828 
z
" transform="scale(0.015625)"/>
       <path id="DejaVuSans-6e" d="M 3513 2113 
L 3513 0 
L 2938 0 
L 2938 2094 
Q 2938 2591 2744 2837 
Q 2550 3084 2163 3084 
Q 1697 3084 1428 2787 
Q 1159 2491 1159 1978 
L 1159 0 
L 581 0 
L 581 3500 
L 1159 3500 
L 1159 2956 
Q 1366 3272 1645 3428 
Q 1925 3584 2291 3584 
Q 2894 3584 3203 3211 
Q 3513 2838 3513 2113 
z
" transform="scale(0.015625)"/>
       <path id="DejaVuSans-74" d="M 1172 4494 
L 1172 3500 
L 2356 3500 
L 2356 3053 
L 1172 3053 
L 1172 1153 
Q 1172 725 1289 603 
Q 1406 481 1766 481 
L 2356 481 
L 2356 0 
L 1766 0 
Q 1100 0 847 248 
Q 594 497 594 1153 
L 594 3053 
L 172 3053 
L 172 3500 
L 594 3500 
L 594 4494 
L 1172 4494 
z
" transform="scale(0.015625)"/>
      </defs>
      <use xlink:href="#DejaVuSans-65"/>
      <use xlink:href="#DejaVuSans-78" x="59.773438"/>
      <use xlink:href="#DejaVuSans-70" x="118.953125"/>
      <use xlink:href="#DejaVuSans-65" x="182.429688"/>
      <use xlink:href="#DejaVuSans-72" x="243.953125"/>
      <use xlink:href="#DejaVuSans-69" x="285.066406"/>
      <use xlink:href="#DejaVuSans-6d" x="312.849609"/>
      <use xlink:href="#DejaVuSans-65" x="410.261719"/>
      <use xlink:href="#DejaVuSans-6e" x="471.785156"/>
      <use xlink:href="#DejaVuSans-74" x="535.164062"/>
     </g>
    </g>
    <g id="line2d_22">
     <path d="M 301.393125 74.803875 
L 313.393125 74.803875 
L 325.393125 74.803875 
" style="fill: none; stroke: #ff7f0e; stroke-width: 1.5; stroke-linecap: square"/>
    </g>
    <g id="text_21">
     <!-- NaCl -->
     <g transform="translate(334.993125 79.003875) scale(0.12 -0.12)">
      <defs>
       <path id="DejaVuSans-4e" d="M 628 4666 
L 1478 4666 
L 3547 763 
L 3547 4666 
L 4159 4666 
L 4159 0 
L 3309 0 
L 1241 3903 
L 1241 0 
L 628 0 
L 628 4666 
z
" transform="scale(0.015625)"/>
       <path id="DejaVuSans-43" d="M 4122 4306 
L 4122 3641 
Q 3803 3938 3442 4084 
Q 3081 4231 2675 4231 
Q 1875 4231 1450 3742 
Q 1025 3253 1025 2328 
Q 1025 1406 1450 917 
Q 1875 428 2675 428 
Q 3081 428 3442 575 
Q 3803 722 4122 1019 
L 4122 359 
Q 3791 134 3420 21 
Q 3050 -91 2638 -91 
Q 1578 -91 968 557 
Q 359 1206 359 2328 
Q 359 3453 968 4101 
Q 1578 4750 2638 4750 
Q 3056 4750 3426 4639 
Q 3797 4528 4122 4306 
z
" transform="scale(0.015625)"/>
       <path id="DejaVuSans-6c" d="M 603 4863 
L 1178 4863 
L 1178 0 
L 603 0 
L 603 4863 
z
" transform="scale(0.015625)"/>
      </defs>
      <use xlink:href="#DejaVuSans-4e"/>
      <use xlink:href="#DejaVuSans-61" x="74.804688"/>
      <use xlink:href="#DejaVuSans-43" x="136.083984"/>
      <use xlink:href="#DejaVuSans-6c" x="205.908203"/>
     </g>
    </g>
    <g id="line2d_23">
     <path d="M 301.393125 92.417625 
L 313.393125 92.417625 
L 325.393125 92.417625 
" style="fill: none; stroke: #2ca02c; stroke-width: 1.5; stroke-linecap: square"/>
    </g>
    <g id="text_22">
     <!-- Li2CO3 -->
     <g transform="translate(334.993125 96.617625) scale(0.12 -0.12)">
      <defs>
       <path id="DejaVuSans-4c" d="M 628 4666 
L 1259 4666 
L 1259 531 
L 3531 531 
L 3531 0 
L 628 0 
L 628 4666 
z
" transform="scale(0.015625)"/>
       <path id="DejaVuSans-4f" d="M 2522 4238 
Q 1834 4238 1429 3725 
Q 1025 3213 1025 2328 
Q 1025 1447 1429 934 
Q 1834 422 2522 422 
Q 3209 422 3611 934 
Q 4013 1447 4013 2328 
Q 4013 3213 3611 3725 
Q 3209 4238 2522 4238 
z
M 2522 4750 
Q 3503 4750 4090 4092 
Q 4678 3434 4678 2328 
Q 4678 1225 4090 567 
Q 3503 -91 2522 -91 
Q 1538 -91 948 565 
Q 359 1222 359 2328 
Q 359 3434 948 4092 
Q 1538 4750 2522 4750 
z
" transform="scale(0.015625)"/>
      </defs>
      <use xlink:href="#DejaVuSans-4c"/>
      <use xlink:href="#DejaVuSans-69" x="55.712891"/>
      <use xlink:href="#DejaVuSans-32" x="83.496094"/>
      <use xlink:href="#DejaVuSans-43" x="147.119141"/>
      <use xlink:href="#DejaVuSans-4f" x="216.943359"/>
      <use xlink:href="#DejaVuSans-33" x="295.654297"/>
     </g>
    </g>
   </g>
  </g>
 </g>
 <defs>
  <clipPath id="pbce0124e18">
   <rect x="57.6" y="41.472" width="357.12" height="266.112"/>
  </clipPath>
 </defs>
</svg>
