<?xml version="1.0" encoding="utf-8" standalone="no"?>
<!DOCTYPE svg PUBLIC "-//W3C//DTD SVG 1.1//EN"
  "http://www.w3.org/Graphics/SVG/1.1/DTD/svg11.dtd">
<svg xmlns:xlink="http://www.w3.org/1999/xlink" width="460.8pt" height="345.6pt" viewBox="0 0 460.8 345.6" xmlns="http://www.w3.org/2000/svg" version="1.1">
 <metadata>
  <rdf:RDF xmlns:dc="http://purl.org/dc/elements/1.1/" xmlns:cc="http://creativecommons.org/ns#" xmlns:rdf="http://www.w3.org/1999/02/22-rdf-syntax-ns#">
   <cc:Work>
    <dc:type rdf:resource="http://purl.org/dc/dcmitype/StillImage"/>
    <dc:date>2026-02-06T10:00:43.786512</dc:date>
    <dc:format>image/svg+xml</dc:format>
    <dc:creator>
     <cc:Agent>
      <dc:title>Matplotlib v3.7.1, https://matplotlib.org/</dc:title>
     </cc:Agent>
    </dc:creator>
   </cc:Work>
  </rdf:RDF>
 </metadata>
 <defs>
  <style type="text/css">*{stroke-linejoin: round; stroke-linecap: butt}</style>
 </defs>
 <g id="figure_1">
  <g id="patch_1">
   <path d="M 0 345.6 
L 460.8 345.6 
L 460.8 0 
L 0 0 
z
" style="fill: #ffffff"/>
  </g>
  <g id="axes_1">
   <g id="patch_2">
    <path d="M 57.6 307.584 
L 414.72 307.584 
L 414.72 41.472 
L 57.6 41.472 
z
" style="fill: #ffffff"/>
   </g>
   <g id="matplotlib.axis_1">
    <g id="xtick_1">
     <g id="line2d_1">
      <defs>
       <path id="mb35a4a1d37" d="M 0 0 
L 0 3.5 
" style="stroke: #000000; stroke-width: 0.8"/>
      </defs>
      <g>
       <use xlink:href="#mb35a4a1d37" x="73.823368" y="307.584" style="stroke: #000000; stroke-width: 0.8"/>
      </g>
     </g>
     <g id="text_1">
      <!-- 30 -->
      <g transform="translate(66.188368 323.702125) scale(0.12 -0.12)">
       <defs>
        <path id="DejaVuSans-33" d="M 2597 2516 
Q 3050 2419 3304 2112 
Q 3559 1806 3559 1356 
Q 3559 666 3084 287 
Q 2609 -91 1734 -91 
Q 1441 -91 1130 -33 
Q 819 25 488 141 
L 488 750 
Q 750 597 1062 519 
Q 1375 441 1716 441 
Q 2309 441 2620 675 
Q 2931 909 2931 1356 
Q 2931 1769 2642 2001 
Q 2353 2234 1838 2234 
L 1294 2234 
L 1294 2753 
L 1863 2753 
Q 2328 2753 2575 2939 
Q 2822 3125 2822 3475 
Q 2822 3834 2567 4026 
Q 2313 4219 1838 4219 
Q 1578 4219 1281 4162 
Q 984 4106 628 3988 
L 628 4550 
Q 988 4650 1302 4700 
Q 1616 4750 1894 4750 
Q 2613 4750 3031 4423 
Q 3450 4097 3450 3541 
Q 3450 3153 3228 2886 
Q 3006 2619 2597 2516 
z
" transform="scale(0.015625)"/>
        <path id="DejaVuSans-30" d="M 2034 4250 
Q 1547 4250 1301 3770 
Q 1056 3291 1056 2328 
Q 1056 1369 1301 889 
Q 1547 409 2034 409 
Q 2525 409 2770 889 
Q 3016 1369 3016 2328 
Q 3016 3291 2770 3770 
Q 2525 4250 2034 4250 
z
M 2034 4750 
Q 2819 4750 3233 4129 
Q 3647 3509 3647 2328 
Q 3647 1150 3233 529 
Q 2819 -91 2034 -91 
Q 1250 -91 836 529 
Q 422 1150 422 2328 
Q 422 3509 836 4129 
Q 1250 4750 2034 4750 
z
" transform="scale(0.015625)"/>
       </defs>
       <use xlink:href="#DejaVuSans-33"/>
       <use xlink:href="#DejaVuSans-30" x="63.623047"/>
      </g>
     </g>
    </g>
    <g id="xtick_2">
     <g id="line2d_2">
      <g>
       <use xlink:href="#mb35a4a1d37" x="127.923848" y="307.584" style="stroke: #000000; stroke-width: 0.8"/>
      </g>
     </g>
     <g id="text_2">
      <!-- 40 -->
      <g transform="translate(120.288848 323.702125) scale(0.12 -0.12)">
       <defs>
        <path id="DejaVuSans-34" d="M 2419 4116 
L 825 1625 
L 2419 1625 
L 2419 4116 
z
M 2253 4666 
L 3047 4666 
L 3047 1625 
L 3713 1625 
L 3713 1100 
L 3047 1100 
L 3047 0 
L 2419 0 
L 2419 1100 
L 313 1100 
L 313 1709 
L 2253 4666 
z
" transform="scale(0.015625)"/>
       </defs>
       <use xlink:href="#DejaVuSans-34"/>
       <use xlink:href="#DejaVuSans-30" x="63.623047"/>
      </g>
     </g>
    </g>
    <g id="xtick_3">
     <g id="line2d_3">
      <g>
       <use xlink:href="#mb35a4a1d37" x="182.024328" y="307.584" style="stroke: #000000; stroke-width: 0.8"/>
      </g>
     </g>
     <g id="text_3">
      <!-- 50 -->
      <g transform="translate(174.389328 323.702125) scale(0.12 -0.12)">
       <defs>
        <path id="DejaVuSans-35" d="M 691 4666 
L 3169 4666 
L 3169 4134 
L 1269 4134 
L 1269 2991 
Q 1406 3038 1543 3061 
Q 1681 3084 1819 3084 
Q 2600 3084 3056 2656 
Q 3513 2228 3513 1497 
Q 3513 744 3044 326 
Q 2575 -91 1722 -91 
Q 1428 -91 1123 -41 
Q 819 9 494 109 
L 494 744 
Q 775 591 1075 516 
Q 1375 441 1709 441 
Q 2250 441 2565 725 
Q 2881 1009 2881 1497 
Q 2881 1984 2565 2268 
Q 2250 2553 1709 2553 
Q 1456 2553 1204 2497 
Q 953 2441 691 2322 
L 691 4666 
z
" transform="scale(0.015625)"/>
       </defs>
       <use xlink:href="#DejaVuSans-35"/>
       <use xlink:href="#DejaVuSans-30" x="63.623047"/>
      </g>
     </g>
    </g>
    <g id="xtick_4">
     <g id="line2d_4">
      <g>
       <use xlink:href="#mb35a4a1d37" x="236.124808" y="307.584" style="stroke: #000000; stroke-width: 0.8"/>
      </g>
     </g>
     <g id="text_4">
      <!-- 60 -->
      <g transform="translate(228.489808 323.702125) scale(0.12 -0.12)">
       <defs>
        <path id="DejaVuSans-36" d="M 2113 2584 
Q 1688 2584 1439 2293 
Q 1191 2003 1191 1497 
Q 1191 994 1439 701 
Q 1688 409 2113 409 
Q 2538 409 2786 701 
Q 3034 994 3034 1497 
Q 3034 2003 2786 2293 
Q 2538 2584 2113 2584 
z
M 3366 4563 
L 3366 3988 
Q 3128 4100 2886 4159 
Q 2644 4219 2406 4219 
Q 1781 4219 1451 3797 
Q 1122 3375 1075 2522 
Q 1259 2794 1537 2939 
Q 1816 3084 2150 3084 
Q 2853 3084 3261 2657 
Q 3669 2231 3669 1497 
Q 3669 778 3244 343 
Q 2819 -91 2113 -91 
Q 1303 -91 875 529 
Q 447 1150 447 2328 
Q 447 3434 972 4092 
Q 1497 4750 2381 4750 
Q 2619 4750 2861 4703 
Q 3103 4656 3366 4563 
z
" transform="scale(0.015625)"/>
       </defs>
       <use xlink:href="#DejaVuSans-36"/>
       <use xlink:href="#DejaVuSans-30" x="63.623047"/>
      </g>
     </g>
    </g>
    <g id="xtick_5">
     <g id="line2d_5">
      <g>
       <use xlink:href="#mb35a4a1d37" x="290.225288" y="307.584" style="stroke: #000000; stroke-width: 0.8"/>
      </g>
     </g>
     <g id="text_5">
      <!-- 70 -->
      <g transform="translate(282.590288 323.702125) scale(0.12 -0.12)">
       <defs>
        <path id="DejaVuSans-37" d="M 525 4666 
L 3525 4666 
L 3525 4397 
L 1831 0 
L 1172 0 
L 2766 4134 
L 525 4134 
L 525 4666 
z
" transform="scale(0.015625)"/>
       </defs>
       <use xlink:href="#DejaVuSans-37"/>
       <use xlink:href="#DejaVuSans-30" x="63.623047"/>
      </g>
     </g>
    </g>
    <g id="xtick_6">
     <g id="line2d_6">
      <g>
       <use xlink:href="#mb35a4a1d37" x="344.325767" y="307.584" style="stroke: #000000; stroke-width: 0.8"/>
      </g>
     </g>
     <g id="text_6">
      <!-- 80 -->
      <g transform="translate(336.690767 323.702125) scale(0.12 -0.12)">
       <defs>
        <path id="DejaVuSans-38" d="M 2034 2216 
Q 1584 2216 1326 1975 
Q 1069 1734 1069 1313 
Q 1069 891 1326 650 
Q 1584 409 2034 409 
Q 2484 409 2743 651 
Q 3003 894 3003 1313 
Q 3003 1734 2745 1975 
Q 2488 2216 2034 2216 
z
M 1403 2484 
Q 997 2584 770 2862 
Q 544 3141 544 3541 
Q 544 4100 942 4425 
Q 1341 4750 2034 4750 
Q 2731 4750 3128 4425 
Q 3525 4100 3525 3541 
Q 3525 3141 3298 2862 
Q 3072 2584 2669 2484 
Q 3125 2378 3379 2068 
Q 3634 1759 3634 1313 
Q 3634 634 3220 271 
Q 2806 -91 2034 -91 
Q 1263 -91 848 271 
Q 434 634 434 1313 
Q 434 1759 690 2068 
Q 947 2378 1403 2484 
z
M 1172 3481 
Q 1172 3119 1398 2916 
Q 1625 2713 2034 2713 
Q 2441 2713 2670 2916 
Q 2900 3119 2900 3481 
Q 2900 3844 2670 4047 
Q 2441 4250 2034 4250 
Q 1625 4250 1398 4047 
Q 1172 3844 1172 3481 
z
" transform="scale(0.015625)"/>
       </defs>
       <use xlink:href="#DejaVuSans-38"/>
       <use xlink:href="#DejaVuSans-30" x="63.623047"/>
      </g>
     </g>
    </g>
    <g id="xtick_7">
     <g id="line2d_7">
      <g>
       <use xlink:href="#mb35a4a1d37" x="398.426247" y="307.584" style="stroke: #000000; stroke-width: 0.8"/>
      </g>
     </g>
     <g id="text_7">
      <!-- 90 -->
      <g transform="translate(390.791247 323.702125) scale(0.12 -0.12)">
       <defs>
        <path id="DejaVuSans-39" d="M 703 97 
L 703 672 
Q 941 559 1184 500 
Q 1428 441 1663 441 
Q 2288 441 2617 861 
Q 2947 1281 2994 2138 
Q 2813 1869 2534 1725 
Q 2256 1581 1919 1581 
Q 1219 1581 811 2004 
Q 403 2428 403 3163 
Q 403 3881 828 4315 
Q 1253 4750 1959 4750 
Q 2769 4750 3195 4129 
Q 3622 3509 3622 2328 
Q 3622 1225 3098 567 
Q 2575 -91 1691 -91 
Q 1453 -91 1209 -44 
Q 966 3 703 97 
z
M 1959 2075 
Q 2384 2075 2632 2365 
Q 2881 2656 2881 3163 
Q 2881 3666 2632 3958 
Q 2384 4250 1959 4250 
Q 1534 4250 1286 3958 
Q 1038 3666 1038 3163 
Q 1038 2656 1286 2365 
Q 1534 2075 1959 2075 
z
" transform="scale(0.015625)"/>
       </defs>
       <use xlink:href="#DejaVuSans-39"/>
       <use xlink:href="#DejaVuSans-30" x="63.623047"/>
      </g>
     </g>
    </g>
    <g id="text_8">
     <!-- 2θ° -->
     <g transform="translate(225.67125 339.315875) scale(0.12 -0.12)">
      <defs>
       <path id="DejaVuSans-32" d="M 1228 531 
L 3431 531 
L 3431 0 
L 469 0 
L 469 531 
Q 828 903 1448 1529 
Q 2069 2156 2228 2338 
Q 2531 2678 2651 2914 
Q 2772 3150 2772 3378 
Q 2772 3750 2511 3984 
Q 2250 4219 1831 4219 
Q 1534 4219 1204 4116 
Q 875 4013 500 3803 
L 500 4441 
Q 881 4594 1212 4672 
Q 1544 4750 1819 4750 
Q 2544 4750 2975 4387 
Q 3406 4025 3406 3419 
Q 3406 3131 3298 2873 
Q 3191 2616 2906 2266 
Q 2828 2175 2409 1742 
Q 1991 1309 1228 531 
z
" transform="scale(0.015625)"/>
       <path id="DejaVuSans-3b8" d="M 2953 2219 
L 963 2219 
Q 1009 1284 1225 888 
Q 1494 400 1959 400 
Q 2428 400 2688 891 
Q 2916 1322 2953 2219 
z
M 2944 2750 
Q 2856 3638 2688 3950 
Q 2419 4444 1959 4444 
Q 1481 4444 1228 3956 
Q 1028 3563 969 2750 
L 2944 2750 
z
M 1959 4913 
Q 2709 4913 3138 4250 
Q 3566 3591 3566 2422 
Q 3566 1256 3138 594 
Q 2709 -72 1959 -72 
Q 1206 -72 781 594 
Q 353 1256 353 2422 
Q 353 3591 781 4250 
Q 1206 4913 1959 4913 
z
" transform="scale(0.015625)"/>
       <path id="DejaVuSans-b0" d="M 1600 4347 
Q 1350 4347 1178 4173 
Q 1006 4000 1006 3750 
Q 1006 3503 1178 3333 
Q 1350 3163 1600 3163 
Q 1850 3163 2022 3333 
Q 2194 3503 2194 3750 
Q 2194 3997 2020 4172 
Q 1847 4347 1600 4347 
z
M 1600 4750 
Q 1800 4750 1984 4673 
Q 2169 4597 2303 4453 
Q 2447 4313 2519 4134 
Q 2591 3956 2591 3750 
Q 2591 3338 2302 3052 
Q 2013 2766 1594 2766 
Q 1172 2766 890 3047 
Q 609 3328 609 3750 
Q 609 4169 896 4459 
Q 1184 4750 1600 4750 
z
" transform="scale(0.015625)"/>
      </defs>
      <use xlink:href="#DejaVuSans-32"/>
      <use xlink:href="#DejaVuSans-3b8" x="63.623047"/>
      <use xlink:href="#DejaVuSans-b0" x="124.804688"/>
     </g>
    </g>
   </g>
   <g id="matplotlib.axis_2">
    <g id="ytick_1">
     <g id="line2d_8">
      <defs>
       <path id="m0036d1c14c" d="M 0 0 
L -3.5 0 
" style="stroke: #000000; stroke-width: 0.8"/>
      </defs>
      <g>
       <use xlink:href="#m0036d1c14c" x="57.6" y="295.494921" style="stroke: #000000; stroke-width: 0.8"/>
      </g>
     </g>
     <g id="text_9">
      <!-- 0 -->
      <g transform="translate(42.965 300.053984) scale(0.12 -0.12)">
       <use xlink:href="#DejaVuSans-30"/>
      </g>
     </g>
    </g>
    <g id="ytick_2">
     <g id="line2d_9">
      <g>
       <use xlink:href="#m0036d1c14c" x="57.6" y="245.858704" style="stroke: #000000; stroke-width: 0.8"/>
      </g>
     </g>
     <g id="text_10">
      <!-- 2000 -->
      <g transform="translate(20.06 250.417767) scale(0.12 -0.12)">
       <use xlink:href="#DejaVuSans-32"/>
       <use xlink:href="#DejaVuSans-30" x="63.623047"/>
       <use xlink:href="#DejaVuSans-30" x="127.246094"/>
       <use xlink:href="#DejaVuSans-30" x="190.869141"/>
      </g>
     </g>
    </g>
    <g id="ytick_3">
     <g id="line2d_10">
      <g>
       <use xlink:href="#m0036d1c14c" x="57.6" y="196.222487" style="stroke: #000000; stroke-width: 0.8"/>
      </g>
     </g>
     <g id="text_11">
      <!-- 4000 -->
      <g transform="translate(20.06 200.78155) scale(0.12 -0.12)">
       <use xlink:href="#DejaVuSans-34"/>
       <use xlink:href="#DejaVuSans-30" x="63.623047"/>
       <use xlink:href="#DejaVuSans-30" x="127.246094"/>
       <use xlink:href="#DejaVuSans-30" x="190.869141"/>
      </g>
     </g>
    </g>
    <g id="ytick_4">
     <g id="line2d_11">
      <g>
       <use xlink:href="#m0036d1c14c" x="57.6" y="146.58627" style="stroke: #000000; stroke-width: 0.8"/>
      </g>
     </g>
     <g id="text_12">
      <!-- 6000 -->
      <g transform="translate(20.06 151.145333) scale(0.12 -0.12)">
       <use xlink:href="#DejaVuSans-36"/>
       <use xlink:href="#DejaVuSans-30" x="63.623047"/>
       <use xlink:href="#DejaVuSans-30" x="127.246094"/>
       <use xlink:href="#DejaVuSans-30" x="190.869141"/>
      </g>
     </g>
    </g>
    <g id="ytick_5">
     <g id="line2d_12">
      <g>
       <use xlink:href="#m0036d1c14c" x="57.6" y="96.950054" style="stroke: #000000; stroke-width: 0.8"/>
      </g>
     </g>
     <g id="text_13">
      <!-- 8000 -->
      <g transform="translate(20.06 101.509116) scale(0.12 -0.12)">
       <use xlink:href="#DejaVuSans-38"/>
       <use xlink:href="#DejaVuSans-30" x="63.623047"/>
       <use xlink:href="#DejaVuSans-30" x="127.246094"/>
       <use xlink:href="#DejaVuSans-30" x="190.869141"/>
      </g>
     </g>
    </g>
    <g id="ytick_6">
     <g id="line2d_13">
      <g>
       <use xlink:href="#m0036d1c14c" x="57.6" y="47.313837" style="stroke: #000000; stroke-width: 0.8"/>
      </g>
     </g>
     <g id="text_14">
      <!-- 10000 -->
      <g transform="translate(12.425 51.872899) scale(0.12 -0.12)">
       <defs>
        <path id="DejaVuSans-31" d="M 794 531 
L 1825 531 
L 1825 4091 
L 703 3866 
L 703 4441 
L 1819 4666 
L 2450 4666 
L 2450 531 
L 3481 531 
L 3481 0 
L 794 0 
L 794 531 
z
" transform="scale(0.015625)"/>
       </defs>
       <use xlink:href="#DejaVuSans-31"/>
       <use xlink:href="#DejaVuSans-30" x="63.623047"/>
       <use xlink:href="#DejaVuSans-30" x="127.246094"/>
       <use xlink:href="#DejaVuSans-30" x="190.869141"/>
       <use xlink:href="#DejaVuSans-30" x="254.492188"/>
      </g>
     </g>
    </g>
    <g id="text_15">
     <!-- I (a.u.) -->
     <g transform="translate(5.929375 194.179875) rotate(-90) scale(0.12 -0.12)">
      <defs>
       <path id="DejaVuSans-49" d="M 628 4666 
L 1259 4666 
L 1259 0 
L 628 0 
L 628 4666 
z
" transform="scale(0.015625)"/>
       <path id="DejaVuSans-20" transform="scale(0.015625)"/>
       <path id="DejaVuSans-28" d="M 1984 4856 
Q 1566 4138 1362 3434 
Q 1159 2731 1159 2009 
Q 1159 1288 1364 580 
Q 1569 -128 1984 -844 
L 1484 -844 
Q 1016 -109 783 600 
Q 550 1309 550 2009 
Q 550 2706 781 3412 
Q 1013 4119 1484 4856 
L 1984 4856 
z
" transform="scale(0.015625)"/>
       <path id="DejaVuSans-61" d="M 2194 1759 
Q 1497 1759 1228 1600 
Q 959 1441 959 1056 
Q 959 750 1161 570 
Q 1363 391 1709 391 
Q 2188 391 2477 730 
Q 2766 1069 2766 1631 
L 2766 1759 
L 2194 1759 
z
M 3341 1997 
L 3341 0 
L 2766 0 
L 2766 531 
Q 2569 213 2275 61 
Q 1981 -91 1556 -91 
Q 1019 -91 701 211 
Q 384 513 384 1019 
Q 384 1609 779 1909 
Q 1175 2209 1959 2209 
L 2766 2209 
L 2766 2266 
Q 2766 2663 2505 2880 
Q 2244 3097 1772 3097 
Q 1472 3097 1187 3025 
Q 903 2953 641 2809 
L 641 3341 
Q 956 3463 1253 3523 
Q 1550 3584 1831 3584 
Q 2591 3584 2966 3190 
Q 3341 2797 3341 1997 
z
" transform="scale(0.015625)"/>
       <path id="DejaVuSans-2e" d="M 684 794 
L 1344 794 
L 1344 0 
L 684 0 
L 684 794 
z
" transform="scale(0.015625)"/>
       <path id="DejaVuSans-75" d="M 544 1381 
L 544 3500 
L 1119 3500 
L 1119 1403 
Q 1119 906 1312 657 
Q 1506 409 1894 409 
Q 2359 409 2629 706 
Q 2900 1003 2900 1516 
L 2900 3500 
L 3475 3500 
L 3475 0 
L 2900 0 
L 2900 538 
Q 2691 219 2414 64 
Q 2138 -91 1772 -91 
Q 1169 -91 856 284 
Q 544 659 544 1381 
z
M 1991 3584 
L 1991 3584 
z
" transform="scale(0.015625)"/>
       <path id="DejaVuSans-29" d="M 513 4856 
L 1013 4856 
Q 1481 4119 1714 3412 
Q 1947 2706 1947 2009 
Q 1947 1309 1714 600 
Q 1481 -109 1013 -844 
L 513 -844 
Q 928 -128 1133 580 
Q 1338 1288 1338 2009 
Q 1338 2731 1133 3434 
Q 928 4138 513 4856 
z
" transform="scale(0.015625)"/>
      </defs>
      <use xlink:href="#DejaVuSans-49"/>
      <use xlink:href="#DejaVuSans-20" x="29.492188"/>
      <use xlink:href="#DejaVuSans-28" x="61.279297"/>
      <use xlink:href="#DejaVuSans-61" x="100.292969"/>
      <use xlink:href="#DejaVuSans-2e" x="161.572266"/>
      <use xlink:href="#DejaVuSans-75" x="193.359375"/>
      <use xlink:href="#DejaVuSans-2e" x="256.738281"/>
      <use xlink:href="#DejaVuSans-29" x="288.525391"/>
     </g>
    </g>
   </g>
   <g id="line2d_14">
    <path d="M 73.832727 287.950216 
L 73.931461 288.570669 
L 74.030194 288.471396 
L 74.227661 287.925398 
L 74.425182 288.545851 
L 74.523915 288.049489 
L 74.622648 288.198397 
L 74.820115 287.999852 
L 74.918849 288.496215 
L 75.017582 288.223215 
L 75.116315 288.843668 
L 75.215103 288.29767 
L 75.313782 288.372124 
L 75.412569 288.123943 
L 75.511303 288.322488 
L 75.610036 287.999852 
L 75.70877 289.141485 
L 75.807503 288.29767 
L 76.00497 288.521033 
L 76.103703 288.396942 
L 76.202491 288.81885 
L 76.301224 287.652399 
L 76.399957 287.776489 
L 76.498691 289.290394 
L 76.696157 288.123943 
L 76.893624 288.620305 
L 76.992358 288.620305 
L 77.091091 288.868486 
L 77.288612 288.545851 
L 77.387345 289.34003 
L 77.486079 287.999852 
L 77.683545 288.620305 
L 77.782279 288.223215 
L 77.9798 288.545851 
L 78.177266 287.999852 
L 78.276 288.248033 
L 78.374733 287.528308 
L 78.473466 288.942941 
L 78.5722 288.074307 
L 78.670933 288.42176 
L 78.769667 289.191122 
L 78.8684 289.166303 
L 79.065921 288.669941 
L 79.263388 289.34003 
L 79.460854 288.173579 
L 79.559588 288.248033 
L 79.658321 287.850944 
L 79.757054 288.694759 
L 79.855788 288.496215 
L 79.954575 289.141485 
L 80.053309 289.091849 
L 80.152042 288.620305 
L 80.349509 288.794032 
L 80.448242 288.570669 
L 80.546976 289.240758 
L 80.645709 289.091849 
L 80.84323 288.595487 
L 81.040697 289.166303 
L 81.13943 288.496215 
L 81.238163 288.570669 
L 81.336897 288.769214 
L 81.534363 288.446578 
L 81.731884 288.446578 
L 81.830618 289.141485 
L 82.028084 288.694759 
L 82.324284 287.950216 
L 82.423018 289.141485 
L 82.620539 288.29767 
L 82.719272 288.198397 
L 82.916739 288.942941 
L 83.015472 288.992577 
L 83.114206 288.396942 
L 83.212939 289.265576 
L 83.311672 288.620305 
L 83.410406 288.81885 
L 83.509193 288.446578 
L 83.607927 288.545851 
L 83.70666 288.942941 
L 83.805393 288.396942 
L 83.904127 288.967759 
L 84.00286 288.446578 
L 84.101593 288.545851 
L 84.200327 288.198397 
L 84.29906 288.794032 
L 84.397794 288.446578 
L 84.595314 289.389666 
L 84.694048 288.868486 
L 85.088981 289.538575 
L 85.187715 289.067031 
L 85.286448 289.21594 
L 85.483969 289.141485 
L 85.681436 288.471396 
L 85.878902 289.389666 
L 86.076369 288.570669 
L 86.175103 288.396942 
L 86.273836 288.81885 
L 86.471357 288.02467 
L 86.668824 288.893304 
L 86.767557 288.248033 
L 86.965024 288.545851 
L 87.063811 287.90058 
L 87.162545 288.744396 
L 87.261224 288.645123 
L 87.360011 288.396942 
L 87.458745 288.545851 
L 87.557478 287.850944 
L 87.656211 288.545851 
L 87.853678 288.29767 
L 87.952412 288.694759 
L 88.051199 288.322488 
L 88.149932 289.141485 
L 88.248666 288.272852 
L 88.347399 288.967759 
L 88.446133 288.29767 
L 88.544866 288.669941 
L 88.643599 287.950216 
L 88.841066 288.719578 
L 88.939799 288.843668 
L 89.038587 288.322488 
L 89.334787 289.141485 
L 89.43352 288.595487 
L 89.630987 288.992577 
L 89.72972 288.620305 
L 89.828454 289.240758 
L 90.124708 288.396942 
L 90.223441 288.744396 
L 90.322175 287.999852 
L 90.420908 288.893304 
L 90.519642 288.868486 
L 90.618375 288.694759 
L 90.717108 288.248033 
L 90.914629 288.893304 
L 91.013363 288.645123 
L 91.112096 288.694759 
L 91.210829 289.116667 
L 91.309563 288.272852 
L 91.408296 289.042213 
L 91.507029 288.148761 
L 91.605817 288.669941 
L 91.70455 288.645123 
L 91.902017 288.049489 
L 92.00075 288.843668 
L 92.198217 288.29767 
L 92.395684 289.290394 
L 92.593205 288.099125 
L 92.691938 288.545851 
L 92.790617 287.875762 
L 92.889405 288.769214 
L 92.988138 287.999852 
L 93.185605 288.81885 
L 93.284338 287.925398 
L 93.383072 288.595487 
L 93.481805 287.429036 
L 93.580593 288.570669 
L 93.679326 287.975034 
L 93.778059 288.595487 
L 93.876793 287.726853 
L 93.975526 288.446578 
L 94.172993 287.677217 
L 94.37046 288.545851 
L 94.567981 287.50349 
L 94.666714 288.173579 
L 94.962914 287.429036 
L 95.061647 287.528308 
L 95.160381 288.29767 
L 95.259114 287.602763 
L 95.357848 288.570669 
L 95.456635 287.602763 
L 95.752835 288.942941 
L 95.950302 286.858219 
L 96.049035 287.354582 
L 96.147769 287.1064 
L 96.246556 287.602763 
L 96.542756 287.354582 
L 96.64149 287.602763 
L 96.740223 286.634856 
L 96.838956 287.429036 
L 96.93769 286.361857 
L 97.036423 286.510766 
L 97.135211 285.518042 
L 97.431411 286.907856 
L 97.530144 285.567678 
L 97.628877 285.716586 
L 97.925078 284.277136 
L 98.023811 284.426045 
L 98.122598 284.922407 
L 98.221332 282.986594 
L 98.320065 283.582229 
L 98.418799 282.614323 
L 98.517532 282.986594 
L 98.616265 282.142779 
L 98.714999 282.51505 
L 98.912465 280.777783 
L 99.011199 279.933967 
L 99.109986 277.27843 
L 99.20872 278.047791 
L 99.50492 274.746982 
L 99.603653 274.895891 
L 99.899853 270.701631 
L 100.097374 272.364444 
L 100.196108 273.133805 
L 100.591041 279.884331 
L 101.183495 285.691768 
L 101.282229 285.319497 
L 101.380962 285.915131 
L 101.479696 285.791041 
L 101.578429 286.18813 
L 101.677162 287.081582 
L 101.77595 286.262585 
L 101.874683 286.337039 
L 101.973417 286.907856 
L 102.07215 286.833401 
L 102.269617 287.776489 
L 102.36835 286.98231 
L 102.467083 287.1064 
L 102.565817 288.223215 
L 102.664604 287.354582 
L 102.862071 287.652399 
L 102.960804 287.553126 
L 103.158271 287.1064 
L 103.257004 287.751671 
L 103.355738 287.602763 
L 103.454471 287.801308 
L 103.553205 287.230491 
L 103.750725 287.950216 
L 103.948192 287.255309 
L 104.145659 287.850944 
L 104.244392 286.858219 
L 104.441859 287.850944 
L 104.738113 287.553126 
L 104.836847 287.999852 
L 104.93558 287.875762 
L 105.034313 287.478672 
L 105.133047 287.950216 
L 105.23178 287.801308 
L 105.330568 287.875762 
L 105.429247 287.255309 
L 105.52798 288.29767 
L 105.626768 287.429036 
L 105.725501 287.975034 
L 105.824235 287.950216 
L 105.922968 288.248033 
L 106.021701 287.850944 
L 106.219168 288.471396 
L 106.317956 287.826126 
L 106.416689 288.02467 
L 106.515422 287.801308 
L 106.614156 288.223215 
L 106.811622 287.205673 
L 106.910356 287.925398 
L 107.009089 287.702035 
L 107.107823 288.02467 
L 107.206556 287.652399 
L 107.305343 287.950216 
L 107.404077 287.50349 
L 107.50281 288.29767 
L 107.601544 287.3794 
L 107.700277 287.702035 
L 108.09521 287.304945 
L 108.193998 287.354582 
L 108.292731 287.577945 
L 108.391465 286.436312 
L 108.786398 287.50349 
L 108.885132 287.553126 
L 108.983865 286.783765 
L 109.082598 287.404218 
L 109.181386 286.734129 
L 109.280119 287.329763 
L 109.378852 287.007128 
L 109.675053 287.453854 
L 109.773786 286.386675 
L 109.971253 287.056764 
L 110.069986 286.138494 
L 110.168774 286.18813 
L 110.267507 287.255309 
L 110.464974 286.411493 
L 110.66244 286.957492 
L 110.859961 286.014404 
L 110.958695 286.361857 
L 111.254895 285.170588 
L 111.353628 285.617314 
L 111.452362 285.195406 
L 111.649828 286.138494 
L 111.748562 284.897589 
L 111.847349 285.393951 
L 112.044816 283.408502 
L 112.143549 284.475681 
L 112.341016 282.564687 
L 112.439749 282.887322 
L 113.032204 277.849246 
L 113.130937 278.097427 
L 113.229671 277.427338 
L 113.920858 266.50737 
L 114.315792 251.144961 
L 114.611992 222.480046 
L 115.105713 159.069779 
L 115.204446 164.455309 
L 115.59938 208.830086 
L 115.895634 241.019173 
L 116.191834 260.799206 
L 116.389355 263.975923 
L 116.488088 263.380289 
L 116.586822 263.529197 
L 116.784288 261.866384 
L 116.981755 259.508664 
L 117.277955 249.953692 
L 117.376743 248.861695 
L 117.87041 215.456521 
L 117.969143 211.808259 
L 118.561597 149.291444 
L 118.857798 117.99581 
L 119.548985 67.962503 
L 119.943919 53.568 
L 120.042706 54.213271 
L 120.141386 53.816181 
L 120.338906 72.529035 
L 121.128773 212.503166 
L 121.425028 243.997346 
L 121.918749 261.345204 
L 122.017482 262.437201 
L 122.313682 267.69864 
L 122.412416 267.82273 
L 122.511149 267.351186 
L 122.609882 267.574549 
L 122.708616 268.641728 
L 122.807349 268.567273 
L 122.906136 266.730733 
L 123.00487 268.741 
L 123.103603 267.053369 
L 123.202337 268.21982 
L 123.30107 267.276732 
L 123.399803 267.549731 
L 123.59727 265.043102 
L 123.696004 263.23138 
L 123.794791 263.975923 
L 124.090991 259.210847 
L 124.189724 260.153935 
L 124.387191 255.066222 
L 124.485925 254.495406 
L 124.979646 244.195891 
L 125.473367 231.886109 
L 125.967033 215.282795 
L 126.263234 192.350862 
L 126.658221 160.856683 
L 126.756955 165.398397 
L 127.744342 263.876651 
L 128.139276 274.722164 
L 128.238009 274.598074 
L 128.336743 277.824428 
L 128.43553 277.129521 
L 128.73173 280.479966 
L 128.830464 279.660968 
L 128.929197 281.646417 
L 129.02793 280.355875 
L 129.126718 281.944234 
L 129.225397 281.547144 
L 129.324185 282.862504 
L 129.521651 282.663959 
L 129.719118 283.83041 
L 129.817852 283.70632 
L 129.916585 283.334048 
L 130.212839 284.872771 
L 130.311572 284.872771 
L 130.410306 284.599772 
L 130.706506 285.021679 
L 130.805239 285.567678 
L 130.903973 285.096134 
L 131.00276 285.915131 
L 131.29896 284.897589 
L 131.496427 285.716586 
L 131.59516 285.518042 
L 131.693894 286.014404 
L 131.792627 285.021679 
L 131.891361 286.014404 
L 131.990148 285.617314 
L 132.187615 285.865495 
L 132.286348 285.220224 
L 132.385082 285.691768 
L 132.483815 285.54286 
L 132.878748 286.46113 
L 132.977536 286.610038 
L 133.076269 285.766223 
L 133.273736 286.808583 
L 133.372469 285.865495 
L 133.471203 286.212949 
L 133.569936 285.66695 
L 133.767403 286.783765 
L 133.964924 286.212949 
L 134.063657 286.98231 
L 134.162391 286.361857 
L 134.458591 286.833401 
L 134.557324 286.312221 
L 134.754845 286.98231 
L 134.853578 286.957492 
L 135.051045 287.627581 
L 135.445979 286.485948 
L 135.544712 287.255309 
L 135.742233 286.510766 
L 135.840966 287.056764 
L 135.9397 286.684493 
L 136.137166 287.255309 
L 136.2359 286.46113 
L 136.334633 286.485948 
L 136.433366 286.98231 
L 136.532154 286.659675 
L 136.630887 287.478672 
L 136.927087 286.535584 
L 137.124554 287.429036 
L 137.223287 287.404218 
L 137.322021 287.056764 
L 137.519542 287.627581 
L 137.618275 286.58522 
L 137.717008 287.702035 
L 137.815742 287.255309 
L 137.914475 287.577945 
L 138.013209 287.205673 
L 138.111942 287.577945 
L 138.408142 287.280127 
L 138.50693 287.875762 
L 138.704396 286.932674 
L 138.80313 287.131219 
L 138.901863 286.758947 
L 139.09933 287.801308 
L 139.198117 287.652399 
L 139.296851 287.726853 
L 139.39553 286.684493 
L 139.593051 287.751671 
L 139.691784 287.652399 
L 139.790518 287.304945 
L 139.889251 286.436312 
L 140.086718 288.074307 
L 140.185505 288.248033 
L 140.481705 287.255309 
L 140.580439 287.850944 
L 140.679172 287.602763 
L 140.777905 287.751671 
L 140.975372 286.907856 
L 141.074106 287.255309 
L 141.172893 287.007128 
L 141.271626 287.056764 
L 141.37036 288.496215 
L 141.567827 287.404218 
L 141.66656 288.148761 
L 141.864027 287.354582 
L 141.96276 287.553126 
L 142.061548 287.429036 
L 142.160281 287.1064 
L 142.357748 288.248033 
L 142.555214 287.652399 
L 142.653948 287.90058 
L 142.752681 287.404218 
L 142.851415 287.602763 
L 142.950148 288.099125 
L 143.048935 287.205673 
L 143.246402 287.975034 
L 143.345136 288.074307 
L 143.443869 287.999852 
L 143.542602 287.652399 
L 143.641336 288.148761 
L 143.740123 287.950216 
L 143.838856 287.999852 
L 144.036323 287.950216 
L 144.23379 287.1064 
L 144.332523 287.801308 
L 144.431257 287.180855 
L 144.52999 287.726853 
L 144.628723 287.627581 
L 144.727511 288.198397 
L 144.826244 288.049489 
L 144.924978 287.131219 
L 145.023711 287.801308 
L 145.221178 287.702035 
L 145.517378 287.652399 
L 145.714899 288.893304 
L 145.813632 287.975034 
L 145.912366 288.049489 
L 146.011099 288.42176 
L 146.109832 288.099125 
L 146.208566 288.148761 
L 146.307299 288.02467 
L 146.406032 287.478672 
L 146.504766 287.602763 
L 146.603553 288.396942 
L 146.702287 288.148761 
L 146.899753 288.347306 
L 147.195954 287.453854 
L 147.492154 288.198397 
L 147.590941 287.975034 
L 147.689675 288.099125 
L 147.788408 288.545851 
L 147.985875 287.950216 
L 148.084608 288.074307 
L 148.183341 287.50349 
L 148.282075 288.02467 
L 148.380862 287.950216 
L 148.479542 288.123943 
L 148.578329 287.850944 
L 148.677062 288.396942 
L 148.775796 288.322488 
L 148.874529 288.347306 
L 148.973263 288.992577 
L 149.269517 288.049489 
L 149.36825 288.794032 
L 149.466929 288.272852 
L 149.565717 288.843668 
L 149.763184 288.372124 
L 149.96065 288.719578 
L 150.059384 288.893304 
L 150.355638 287.354582 
L 150.553105 288.223215 
L 150.651838 288.322488 
L 150.750571 288.074307 
L 150.849305 288.446578 
L 150.948038 287.726853 
L 151.046772 288.545851 
L 151.145505 288.471396 
L 151.244292 288.322488 
L 151.441759 288.396942 
L 151.540493 287.50349 
L 151.737959 288.521033 
L 151.836693 288.396942 
L 152.034159 288.595487 
L 152.132947 288.446578 
L 152.23168 288.868486 
L 152.330414 288.198397 
L 152.52788 288.967759 
L 152.725347 288.29767 
L 152.922868 288.843668 
L 153.021547 287.950216 
L 153.120335 288.942941 
L 153.317802 288.223215 
L 153.416535 288.744396 
L 153.515268 288.123943 
L 153.614002 288.570669 
L 153.712735 288.248033 
L 153.811523 288.694759 
L 153.910256 288.645123 
L 154.008935 287.801308 
L 154.107723 288.471396 
L 154.206456 288.29767 
L 154.305189 288.396942 
L 154.403923 287.925398 
L 154.60139 288.396942 
L 154.700123 289.389666 
L 154.897644 288.744396 
L 154.996377 288.769214 
L 155.095111 288.595487 
L 155.193844 288.992577 
L 155.292577 288.545851 
L 155.391311 289.21594 
L 155.490044 288.446578 
L 155.588777 288.769214 
L 155.687511 288.545851 
L 155.786298 288.595487 
L 155.885032 288.521033 
L 156.082498 289.191122 
L 156.378699 287.950216 
L 156.477432 289.21594 
L 156.576165 288.074307 
L 156.773686 289.141485 
L 156.971153 287.875762 
L 157.16862 289.191122 
L 157.366086 288.694759 
L 157.563553 288.645123 
L 157.662341 287.677217 
L 157.761074 288.992577 
L 157.859807 288.521033 
L 157.958541 288.694759 
L 158.057274 288.29767 
L 158.156007 288.545851 
L 158.254741 289.191122 
L 158.353474 288.198397 
L 158.452262 288.719578 
L 158.550995 288.595487 
L 158.649728 288.074307 
L 158.847195 289.191122 
L 158.945929 288.42176 
L 159.044662 288.545851 
L 159.143395 289.34003 
L 159.242129 288.42176 
L 159.340916 289.141485 
L 159.43965 288.669941 
L 159.538383 288.744396 
L 159.637116 288.223215 
L 159.933316 289.464121 
L 160.229517 288.29767 
L 160.328304 289.34003 
L 160.427037 288.446578 
L 160.624504 288.843668 
L 160.723238 288.123943 
L 160.821971 288.942941 
L 160.920704 288.248033 
L 161.019438 288.967759 
L 161.216904 288.396942 
L 161.414425 288.843668 
L 161.513159 288.992577 
L 161.611892 288.521033 
L 161.710625 288.843668 
L 162.00688 288.595487 
L 162.105559 289.439303 
L 162.30308 288.148761 
L 162.401813 288.967759 
L 162.59928 287.999852 
L 162.698013 289.166303 
L 162.796747 288.396942 
L 162.89548 288.570669 
L 162.994268 289.439303 
L 163.093001 288.620305 
L 163.191734 288.645123 
L 163.290468 288.744396 
L 163.389201 289.364848 
L 163.487934 289.017395 
L 163.685401 289.439303 
L 163.784135 289.786756 
L 163.981655 288.794032 
L 164.080389 288.893304 
L 164.179122 289.240758 
L 164.376589 288.843668 
L 164.475322 289.34003 
L 164.574056 288.942941 
L 164.771522 289.191122 
L 164.87031 289.166303 
L 164.969043 288.81885 
L 165.067777 288.942941 
L 165.265243 288.744396 
L 165.363977 289.637848 
L 165.46271 289.191122 
L 165.561443 289.488939 
L 165.660177 288.843668 
L 165.75891 288.893304 
L 165.857698 288.744396 
L 166.055164 289.315212 
L 166.252631 288.744396 
L 166.351365 288.992577 
L 166.450098 288.967759 
L 166.548885 288.794032 
L 166.647565 289.439303 
L 166.845086 287.999852 
L 166.943819 289.116667 
L 167.042552 288.42176 
L 167.141286 289.091849 
L 167.240019 288.719578 
L 167.338752 289.091849 
L 167.536273 288.42176 
L 167.635007 289.290394 
L 167.733686 288.595487 
L 168.128674 289.910847 
L 168.227407 289.166303 
L 168.32614 289.315212 
L 168.424874 289.141485 
L 168.622395 289.364848 
L 168.721128 288.81885 
L 168.918595 289.712302 
L 169.116061 288.545851 
L 169.214795 288.521033 
L 169.313528 289.042213 
L 169.412262 289.017395 
L 169.609782 289.687484 
L 169.807249 289.464121 
L 169.905983 289.985301 
L 170.103449 288.42176 
L 170.202183 289.166303 
L 170.300916 288.545851 
L 170.399704 289.538575 
L 170.498437 289.067031 
L 170.59717 289.960483 
L 170.695904 289.042213 
L 170.794637 289.091849 
L 170.89337 289.836392 
L 170.992104 289.538575 
L 171.090837 290.183846 
L 171.288304 289.240758 
L 171.387091 288.992577 
L 171.485825 289.439303 
L 171.584558 288.992577 
L 171.683291 289.761938 
L 171.979492 289.166303 
L 172.177012 289.290394 
L 172.275692 289.017395 
L 172.374479 290.208664 
L 172.473213 288.942941 
L 172.571946 289.73712 
L 172.670679 289.067031 
L 172.769413 289.091849 
L 172.868146 288.719578 
L 173.1644 289.687484 
L 173.263134 289.414485 
L 173.361867 289.73712 
L 173.559334 288.645123 
L 173.658067 289.091849 
L 173.756801 288.918122 
L 173.855534 289.613029 
L 173.954267 289.116667 
L 174.151788 289.290394 
L 174.250522 288.868486 
L 174.447988 289.513757 
L 174.645455 289.042213 
L 175.040443 289.414485 
L 175.139176 289.141485 
L 175.237909 289.613029 
L 175.336643 288.967759 
L 175.435376 289.141485 
L 175.632843 288.496215 
L 175.731576 289.091849 
L 175.83031 289.042213 
L 175.929097 288.893304 
L 176.027831 289.761938 
L 176.225297 288.570669 
L 176.324031 289.017395 
L 176.422764 288.595487 
L 176.620231 289.588211 
L 176.817698 289.389666 
L 176.916485 289.067031 
L 177.015218 289.488939 
L 177.113952 289.414485 
L 177.212685 288.669941 
L 177.311419 288.769214 
L 177.410152 290.084573 
L 177.508885 289.985301 
L 177.607673 289.091849 
L 177.706406 289.34003 
L 177.903873 288.843668 
L 178.002606 289.687484 
L 178.10134 289.240758 
L 178.298806 289.637848 
L 178.39754 288.967759 
L 178.496273 289.588211 
L 178.595061 289.21594 
L 178.693794 289.389666 
L 178.792527 289.240758 
L 178.891261 289.439303 
L 178.989994 288.992577 
L 179.088727 289.513757 
L 179.187461 289.067031 
L 179.286194 289.985301 
L 179.384928 288.868486 
L 179.483661 288.918122 
L 179.681182 289.265576 
L 179.779915 289.017395 
L 179.878649 289.910847 
L 180.076115 288.893304 
L 180.174849 289.563393 
L 180.372315 289.166303 
L 180.471103 289.091849 
L 180.569836 288.868486 
L 180.66857 288.918122 
L 180.767303 289.166303 
L 180.866036 288.918122 
L 180.96477 289.761938 
L 181.063503 289.73712 
L 181.261024 288.893304 
L 181.458491 289.414485 
L 181.557224 289.662666 
L 181.655958 289.389666 
L 181.853424 290.059755 
L 181.952158 289.464121 
L 182.050891 289.811574 
L 182.149679 288.446578 
L 182.347091 289.513757 
L 182.445879 289.513757 
L 182.544612 289.166303 
L 183.038279 289.488939 
L 183.137066 288.868486 
L 183.2358 289.240758 
L 183.334533 289.141485 
L 183.433267 289.786756 
L 183.630733 289.017395 
L 183.729467 289.439303 
L 183.926933 288.967759 
L 184.025667 289.910847 
L 184.124454 289.067031 
L 184.321921 289.985301 
L 184.420654 289.091849 
L 184.519388 289.290394 
L 184.618121 288.396942 
L 184.815588 289.538575 
L 184.914321 289.439303 
L 185.111842 289.935665 
L 185.309309 288.719578 
L 185.408042 289.389666 
L 185.506776 288.496215 
L 185.605509 289.637848 
L 185.704242 289.513757 
L 185.80303 289.439303 
L 185.901709 288.347306 
L 186.09923 289.315212 
L 186.197963 289.34003 
L 186.296697 289.538575 
L 186.39543 289.364848 
L 186.494163 288.744396 
L 186.592897 289.761938 
L 186.69163 289.141485 
L 186.790418 289.761938 
L 186.889151 289.166303 
L 186.987884 289.712302 
L 187.086618 289.290394 
L 187.185351 290.034937 
L 187.481551 288.446578 
L 187.679072 289.141485 
L 187.777806 289.21594 
L 187.975272 289.613029 
L 188.074006 289.836392 
L 188.172739 288.595487 
L 188.370206 289.662666 
L 188.468939 289.761938 
L 188.66646 288.843668 
L 188.863927 289.017395 
L 188.96266 288.521033 
L 189.160127 289.017395 
L 189.25886 289.861211 
L 189.357594 289.042213 
L 189.456327 289.091849 
L 189.55506 289.116667 
L 189.653848 288.669941 
L 189.752581 288.992577 
L 189.851315 288.918122 
L 189.950048 289.538575 
L 190.147515 288.794032 
L 190.246248 289.513757 
L 190.345036 288.521033 
L 190.443715 288.942941 
L 190.542448 288.794032 
L 190.641236 288.248033 
L 190.739969 288.843668 
L 190.838703 288.645123 
L 190.937436 288.719578 
L 191.036169 288.396942 
L 191.134903 288.595487 
L 191.233636 288.272852 
L 191.332423 288.545851 
L 191.431157 287.950216 
L 191.52989 288.81885 
L 191.727357 287.776489 
L 191.82609 288.223215 
L 191.924824 288.02467 
L 192.023557 287.354582 
L 192.12229 287.751671 
L 192.221024 287.230491 
L 192.418545 287.602763 
L 192.517278 286.833401 
L 192.616011 286.98231 
L 192.714745 285.592496 
L 192.813478 285.815859 
L 193.010945 282.936958 
L 193.208466 284.177864 
L 193.307199 282.465414 
L 193.405933 283.234776 
L 193.504666 282.217233 
L 193.603399 282.639141 
L 193.800866 281.199691 
L 193.899599 279.909149 
L 194.39332 284.376409 
L 194.492054 284.053773 
L 194.689521 284.500499 
L 194.887041 285.915131 
L 194.985721 286.883038 
L 195.183242 286.039222 
L 195.380708 287.553126 
L 195.479442 287.230491 
L 195.578175 287.925398 
L 195.676908 287.577945 
L 195.874429 288.074307 
L 195.973163 289.166303 
L 196.269363 287.677217 
L 196.368096 288.719578 
L 196.46683 288.521033 
L 196.565563 289.116667 
L 196.76303 288.396942 
L 196.861817 289.290394 
L 197.059284 288.694759 
L 197.158017 288.81885 
L 197.256751 289.166303 
L 197.355484 289.091849 
L 197.454217 289.364848 
L 197.651684 288.81885 
L 197.750418 289.315212 
L 197.849205 288.794032 
L 197.947938 288.942941 
L 198.145405 289.513757 
L 198.244139 288.496215 
L 198.342872 289.042213 
L 198.441605 288.794032 
L 198.639072 289.166303 
L 198.737859 288.843668 
L 198.935326 289.017395 
L 199.03406 288.620305 
L 199.132793 289.662666 
L 199.231526 288.942941 
L 199.527726 289.613029 
L 199.725247 289.488939 
L 199.823981 288.595487 
L 199.922714 288.719578 
L 200.021447 289.265576 
L 200.120181 288.992577 
L 200.218914 289.091849 
L 200.416435 289.538575 
L 200.515168 288.81885 
L 200.811369 289.240758 
L 200.910102 289.042213 
L 201.008835 288.545851 
L 201.305035 289.34003 
L 201.403823 288.967759 
L 201.502556 289.21594 
L 201.700023 288.496215 
L 201.89749 289.116667 
L 201.996223 289.191122 
L 202.094957 288.719578 
L 202.19369 288.942941 
L 202.292423 288.843668 
L 202.391211 288.471396 
L 202.489944 289.34003 
L 202.588678 288.173579 
L 202.687411 289.34003 
L 203.082344 288.744396 
L 203.181078 288.049489 
L 203.378599 288.918122 
L 203.477332 288.570669 
L 203.576065 289.290394 
L 203.674799 288.694759 
L 203.773532 289.116667 
L 203.872266 288.471396 
L 203.970999 288.81885 
L 204.069732 288.595487 
L 204.168466 288.942941 
L 204.267253 288.570669 
L 204.46472 289.091849 
L 204.563453 288.471396 
L 204.662187 288.570669 
L 204.76092 288.248033 
L 204.859653 288.967759 
L 205.057174 288.372124 
L 205.155854 288.496215 
L 205.254641 288.396942 
L 205.353374 287.875762 
L 205.452108 287.925398 
L 205.550841 287.776489 
L 205.649574 288.545851 
L 205.748308 288.02467 
L 205.847041 288.868486 
L 205.945829 288.049489 
L 206.044562 288.148761 
L 206.143241 287.850944 
L 206.340762 288.570669 
L 206.636962 287.50349 
L 206.735696 288.198397 
L 206.933217 287.329763 
L 207.03195 286.758947 
L 207.130683 287.031946 
L 207.229417 286.163312 
L 207.32815 286.957492 
L 207.426883 286.883038 
L 207.62435 287.429036 
L 207.821817 286.858219 
L 208.019338 285.890313 
L 208.118071 286.287403 
L 208.216805 285.518042 
L 208.315538 285.815859 
L 208.414271 284.947225 
L 208.611738 286.138494 
L 208.809259 285.14577 
L 208.907992 285.443587 
L 209.006726 284.599772 
L 209.105459 285.26986 
L 209.204192 284.649408 
L 209.302926 284.972043 
L 209.401659 284.202682 
L 209.500393 284.500499 
L 209.59918 283.855228 
L 209.697859 285.021679 
L 209.89538 283.30923 
L 209.994114 283.904864 
L 210.092847 283.036231 
L 210.19158 284.028955 
L 210.290314 283.755956 
L 210.389047 284.301954 
L 210.487835 283.209957 
L 210.685247 283.557411 
L 210.784035 283.532593 
L 210.882768 282.837686 
L 210.981501 283.70632 
L 211.178968 282.91214 
L 211.277702 283.532593 
L 211.475222 282.51505 
L 211.573956 282.018688 
L 211.672689 282.39096 
L 211.771423 282.291687 
L 211.968889 281.795325 
L 212.067623 281.820143 
L 212.363823 279.214242 
L 212.46261 279.685786 
L 212.660077 278.32079 
L 212.75881 278.370426 
L 212.857544 277.948518 
L 213.05501 278.32079 
L 213.153744 277.154339 
L 213.351211 279.735422 
L 213.449998 279.983603 
L 213.746198 282.192415 
L 213.844932 282.167597 
L 214.536119 286.337039 
L 214.634853 286.485948 
L 214.733586 286.932674 
L 214.832319 286.659675 
L 215.029786 287.652399 
L 215.128574 287.50349 
L 215.227307 287.801308 
L 215.32604 287.553126 
L 215.424774 288.248033 
L 215.523507 287.577945 
L 215.720974 288.223215 
L 215.918441 287.826126 
L 216.214695 288.496215 
L 216.412162 288.223215 
L 216.510895 288.099125 
L 216.708362 288.918122 
L 216.905829 288.099125 
L 217.103349 288.794032 
L 217.202083 288.446578 
L 217.39955 288.744396 
L 217.498283 289.836392 
L 217.69575 288.471396 
L 217.794483 288.868486 
L 217.893216 288.81885 
L 218.090737 288.893304 
L 218.288204 288.521033 
L 218.386937 288.272852 
L 218.485671 288.942941 
L 218.781871 287.850944 
L 218.979392 288.81885 
L 219.176858 288.372124 
L 219.571792 288.744396 
L 219.670579 288.521033 
L 219.769313 287.950216 
L 219.868046 289.017395 
L 220.065513 288.272852 
L 220.26298 288.967759 
L 220.361713 288.372124 
L 220.55918 288.595487 
L 220.657967 287.950216 
L 220.756701 288.099125 
L 220.954167 287.850944 
L 221.052901 288.645123 
L 221.151634 287.925398 
L 221.447834 289.21594 
L 221.546622 288.099125 
L 221.744089 289.017395 
L 221.842822 288.223215 
L 221.941555 289.116667 
L 222.040289 287.975034 
L 222.139022 288.694759 
L 222.336489 288.347306 
L 222.53401 288.81885 
L 222.632743 288.198397 
L 222.83021 288.620305 
L 222.928943 288.049489 
L 223.12641 289.21594 
L 223.323877 288.248033 
L 223.42261 289.091849 
L 223.521398 288.223215 
L 223.718864 288.893304 
L 223.817598 288.967759 
L 223.916331 288.868486 
L 224.015064 288.496215 
L 224.113798 288.719578 
L 224.212585 288.595487 
L 224.311319 287.999852 
L 224.409998 289.067031 
L 224.508785 287.999852 
L 224.607519 288.521033 
L 224.706252 287.90058 
L 224.804986 288.123943 
L 225.002452 288.744396 
L 225.101186 288.123943 
L 225.199973 289.21594 
L 225.298707 288.198397 
L 225.39744 288.595487 
L 225.496173 288.02467 
L 225.594907 288.620305 
L 225.69364 288.545851 
L 225.792373 288.29767 
L 225.891107 288.843668 
L 225.98984 288.123943 
L 226.088574 288.496215 
L 226.187361 288.248033 
L 226.286094 288.29767 
L 226.384828 288.248033 
L 226.483561 288.446578 
L 226.582294 288.049489 
L 226.681028 288.372124 
L 226.779761 287.081582 
L 226.878495 288.372124 
L 226.977228 287.999852 
L 227.076015 288.446578 
L 227.174749 288.074307 
L 227.372216 288.570669 
L 227.470949 288.074307 
L 227.668416 288.669941 
L 227.767149 288.123943 
L 227.865882 288.868486 
L 227.964616 288.794032 
L 228.162137 287.999852 
L 228.359603 288.049489 
L 228.458337 288.322488 
L 228.55707 288.049489 
L 228.655804 287.329763 
L 228.853324 288.893304 
L 228.952004 288.223215 
L 229.050791 288.496215 
L 229.149525 288.322488 
L 229.248258 287.652399 
L 229.346991 288.049489 
L 229.445725 287.602763 
L 229.544458 287.726853 
L 229.741979 289.141485 
L 229.840712 287.925398 
L 229.939446 288.074307 
L 230.038179 288.42176 
L 230.235646 288.049489 
L 230.334379 287.801308 
L 230.433113 288.396942 
L 230.531846 287.304945 
L 230.630579 287.90058 
L 230.729367 287.453854 
L 230.926834 288.049489 
L 231.223034 286.808583 
L 231.321767 286.436312 
L 231.4205 288.272852 
L 231.519234 287.975034 
L 231.716755 288.942941 
L 231.914221 287.801308 
L 232.012955 287.478672 
L 232.111688 287.801308 
L 232.210422 287.726853 
L 232.309155 288.272852 
L 232.407888 287.702035 
L 232.506622 288.02467 
L 232.605409 287.950216 
L 232.704142 288.049489 
L 232.802876 287.776489 
L 233.000343 288.694759 
L 233.099076 287.776489 
L 233.197809 287.850944 
L 233.296543 287.850944 
L 233.39533 287.081582 
L 233.49401 288.173579 
L 233.592797 287.90058 
L 233.69153 287.031946 
L 233.790264 287.652399 
L 233.888997 287.50349 
L 233.98773 286.560402 
L 234.086464 287.925398 
L 234.185197 286.560402 
L 234.382718 287.826126 
L 234.481397 287.081582 
L 234.678918 287.776489 
L 234.975118 287.056764 
L 235.172585 287.702035 
L 235.370106 287.156037 
L 235.468839 288.123943 
L 235.567573 287.429036 
L 235.666306 288.02467 
L 235.765039 285.840677 
L 235.863773 287.850944 
L 235.962506 287.230491 
L 236.06124 287.850944 
L 236.159973 286.98231 
L 236.25876 288.198397 
L 236.456227 287.255309 
L 236.554961 287.726853 
L 236.653694 287.329763 
L 236.851161 287.652399 
L 236.949894 286.684493 
L 237.147415 287.329763 
L 237.246148 287.180855 
L 237.344882 286.783765 
L 237.443615 287.180855 
L 237.542348 286.883038 
L 237.641082 287.429036 
L 237.838549 286.46113 
L 237.937336 287.180855 
L 238.036015 287.131219 
L 238.233536 286.088858 
L 238.431003 287.304945 
L 238.62847 286.138494 
L 238.727203 286.436312 
L 238.82599 287.1064 
L 239.023403 286.436312 
L 239.220924 287.925398 
L 239.418391 286.138494 
L 239.517124 286.262585 
L 239.714591 287.478672 
L 239.813378 287.429036 
L 239.912112 286.957492 
L 240.010845 286.98231 
L 240.109578 287.180855 
L 240.208312 286.659675 
L 240.307045 287.230491 
L 240.504512 286.386675 
L 240.603245 286.957492 
L 240.701979 286.634856 
L 240.800766 285.691768 
L 240.998233 286.858219 
L 241.1957 286.06404 
L 241.294433 286.138494 
L 241.393166 285.245042 
L 241.4919 285.294679 
L 241.886887 286.709311 
L 242.084354 285.220224 
L 242.183088 286.014404 
L 242.281821 285.691768 
L 242.578021 286.634856 
L 242.676809 286.808583 
L 242.775542 285.393951 
L 242.874275 286.163312 
L 242.973009 285.66695 
L 243.071742 286.18813 
L 243.170475 285.26986 
L 243.269209 286.287403 
L 243.46673 285.890313 
L 243.664196 286.138494 
L 244.157863 284.301954 
L 244.256597 285.493223 
L 244.355384 284.972043 
L 244.552851 285.468405 
L 244.849051 284.897589 
L 245.046518 285.741405 
L 245.145251 284.798316 
L 245.243985 285.691768 
L 245.342772 284.674226 
L 245.441505 284.847953 
L 245.540239 284.326772 
L 245.638972 284.872771 
L 245.836439 283.731138 
L 246.033906 285.14577 
L 246.132639 284.053773 
L 246.428893 284.326772 
L 246.62636 283.681502 
L 246.725093 284.674226 
L 246.92256 282.688777 
L 247.21876 284.202682 
L 247.317548 284.301954 
L 247.416281 284.153046 
L 247.515014 283.011413 
L 247.613748 283.30923 
L 247.811215 282.217233 
L 248.008735 283.582229 
L 248.107469 283.185139 
L 248.206202 282.068324 
L 248.304936 283.43332 
L 248.502402 282.91214 
L 248.601136 282.812868 
L 248.699869 281.447872 
L 248.798602 282.986594 
L 248.996123 280.95151 
L 249.19359 279.611332 
L 249.292323 278.593789 
L 249.391057 279.387969 
L 249.48979 279.015697 
L 249.884778 282.639141 
L 250.082245 281.720871 
L 250.180978 281.373417 
L 250.674645 283.43332 
L 250.773378 283.085867 
L 250.872166 284.277136 
L 250.970899 283.085867 
L 251.069632 284.153046 
L 251.168366 283.209957 
L 251.267099 284.500499 
L 251.365833 284.103409 
L 251.563353 285.046497 
L 251.662033 285.691768 
L 251.760766 283.755956 
L 251.859554 284.128227 
L 251.958287 284.028955 
L 252.05702 285.393951 
L 252.155754 284.301954 
L 252.35322 285.592496 
L 252.451954 283.979319 
L 252.550741 285.294679 
L 252.748154 284.35159 
L 253.044408 285.220224 
L 253.241875 283.631865 
L 253.439342 286.014404 
L 253.538129 284.004137 
L 253.735596 285.071316 
L 253.834329 284.996861 
L 253.933063 283.979319 
L 254.229263 285.493223 
L 254.327996 285.14577 
L 254.525517 283.929683 
L 254.62425 284.028955 
L 254.722984 285.021679 
L 254.821717 284.599772 
L 254.92045 284.699044 
L 255.019184 285.741405 
L 255.117917 284.599772 
L 255.216651 285.518042 
L 255.315384 284.426045 
L 255.414171 285.26986 
L 255.512905 284.153046 
L 255.710372 284.773498 
L 255.809105 283.929683 
L 256.006572 284.823135 
L 256.105305 284.475681 
L 256.204038 284.525317 
L 256.302772 284.426045 
L 256.401559 285.021679 
L 256.500293 284.947225 
L 256.599026 284.053773 
L 256.697759 285.418769 
L 256.796493 283.780774 
L 256.895226 284.972043 
L 256.99396 284.699044 
L 257.092747 284.74868 
L 257.388947 283.929683 
L 257.487681 284.053773 
L 257.586414 284.996861 
L 257.685147 284.947225 
L 257.981402 284.053773 
L 258.080135 284.500499 
L 258.376281 283.780774 
L 258.475068 284.823135 
L 258.573802 284.326772 
L 258.672535 284.972043 
L 258.771269 283.880046 
L 258.870002 284.872771 
L 258.968789 283.780774 
L 259.067523 284.599772 
L 259.166256 284.252318 
L 259.26499 282.961776 
L 259.363723 283.929683 
L 259.462456 283.681502 
L 259.56119 284.401227 
L 259.659923 284.128227 
L 259.758656 284.277136 
L 259.956177 283.880046 
L 260.054911 284.202682 
L 260.351111 283.656683 
L 260.449844 283.805592 
L 260.548577 283.83041 
L 260.746044 283.607047 
L 260.943565 284.649408 
L 261.042298 283.532593 
L 261.239765 284.401227 
L 261.338499 284.103409 
L 261.535965 285.120952 
L 261.634699 284.004137 
L 261.733432 284.078591 
L 261.930953 283.334048 
L 262.029686 283.582229 
L 262.12842 283.507775 
L 262.227153 283.631865 
L 262.42462 284.2275 
L 262.523353 283.656683 
L 262.622087 284.252318 
L 262.72082 283.532593 
L 262.819607 284.277136 
L 263.115808 283.160321 
L 263.214541 283.880046 
L 263.313274 283.085867 
L 263.412008 283.681502 
L 263.609474 282.663959 
L 263.806995 283.383684 
L 263.905729 283.30923 
L 264.004462 282.291687 
L 264.201929 284.277136 
L 264.300662 282.78805 
L 264.399396 284.053773 
L 264.596862 282.564687 
L 264.69565 283.681502 
L 264.794383 282.51505 
L 264.893117 284.500499 
L 264.99185 282.837686 
L 265.090583 284.401227 
L 265.28805 282.465414 
L 265.58425 283.880046 
L 265.781771 282.018688 
L 265.880504 282.887322 
L 265.979238 282.39096 
L 266.077971 283.582229 
L 266.176759 282.564687 
L 266.275492 283.855228 
L 266.374171 282.490232 
L 266.571692 283.731138 
L 266.769159 282.713595 
L 266.867892 283.43332 
L 267.065413 282.018688 
L 267.164146 283.681502 
L 267.26288 282.887322 
L 267.361559 283.43332 
L 267.460293 283.036231 
L 267.55908 283.135503 
L 267.756547 282.713595 
L 267.85528 283.234776 
L 267.954013 282.936958 
L 268.052801 283.209957 
L 268.151534 282.688777 
L 268.250268 283.507775 
L 268.349001 282.117961 
L 268.44768 282.713595 
L 268.546468 282.142779 
L 268.743935 283.110685 
L 268.842668 281.86978 
L 268.941401 282.465414 
L 269.040189 281.646417 
L 269.138922 281.795325 
L 269.237656 283.234776 
L 269.435122 282.266869 
L 269.632589 282.812868 
L 269.830056 282.415778 
L 269.928843 282.117961 
L 270.027577 282.713595 
L 270.12631 284.028955 
L 270.225043 282.564687 
L 270.323777 283.061049 
L 270.521244 281.969052 
L 270.71871 282.589505 
L 270.817444 282.068324 
L 270.916231 282.986594 
L 271.113698 281.59678 
L 271.311165 282.887322 
L 271.409898 282.490232 
L 271.508631 283.110685 
L 271.607365 282.614323 
L 271.706098 282.663959 
L 272.101086 281.447872 
L 272.199819 283.234776 
L 272.298553 282.142779 
L 272.496019 282.78805 
L 272.594753 282.093143 
L 272.693486 282.78805 
L 272.891007 282.291687 
L 272.98974 282.068324 
L 273.088474 282.812868 
L 273.187207 282.614323 
L 273.28594 281.894598 
L 273.483407 282.639141 
L 273.582141 283.061049 
L 273.779661 282.117961 
L 273.977128 282.713595 
L 274.075861 282.614323 
L 274.174595 282.316506 
L 274.372062 283.110685 
L 274.470795 281.696053 
L 274.569528 282.663959 
L 274.668262 282.043506 
L 274.767049 282.192415 
L 274.964516 281.298963 
L 275.063249 282.341324 
L 275.161983 280.926691 
L 275.26077 282.564687 
L 275.458183 281.174873 
L 275.556916 282.961776 
L 275.754437 282.366142 
L 275.85317 282.440596 
L 275.951904 281.224509 
L 276.050637 282.713595 
L 276.149371 281.745689 
L 276.248158 281.820143 
L 276.346891 281.844961 
L 276.445625 282.291687 
L 276.544304 281.298963 
L 276.643037 282.341324 
L 276.741825 281.125236 
L 276.840558 282.142779 
L 276.939292 281.001146 
L 277.038025 282.663959 
L 277.136813 280.455147 
L 277.334279 282.291687 
L 277.433013 282.068324 
L 277.630479 280.926691 
L 277.827946 282.217233 
L 277.92668 281.844961 
L 278.1242 282.068324 
L 278.222934 282.217233 
L 278.321667 280.802601 
L 278.420401 281.571962 
L 278.519134 281.47269 
L 278.617867 280.653692 
L 278.716601 282.217233 
L 278.815334 280.55442 
L 278.914067 282.539869 
L 279.012801 281.298963 
L 279.111588 281.447872 
L 279.309055 282.39096 
L 279.506522 280.926691 
L 279.605255 281.671235 
L 279.703989 281.423054 
L 279.802722 280.306239 
L 279.901455 280.479966 
L 280.000189 280.926691 
L 280.098976 281.944234 
L 280.19771 280.380693 
L 280.296443 280.777783 
L 280.395176 280.728147 
L 280.49391 280.479966 
L 280.79011 281.348599 
L 280.888843 280.628874 
L 280.987631 281.47269 
L 281.086364 281.398236 
L 281.185097 278.370426 
L 281.283831 281.59678 
L 281.481297 280.752965 
L 281.580031 281.398236 
L 281.777498 279.139788 
L 281.876231 280.430329 
L 281.975018 279.834695 
L 282.172485 280.058058 
L 282.369952 281.174873 
L 282.666152 279.090151 
L 282.764885 279.586514 
L 282.863619 279.412787 
L 282.962406 279.884331 
L 283.159873 279.487241 
L 283.258606 280.752965 
L 283.456073 279.065333 
L 283.554807 279.363151 
L 283.65354 277.9237 
L 283.851007 278.742698 
L 283.949794 277.650701 
L 284.048528 278.221518 
L 284.147261 277.203975 
L 284.245994 278.1967 
L 284.443515 276.782067 
L 284.542194 276.757249 
L 284.640928 276.558704 
L 284.739661 277.625883 
L 284.838449 274.64771 
L 284.937182 276.36016 
L 285.134649 274.796619 
L 285.233382 274.076894 
L 285.33217 275.739707 
L 285.529636 273.456441 
L 285.628316 273.481259 
L 285.727049 274.523619 
L 285.825837 274.225802 
L 285.92457 271.470992 
L 286.023303 272.389262 
L 286.122037 270.428632 
L 286.22077 270.924994 
L 286.813224 263.75256 
L 286.911958 263.802197 
L 287.109425 267.227096 
L 287.208158 267.500095 
L 287.504412 269.411089 
L 287.603145 269.212544 
L 287.899346 270.726449 
L 287.998079 269.708906 
L 288.096812 270.05636 
L 288.4918 273.555713 
L 288.590533 272.835988 
L 288.886733 275.019982 
L 289.0842 273.903167 
L 289.182988 274.945527 
L 289.281721 274.548438 
L 289.380454 276.608341 
L 289.479188 275.094436 
L 289.577921 275.193708 
L 289.676655 275.218527 
L 289.874121 276.732431 
L 289.972855 276.260887 
L 290.071588 277.625883 
L 290.170376 277.551429 
L 290.269109 277.328066 
L 290.466576 278.767516 
L 290.565309 277.551429 
L 290.664042 278.494517 
L 290.762776 277.00543 
L 291.058976 279.090151 
L 291.157763 279.313514 
L 291.256497 278.990879 
L 291.453964 279.909149 
L 291.552697 279.23906 
L 291.65143 280.107694 
L 291.750164 279.884331 
L 291.94763 280.405511 
L 292.046418 280.107694 
L 292.145151 279.214242 
L 292.441351 280.752965 
L 292.540085 280.231784 
L 292.638818 280.777783 
L 292.737552 279.933967 
L 292.836285 280.430329 
L 293.033806 279.189424 
L 293.231273 280.058058 
L 293.330006 279.338333 
L 293.527527 281.224509 
L 293.626206 280.95151 
L 293.724939 280.132512 
L 293.823673 280.604056 
L 293.922406 280.132512 
L 294.021194 281.398236 
L 294.119927 279.23906 
L 294.317394 281.894598 
L 294.514915 280.703328 
L 294.613648 281.298963 
L 294.712327 281.050782 
L 294.811061 280.380693 
L 294.909848 281.025964 
L 295.107315 280.082876 
L 295.206048 280.479966 
L 295.304782 282.192415 
L 295.502302 281.249327 
L 295.699715 280.976328 
L 295.798448 281.621599 
L 295.897236 281.497508 
L 295.995969 280.604056 
L 296.193436 280.976328 
L 296.292169 280.628874 
L 296.48969 281.398236 
L 296.588424 280.082876 
L 296.687157 281.646417 
L 296.785836 280.877055 
L 296.884624 281.944234 
L 297.082091 280.579238 
L 297.180824 280.852237 
L 297.279557 280.852237 
L 297.378345 279.809877 
L 297.477078 281.373417 
L 297.575812 280.306239 
L 297.674545 281.0756 
L 297.773278 279.958785 
L 297.872012 281.522326 
L 298.069478 281.001146 
L 298.168212 280.926691 
L 298.266999 281.323781 
L 298.365733 280.653692 
L 298.563199 281.770507 
L 298.661933 280.67851 
L 298.760666 281.547144 
L 298.8594 280.752965 
L 298.958133 281.398236 
L 299.056866 281.174873 
L 299.1556 281.447872 
L 299.254387 281.150054 
L 299.353121 279.785058 
L 299.451854 281.150054 
L 299.550587 280.827419 
L 299.649321 280.976328 
L 299.748054 280.256603 
L 299.846787 281.99387 
L 299.945521 280.479966 
L 300.044254 281.770507 
L 300.142988 280.703328 
L 300.241775 281.447872 
L 300.340508 280.579238 
L 300.439242 281.47269 
L 300.636709 280.55442 
L 300.735442 281.844961 
L 300.834175 281.050782 
L 300.932909 281.125236 
L 301.031642 280.703328 
L 301.130375 281.249327 
L 301.229163 281.174873 
L 301.327896 281.125236 
L 301.624096 280.008421 
L 301.821563 281.423054 
L 302.01903 280.182148 
L 302.117817 282.142779 
L 302.216551 280.15733 
L 302.512751 281.199691 
L 302.611538 281.125236 
L 302.710218 280.355875 
L 303.006418 281.944234 
L 303.105205 281.770507 
L 303.203939 281.150054 
L 303.302672 281.274145 
L 303.401405 282.614323 
L 303.598926 280.802601 
L 303.69766 280.95151 
L 303.796339 280.380693 
L 303.993806 281.199691 
L 304.191326 280.479966 
L 304.29006 281.323781 
L 304.388793 280.529602 
L 304.586314 281.844961 
L 304.685047 281.423054 
L 304.783781 282.266869 
L 304.981193 280.777783 
L 305.079981 281.150054 
L 305.178714 281.100418 
L 305.277448 281.199691 
L 305.376181 281.47269 
L 305.474969 280.256603 
L 305.573702 280.455147 
L 305.672435 281.820143 
L 305.771169 281.696053 
L 305.968635 280.55442 
L 306.067369 280.802601 
L 306.166102 281.47269 
L 306.264836 279.834695 
L 306.462356 281.150054 
L 306.56109 280.852237 
L 306.659823 281.745689 
L 306.85729 281.001146 
L 306.956023 280.628874 
L 307.15349 281.323781 
L 307.252223 281.47269 
L 307.350957 280.15733 
L 307.449744 281.671235 
L 307.647211 280.455147 
L 307.745944 280.15733 
L 307.844678 281.671235 
L 308.140878 279.710604 
L 308.239611 281.199691 
L 308.338345 279.909149 
L 308.437132 280.95151 
L 308.634599 280.355875 
L 308.733332 280.777783 
L 308.832066 281.919416 
L 309.128266 280.479966 
L 309.226999 279.090151 
L 309.42452 280.901873 
L 309.523253 280.827419 
L 309.621987 281.224509 
L 309.819453 280.455147 
L 309.918187 280.703328 
L 310.01692 282.018688 
L 310.214387 280.901873 
L 310.510641 279.933967 
L 310.609375 280.479966 
L 310.708108 280.281421 
L 310.806841 281.47269 
L 311.004308 280.976328 
L 311.103041 281.47269 
L 311.201775 280.728147 
L 311.300562 281.770507 
L 311.399296 281.298963 
L 311.498029 279.983603 
L 311.596762 281.199691 
L 311.695496 280.380693 
L 311.794229 281.571962 
L 311.892963 279.958785 
L 311.991696 281.621599 
L 312.090429 280.182148 
L 312.189163 281.571962 
L 312.28795 281.274145 
L 312.485417 280.430329 
L 312.58415 280.182148 
L 312.781671 280.653692 
L 312.979084 282.291687 
L 313.472805 279.611332 
L 313.571538 281.373417 
L 313.867792 280.256603 
L 314.065205 281.547144 
L 314.163993 280.380693 
L 314.361459 280.852237 
L 314.460193 280.058058 
L 314.657713 280.877055 
L 314.756447 280.579238 
L 314.85518 280.703328 
L 314.95386 280.455147 
L 315.052593 280.728147 
L 315.15138 280.306239 
L 315.250114 280.852237 
L 315.44758 279.561696 
L 315.546314 281.224509 
L 315.842568 279.214242 
L 315.941301 280.430329 
L 316.237502 279.735422 
L 316.336235 280.703328 
L 316.533756 280.082876 
L 316.731223 280.355875 
L 316.829956 279.487241 
L 316.928689 280.380693 
L 317.027423 278.891607 
L 317.323623 279.834695 
L 317.422356 281.050782 
L 317.71861 278.966061 
L 317.817344 279.660968 
L 317.916077 277.700337 
L 318.014811 278.643425 
L 318.113544 278.1967 
L 318.212277 278.519335 
L 318.311011 278.047791 
L 318.409744 276.509068 
L 318.508532 278.668244 
L 318.607265 277.898882 
L 318.705998 277.948518 
L 318.804732 278.767516 
L 318.903465 278.544153 
L 319.002198 277.551429 
L 319.100932 278.345608 
L 319.298399 277.998155 
L 319.397132 278.916425 
L 319.495919 277.303248 
L 319.594653 279.983603 
L 319.693386 278.84197 
L 319.79212 279.660968 
L 319.890853 278.469699 
L 320.384574 280.95151 
L 320.483307 279.015697 
L 320.680774 279.63615 
L 320.878241 279.412787 
L 320.976974 280.901873 
L 321.174441 278.866788 
L 321.371962 280.306239 
L 321.470695 280.55442 
L 321.569429 281.249327 
L 321.668162 280.132512 
L 321.766895 280.455147 
L 321.865683 279.387969 
L 321.964362 280.802601 
L 322.063095 280.55442 
L 322.161829 281.050782 
L 322.260562 280.008421 
L 322.35935 280.95151 
L 322.458083 280.529602 
L 322.65555 281.47269 
L 322.754283 280.206966 
L 322.853071 280.306239 
L 323.050483 279.685786 
L 323.149217 279.76024 
L 323.346737 280.901873 
L 323.544204 280.380693 
L 323.642938 280.355875 
L 323.741725 278.370426 
L 323.939192 280.728147 
L 324.037871 280.380693 
L 324.136604 279.387969 
L 324.235392 279.462423 
L 324.334125 280.331057 
L 324.432859 279.189424 
L 324.531592 280.281421 
L 324.630325 279.884331 
L 324.729113 278.941243 
L 324.827846 279.561696 
L 325.025313 278.097427 
L 325.123992 279.090151 
L 325.22278 277.749974 
L 325.321513 279.11497 
L 325.420247 276.930976 
L 325.51898 277.27843 
L 325.617713 277.104703 
L 325.815234 275.243345 
L 325.913968 276.111978 
L 326.012701 275.863797 
L 326.111434 277.40252 
L 326.210168 275.292981 
L 326.407634 276.633159 
L 326.506368 276.459432 
L 326.605155 278.469699 
L 326.703889 277.849246 
L 326.802622 278.1967 
L 326.901355 279.313514 
L 327.098822 278.395244 
L 327.197556 278.990879 
L 327.296289 278.370426 
L 327.395022 279.164606 
L 327.592543 278.668244 
L 327.888743 280.455147 
L 328.08621 280.728147 
L 328.184943 280.107694 
L 328.283677 281.174873 
L 328.38241 280.67851 
L 328.481144 281.274145 
L 328.579931 281.249327 
L 328.777398 280.306239 
L 328.876131 281.323781 
L 328.974864 281.050782 
L 329.073598 282.142779 
L 329.271065 281.621599 
L 329.369798 281.671235 
L 329.468531 280.877055 
L 329.567319 281.944234 
L 329.666052 281.795325 
L 329.764786 281.274145 
L 329.863519 281.298963 
L 329.962252 280.901873 
L 330.060986 282.167597 
L 330.159719 281.621599 
L 330.258452 283.135503 
L 330.357186 280.703328 
L 330.455973 281.050782 
L 330.554707 280.107694 
L 330.752173 281.59678 
L 330.850907 281.249327 
L 331.048374 281.99387 
L 331.344574 280.95151 
L 331.443361 282.192415 
L 331.542095 281.298963 
L 331.640828 281.745689 
L 331.739561 281.497508 
L 331.937082 281.770507 
L 332.035816 281.050782 
L 332.134495 282.490232 
L 332.233228 282.043506 
L 332.331962 282.291687 
L 332.430749 281.99387 
L 332.529482 282.117961 
L 332.628216 282.539869 
L 332.825683 281.423054 
L 332.92447 282.266869 
L 333.023203 281.323781 
L 333.121937 282.167597 
L 333.220616 282.093143 
L 333.319349 281.969052 
L 333.418137 281.323781 
L 333.51687 281.522326 
L 333.615604 281.0756 
L 333.813125 282.51505 
L 334.109325 280.976328 
L 334.208004 282.341324 
L 334.306791 282.068324 
L 334.504258 281.373417 
L 334.602992 282.266869 
L 334.701725 282.142779 
L 334.800512 281.274145 
L 334.899246 281.99387 
L 334.997979 281.969052 
L 335.096713 282.291687 
L 335.294179 280.802601 
L 335.491646 281.770507 
L 335.689113 282.862504 
L 335.886634 281.646417 
L 335.985367 281.59678 
L 336.0841 282.217233 
L 336.3803 281.770507 
L 336.676501 283.334048 
L 336.775288 283.30923 
L 336.874021 281.547144 
L 336.972755 281.696053 
L 337.071488 281.100418 
L 337.367688 282.78805 
L 337.565155 281.547144 
L 337.663943 281.199691 
L 337.762676 282.465414 
L 337.861409 281.571962 
L 337.960143 282.465414 
L 338.058876 281.001146 
L 338.157609 281.969052 
L 338.256343 281.696053 
L 338.45381 283.036231 
L 338.552543 281.894598 
L 338.65133 282.415778 
L 338.750064 281.86978 
L 338.848797 282.887322 
L 338.947531 281.894598 
L 339.144997 282.936958 
L 339.243731 281.621599 
L 339.342464 281.820143 
L 339.441197 281.274145 
L 339.539931 281.348599 
L 339.638718 282.117961 
L 339.737452 281.497508 
L 339.934918 282.316506 
L 340.033652 281.844961 
L 340.329852 283.085867 
L 340.527319 281.894598 
L 340.626106 282.266869 
L 340.72484 281.0756 
L 340.823573 282.763232 
L 341.021094 281.621599 
L 341.119827 282.837686 
L 341.218506 282.51505 
L 341.31724 281.001146 
L 341.415973 282.663959 
L 341.613494 281.86978 
L 341.712227 281.770507 
L 341.909694 282.78805 
L 342.008482 281.522326 
L 342.107215 282.316506 
L 342.205948 281.844961 
L 342.304628 282.91214 
L 342.403361 282.614323 
L 342.502148 282.738413 
L 342.600882 281.199691 
L 342.699615 282.440596 
L 342.798349 282.341324 
L 342.897082 281.944234 
L 342.995869 282.812868 
L 343.193336 281.174873 
L 343.292015 281.547144 
L 343.390749 282.366142 
L 343.58827 281.696053 
L 343.687003 282.266869 
L 343.88447 281.99387 
L 343.983257 282.763232 
L 344.180724 281.497508 
L 344.476924 282.614323 
L 344.575658 282.663959 
L 344.871912 282.068324 
L 344.970645 281.894598 
L 345.266845 283.185139 
L 345.365579 281.919416 
L 345.464312 283.036231 
L 345.563045 282.39096 
L 345.661779 282.663959 
L 345.8593 282.018688 
L 345.958033 281.844961 
L 346.254233 282.738413 
L 346.352967 281.944234 
L 346.550433 283.334048 
L 346.649167 282.440596 
L 346.7479 282.490232 
L 346.846688 282.440596 
L 346.945421 282.78805 
L 347.044154 282.117961 
L 347.142888 282.490232 
L 347.340354 281.969052 
L 347.439088 282.91214 
L 347.537821 281.820143 
L 347.636555 282.341324 
L 347.735288 281.298963 
L 347.932809 282.440596 
L 348.031542 282.117961 
L 348.130276 282.266869 
L 348.229009 282.812868 
L 348.327742 282.341324 
L 348.426476 282.39096 
L 348.525209 281.944234 
L 348.623942 282.837686 
L 348.72273 281.86978 
L 348.821463 281.894598 
L 349.01893 283.085867 
L 349.216397 281.671235 
L 349.31513 282.51505 
L 349.413864 282.266869 
L 349.512597 282.713595 
L 349.61133 282.142779 
L 349.710118 282.986594 
L 349.808851 282.614323 
L 349.907584 283.185139 
L 350.006318 282.291687 
L 350.105051 282.39096 
L 350.203839 283.259594 
L 350.302518 281.323781 
L 350.401251 282.738413 
L 350.499985 282.415778 
L 350.598718 283.185139 
L 350.697506 282.887322 
L 350.796239 283.482957 
L 350.894972 282.167597 
L 350.993706 282.91214 
L 351.191227 281.323781 
L 351.28996 282.366142 
L 351.487373 282.266869 
L 351.58616 282.738413 
L 351.783627 282.415778 
L 351.88236 283.085867 
L 351.981094 282.217233 
L 352.079881 283.135503 
L 352.178614 282.39096 
L 352.376027 283.085867 
L 352.573548 281.919416 
L 352.672281 281.398236 
L 352.869748 283.383684 
L 353.067269 282.242051 
L 353.264736 283.160321 
L 353.363469 281.894598 
L 353.560936 282.713595 
L 353.659669 282.217233 
L 353.758403 282.341324 
L 353.857136 281.770507 
L 353.955869 282.91214 
L 354.054657 281.621599 
L 354.15339 282.812868 
L 354.252124 282.763232 
L 354.350857 282.018688 
L 354.44959 282.51505 
L 354.548324 281.944234 
L 354.74579 282.242051 
L 354.844524 281.59678 
L 355.042045 283.160321 
L 355.140778 283.234776 
L 355.239511 281.745689 
L 355.436978 282.440596 
L 355.535712 281.919416 
L 355.634445 283.135503 
L 355.733178 281.86978 
L 355.831912 282.78805 
L 355.930699 281.447872 
L 356.029432 281.621599 
L 356.128166 282.837686 
L 356.325633 282.018688 
L 356.424366 282.192415 
L 356.523099 282.490232 
L 356.621833 283.234776 
L 356.720566 281.547144 
L 356.819299 282.018688 
L 356.918087 281.795325 
L 357.115554 282.564687 
L 357.214287 283.458139 
L 357.411754 282.018688 
L 357.510487 282.217233 
L 357.609221 281.99387 
L 357.707954 282.564687 
L 357.806687 282.341324 
L 357.905475 283.185139 
L 358.004208 283.135503 
L 358.102942 283.085867 
L 358.201675 282.117961 
L 358.300408 283.383684 
L 358.399142 281.770507 
L 358.497875 282.837686 
L 358.596608 281.720871 
L 358.794129 283.036231 
L 358.892863 282.192415 
L 358.991596 282.266869 
L 359.090329 283.110685 
L 359.189063 282.39096 
L 359.28785 282.738413 
L 359.485263 281.522326 
L 359.583996 282.936958 
L 359.781517 282.266869 
L 359.978984 282.688777 
L 360.077717 283.507775 
L 360.176451 281.820143 
L 360.373972 283.408502 
L 360.472651 282.738413 
L 360.571384 282.961776 
L 360.768905 281.423054 
L 360.966372 283.731138 
L 361.065105 283.70632 
L 361.163839 283.30923 
L 361.262626 283.482957 
L 361.361359 282.291687 
L 361.460093 282.465414 
L 361.558772 283.458139 
L 361.657505 282.663959 
L 361.756293 283.880046 
L 361.855026 282.936958 
L 361.95376 283.780774 
L 362.15128 282.564687 
L 362.250014 282.763232 
L 362.447481 283.904864 
L 362.54616 282.862504 
L 362.842414 283.755956 
L 363.237402 282.837686 
L 363.336135 283.681502 
L 363.434868 283.358866 
L 363.533602 283.43332 
L 363.632335 282.465414 
L 363.829802 283.731138 
L 364.027269 283.954501 
L 364.126056 284.202682 
L 364.22479 282.837686 
L 364.422256 283.780774 
L 364.52099 283.43332 
L 364.718456 282.887322 
L 364.81719 283.036231 
L 364.915923 282.862504 
L 365.113444 283.458139 
L 365.212177 283.358866 
L 365.409644 283.135503 
L 365.508378 284.053773 
L 365.705844 282.663959 
L 365.804578 283.532593 
L 365.903311 282.961776 
L 366.100832 283.532593 
L 366.199565 283.209957 
L 366.298299 283.557411 
L 366.397032 283.284412 
L 366.495765 283.755956 
L 366.594499 283.731138 
L 366.693232 284.053773 
L 366.890699 283.234776 
L 366.989486 283.532593 
L 367.08822 282.738413 
L 367.186953 282.887322 
L 367.285687 282.589505 
L 367.38442 283.681502 
L 367.581887 283.234776 
L 367.68062 283.607047 
L 367.779353 282.961776 
L 367.878087 283.209957 
L 367.976874 282.812868 
L 368.075608 284.450863 
L 368.174341 283.43332 
L 368.273074 283.482957 
L 368.470541 282.713595 
L 368.569275 283.011413 
L 368.668008 284.103409 
L 368.865475 283.582229 
L 368.964262 284.028955 
L 369.062996 282.812868 
L 369.161729 283.755956 
L 369.260462 283.458139 
L 369.35925 283.954501 
L 369.457983 283.408502 
L 369.655396 283.582229 
L 369.754129 283.408502 
L 369.852917 283.979319 
L 369.95165 283.358866 
L 370.050383 283.607047 
L 370.149117 283.507775 
L 370.24785 284.674226 
L 370.445371 282.763232 
L 370.544104 283.607047 
L 370.642784 283.234776 
L 370.741517 284.525317 
L 370.939038 283.458139 
L 371.037771 283.681502 
L 371.136505 283.954501 
L 371.235238 283.631865 
L 371.531492 284.153046 
L 371.630171 283.036231 
L 371.827692 283.855228 
L 371.926426 283.70632 
L 372.025159 284.177864 
L 372.123892 283.160321 
L 372.222626 283.607047 
L 372.321413 283.408502 
L 372.51888 284.053773 
L 372.617613 283.284412 
L 372.716293 284.326772 
L 372.81508 283.011413 
L 372.913814 283.83041 
L 373.012547 283.70632 
L 373.11128 283.284412 
L 373.210068 284.450863 
L 373.407535 283.209957 
L 373.506268 283.259594 
L 373.802468 283.83041 
L 373.901201 284.574953 
L 374.197456 283.557411 
L 374.394922 283.880046 
L 374.592389 283.780774 
L 374.691123 282.961776 
L 374.789856 283.904864 
L 374.987323 281.696053 
L 375.086056 282.639141 
L 375.283577 281.547144 
L 375.481044 282.663959 
L 375.67851 282.639141 
L 375.875977 283.30923 
L 375.974711 282.639141 
L 376.172231 283.358866 
L 376.270965 282.341324 
L 376.567165 283.631865 
L 376.665898 283.383684 
L 376.764632 282.763232 
L 376.962098 284.277136 
L 377.159619 282.614323 
L 377.258353 283.979319 
L 377.357086 283.209957 
L 377.554553 284.326772 
L 377.653286 283.408502 
L 377.752019 284.177864 
L 377.949486 283.43332 
L 378.048274 284.35159 
L 378.147007 283.855228 
L 378.24574 284.674226 
L 378.443207 283.607047 
L 378.640674 284.773498 
L 378.739407 283.135503 
L 378.838141 284.897589 
L 378.936874 283.582229 
L 379.035662 285.493223 
L 379.134395 285.046497 
L 379.233128 283.681502 
L 379.331862 284.103409 
L 379.430595 284.078591 
L 379.529383 284.128227 
L 379.628116 283.731138 
L 379.825529 284.426045 
L 379.924316 284.35159 
L 380.121783 285.071316 
L 380.220516 283.880046 
L 380.418037 284.599772 
L 380.51677 284.277136 
L 380.615504 285.26986 
L 380.714183 284.599772 
L 380.812916 285.046497 
L 380.911704 284.326772 
L 381.010437 284.574953 
L 381.109171 283.805592 
L 381.207904 284.128227 
L 381.405425 286.039222 
L 381.602892 284.326772 
L 381.800304 284.74868 
L 381.899092 284.301954 
L 381.997825 285.14577 
L 382.096559 283.656683 
L 382.294025 284.74868 
L 382.392813 283.507775 
L 382.491546 285.220224 
L 382.689013 284.078591 
L 382.787746 285.14577 
L 382.985213 283.929683 
L 383.18268 284.475681 
L 383.380201 285.021679 
L 383.478934 285.046497 
L 383.577667 284.525317 
L 383.676401 285.071316 
L 383.775134 284.798316 
L 383.873867 283.110685 
L 383.972601 285.071316 
L 384.071334 283.954501 
L 384.170068 285.518042 
L 384.268855 284.326772 
L 384.367588 284.723862 
L 384.466322 285.66695 
L 384.565055 284.128227 
L 384.663789 285.344315 
L 384.762522 284.252318 
L 384.861255 284.922407 
L 384.959989 284.649408 
L 385.157455 284.972043 
L 385.256243 284.674226 
L 385.354976 284.897589 
L 385.45371 284.202682 
L 385.552443 284.277136 
L 385.651176 285.096134 
L 385.848643 284.35159 
L 385.947377 284.550135 
L 386.04611 284.872771 
L 386.144843 284.028955 
L 386.243631 285.14577 
L 386.342364 284.550135 
L 386.441098 284.798316 
L 386.539831 283.855228 
L 386.737298 284.773498 
L 386.836031 284.649408 
L 386.934764 284.078591 
L 387.033498 284.252318 
L 387.231019 285.518042 
L 387.329752 285.393951 
L 387.428485 284.897589 
L 387.527219 285.518042 
L 387.626006 284.599772 
L 387.724686 284.897589 
L 387.823419 283.929683 
L 388.020886 285.26986 
L 388.119673 286.039222 
L 388.31714 284.62459 
L 388.415873 284.450863 
L 388.514607 284.599772 
L 388.613394 284.2275 
L 388.712128 285.865495 
L 388.810807 283.904864 
L 388.90954 285.319497 
L 389.008274 284.525317 
L 389.107061 284.699044 
L 389.205794 285.170588 
L 389.304528 284.450863 
L 389.501995 285.319497 
L 389.600782 285.840677 
L 389.798249 284.401227 
L 389.896928 285.840677 
L 389.995661 284.301954 
L 390.094449 285.915131 
L 390.193182 283.557411 
L 390.390649 285.294679 
L 390.489436 284.550135 
L 390.58817 285.840677 
L 390.686903 285.220224 
L 390.785637 285.691768 
L 390.884316 285.220224 
L 391.081837 285.915131 
L 391.279303 285.840677 
L 391.378037 285.245042 
L 391.476824 285.617314 
L 391.773024 284.972043 
L 391.871758 285.54286 
L 391.970491 284.301954 
L 392.069225 284.996861 
L 392.167958 284.326772 
L 392.266691 285.54286 
L 392.365425 285.393951 
L 392.562946 285.890313 
L 392.661679 285.418769 
L 392.760412 285.617314 
L 392.957879 284.103409 
L 393.056612 285.418769 
L 393.254079 284.62459 
L 393.352813 285.691768 
L 393.4516 285.344315 
L 393.550333 285.617314 
L 393.7478 284.574953 
L 393.846534 285.369133 
L 393.945267 284.897589 
L 394.044 286.485948 
L 394.142734 284.947225 
L 394.241467 284.972043 
L 394.340255 285.14577 
L 394.438988 285.915131 
L 394.636455 284.922407 
L 394.735188 285.096134 
L 394.833921 285.54286 
L 394.932655 284.922407 
L 395.130122 285.989586 
L 395.327642 287.180855 
L 395.426376 285.046497 
L 395.623843 285.989586 
L 395.722576 285.915131 
L 395.821309 285.26986 
L 395.920043 286.858219 
L 396.117509 285.26986 
L 396.216243 285.26986 
L 396.31503 285.939949 
L 396.413764 285.741405 
L 396.512497 284.674226 
L 396.709964 286.014404 
L 396.808697 285.617314 
L 396.907431 285.096134 
L 397.006164 285.915131 
L 397.203631 285.66695 
L 397.401151 285.741405 
L 397.499885 285.617314 
L 397.598618 285.096134 
L 397.697406 286.386675 
L 397.894818 285.14577 
L 397.993552 285.195406 
L 398.191073 285.840677 
L 398.289806 285.021679 
L 398.388539 285.691768 
L 398.487273 285.567678 
L 398.487273 285.567678 
" clip-path="url(#p6ff6c3291d)" style="fill: none; stroke: #1f77b4; stroke-width: 1.5; stroke-linecap: square"/>
   </g>
   <g id="line2d_15">
    <path d="M 73.832727 295.465687 
L 104.540592 295.320162 
L 112.143549 295.08806 
L 115.895634 294.772094 
L 118.16661 294.382096 
L 119.548985 293.953317 
L 120.338906 293.485501 
L 120.832573 292.958066 
L 121.326294 292.068075 
L 121.819961 290.592761 
L 122.313682 288.298377 
L 122.906136 284.29472 
L 124.387191 272.991026 
L 124.683391 272.433512 
L 124.880912 272.612354 
L 125.177112 273.599295 
L 125.670779 276.581479 
L 127.546876 289.521137 
L 128.139276 291.656452 
L 128.632997 292.722653 
L 129.225397 293.44955 
L 129.916585 293.89451 
L 131.00276 294.263819 
L 132.878748 294.634648 
L 135.643499 294.945429 
L 139.889251 295.17681 
L 147.39342 295.331189 
L 163.882868 295.40408 
L 194.097066 295.317569 
L 200.910102 295.103294 
L 205.847041 294.727295 
L 219.078125 293.526552 
L 222.435222 293.605967 
L 226.483561 293.940474 
L 236.159973 294.824563 
L 241.393166 295.009851 
L 249.48979 295.041755 
L 316.434968 294.898416 
L 363.928535 295.171695 
L 398.487273 295.359963 
L 398.487273 295.359963 
" clip-path="url(#p6ff6c3291d)" style="fill: none; stroke: #ff7f0e; stroke-width: 1.5; stroke-linecap: square"/>
   </g>
   <g id="line2d_16">
    <path d="M 73.832727 295.447457 
L 92.691938 295.282267 
L 95.950302 295.134542 
L 96.64149 294.872582 
L 97.727611 294.11549 
L 98.320065 293.868254 
L 98.813732 293.795615 
L 99.50492 294.534069 
L 100.196108 294.959114 
L 100.986029 295.155307 
L 102.467083 295.203678 
L 109.477586 295.120111 
L 112.439749 294.887501 
L 114.019592 294.571953 
L 114.809513 294.233784 
L 115.204446 293.881706 
L 115.500701 293.396699 
L 115.796901 292.528683 
L 116.093101 290.968769 
L 116.389355 288.239537 
L 116.685555 283.683151 
L 117.080489 273.381092 
L 117.475476 256.53181 
L 117.969143 224.29275 
L 118.561597 167.816799 
L 119.647719 56.883283 
L 119.746452 54.636354 
L 119.845185 55.324964 
L 120.042706 66.284237 
L 120.338906 102.66601 
L 121.326294 240.329021 
L 121.721228 267.590672 
L 122.116215 281.623139 
L 122.511149 288.314293 
L 122.906136 291.397026 
L 123.30107 292.793701 
L 123.696004 293.431612 
L 124.189724 293.770886 
L 124.683391 293.846087 
L 125.177112 293.712807 
L 125.670779 293.374527 
L 125.967033 292.959354 
L 126.361967 291.923473 
L 126.658221 291.362776 
L 126.855688 291.836465 
L 127.448142 293.903566 
L 127.843076 294.431844 
L 128.336743 294.681787 
L 129.422918 294.918985 
L 131.59516 295.141648 
L 135.643499 295.298307 
L 144.628723 295.375343 
L 167.437486 295.305882 
L 205.452108 295.206254 
L 244.454118 295.228589 
L 245.243985 294.892741 
L 246.725093 294.146076 
L 247.120027 294.124208 
L 249.391057 295.324707 
L 250.477178 295.41741 
L 256.796493 295.441568 
L 316.138768 295.454091 
L 316.829956 295.330454 
L 317.224889 295.055141 
L 317.71861 294.397244 
L 318.212277 293.765668 
L 318.508532 293.693658 
L 318.804732 293.918032 
L 319.989586 295.26308 
L 320.384574 295.423921 
L 321.371962 295.463271 
L 398.487273 295.488 
L 398.487273 295.488 
" clip-path="url(#p6ff6c3291d)" style="fill: none; stroke: #2ca02c; stroke-width: 1.5; stroke-linecap: square"/>
   </g>
   <g id="line2d_17">
    <path d="M 73.832727 295.468447 
L 96.444023 295.331036 
L 97.036423 295.124516 
L 97.431411 294.748208 
L 97.826344 294.033147 
L 98.320065 292.561561 
L 98.813732 290.378098 
L 99.109986 288.233216 
L 99.998587 279.812746 
L 100.196108 281.966717 
L 100.986029 292.288525 
L 101.282229 293.850403 
L 101.677162 294.724383 
L 102.07215 295.066613 
L 102.664604 295.225483 
L 103.948192 295.224414 
L 107.404077 294.989448 
L 109.280119 294.662698 
L 110.36624 294.275986 
L 111.057374 293.832471 
L 111.649828 293.167088 
L 112.143549 292.205768 
L 112.538483 290.962192 
L 112.93347 289.021417 
L 113.328404 285.921676 
L 113.723392 280.64937 
L 114.019592 273.737553 
L 114.315792 261.047687 
L 114.611992 234.989507 
L 115.105713 167.579991 
L 115.204446 172.814673 
L 115.994367 263.460009 
L 116.290568 275.367539 
L 116.685555 282.970633 
L 117.179222 287.799864 
L 117.672943 290.426486 
L 118.16661 291.928803 
L 118.660331 292.792282 
L 119.252785 293.352155 
L 119.845185 293.619992 
L 120.635107 293.713184 
L 121.425028 293.581103 
L 122.116215 293.263399 
L 122.708616 292.771585 
L 123.202337 292.090205 
L 123.59727 291.179671 
L 123.992258 289.554047 
L 124.288458 287.437699 
L 124.683391 282.605998 
L 125.078379 274.680425 
L 125.5721 259.615093 
L 125.967033 239.703327 
L 126.658221 186.948383 
L 126.756955 187.318197 
L 126.954421 203.043164 
L 127.546876 265.061907 
L 127.843076 279.281679 
L 128.139276 285.703228 
L 128.534264 289.374933 
L 128.929197 291.130812 
L 129.422918 292.346089 
L 130.015318 293.201164 
L 130.706506 293.813679 
L 131.59516 294.29365 
L 132.780015 294.66545 
L 134.557324 294.962858 
L 137.420754 295.185816 
L 142.752681 295.342973 
L 155.292577 295.439811 
L 190.443715 295.448893 
L 191.134903 295.295019 
L 191.52989 294.982831 
L 191.924824 294.320038 
L 192.319811 293.183584 
L 193.702133 288.419731 
L 193.998333 289.335319 
L 195.578175 294.722187 
L 195.973163 295.179602 
L 196.46683 295.397964 
L 197.355484 295.465058 
L 207.525617 295.469353 
L 246.527627 295.34467 
L 247.120027 295.146938 
L 247.613748 294.726897 
L 248.107469 293.960295 
L 248.897336 292.173009 
L 249.19359 291.057885 
L 249.48979 289.400413 
L 249.983511 292.06955 
L 250.773378 293.907313 
L 251.365833 294.816847 
L 251.859554 295.194102 
L 252.451954 295.358986 
L 253.735596 295.406082 
L 274.569528 295.362797 
L 278.222934 295.230961 
L 279.703989 294.962723 
L 280.888843 294.517056 
L 281.975018 293.865105 
L 283.06114 292.952766 
L 283.851007 292.045002 
L 284.542194 290.888147 
L 285.134649 289.366208 
L 285.628316 287.348792 
L 286.023303 284.621446 
L 286.418291 281.706776 
L 286.517024 281.598204 
L 287.109425 282.33096 
L 287.405679 282.302674 
L 287.603145 282.732574 
L 288.096812 284.997501 
L 288.985467 288.745257 
L 289.775388 291.325104 
L 290.466576 292.864892 
L 291.058976 293.705958 
L 291.750164 294.314449 
L 292.638818 294.770383 
L 293.823673 295.092313 
L 295.403569 295.267842 
L 298.464466 295.333227 
L 323.939192 295.34667 
L 324.531592 295.213192 
L 324.729113 294.876547 
L 325.123992 293.832041 
L 325.321513 293.753725 
L 325.51898 293.324602 
L 326.111434 291.687993 
L 326.308901 291.636583 
L 326.506368 291.923525 
L 326.901355 293.1527 
L 327.395022 294.611153 
L 327.79001 295.151947 
L 328.184943 295.318641 
L 329.172331 295.358465 
L 398.487273 295.466264 
L 398.487273 295.466264 
" clip-path="url(#p6ff6c3291d)" style="fill: none; stroke: #d62728; stroke-width: 1.5; stroke-linecap: square"/>
   </g>
   <g id="patch_3">
    <path d="M 57.6 307.584 
L 57.6 41.472 
" style="fill: none; stroke: #000000; stroke-width: 0.8; stroke-linejoin: miter; stroke-linecap: square"/>
   </g>
   <g id="patch_4">
    <path d="M 414.72 307.584 
L 414.72 41.472 
" style="fill: none; stroke: #000000; stroke-width: 0.8; stroke-linejoin: miter; stroke-linecap: square"/>
   </g>
   <g id="patch_5">
    <path d="M 57.6 307.584 
L 414.72 307.584 
" style="fill: none; stroke: #000000; stroke-width: 0.8; stroke-linejoin: miter; stroke-linecap: square"/>
   </g>
   <g id="patch_6">
    <path d="M 57.6 41.472 
L 414.72 41.472 
" style="fill: none; stroke: #000000; stroke-width: 0.8; stroke-linejoin: miter; stroke-linecap: square"/>
   </g>
   <g id="legend_1">
    <g id="patch_7">
     <path d="M 298.993125 122.52825 
L 406.32 122.52825 
Q 408.72 122.52825 408.72 120.12825 
L 408.72 49.872 
Q 408.72 47.472 406.32 47.472 
L 298.993125 47.472 
Q 296.593125 47.472 296.593125 49.872 
L 296.593125 120.12825 
Q 296.593125 122.52825 298.993125 122.52825 
z
" style="fill: #ffffff; opacity: 0.8; stroke: #cccccc; stroke-linejoin: miter"/>
    </g>
    <g id="line2d_18">
     <path d="M 301.393125 57.190125 
L 313.393125 57.190125 
L 325.393125 57.190125 
" style="fill: none; stroke: #1f77b4; stroke-width: 1.5; stroke-linecap: square"/>
    </g>
    <g id="text_16">
     <!-- experiment -->
     <g transform="translate(334.993125 61.390125) scale(0.12 -0.12)">
      <defs>
       <path id="DejaVuSans-65" d="M 3597 1894 
L 3597 1613 
L 953 1613 
Q 991 1019 1311 708 
Q 1631 397 2203 397 
Q 2534 397 2845 478 
Q 3156 559 3463 722 
L 3463 178 
Q 3153 47 2828 -22 
Q 2503 -91 2169 -91 
Q 1331 -91 842 396 
Q 353 884 353 1716 
Q 353 2575 817 3079 
Q 1281 3584 2069 3584 
Q 2775 3584 3186 3129 
Q 3597 2675 3597 1894 
z
M 3022 2063 
Q 3016 2534 2758 2815 
Q 2500 3097 2075 3097 
Q 1594 3097 1305 2825 
Q 1016 2553 972 2059 
L 3022 2063 
z
" transform="scale(0.015625)"/>
       <path id="DejaVuSans-78" d="M 3513 3500 
L 2247 1797 
L 3578 0 
L 2900 0 
L 1881 1375 
L 863 0 
L 184 0 
L 1544 1831 
L 300 3500 
L 978 3500 
L 1906 2253 
L 2834 3500 
L 3513 3500 
z
" transform="scale(0.015625)"/>
       <path id="DejaVuSans-70" d="M 1159 525 
L 1159 -1331 
L 581 -1331 
L 581 3500 
L 1159 3500 
L 1159 2969 
Q 1341 3281 1617 3432 
Q 1894 3584 2278 3584 
Q 2916 3584 3314 3078 
Q 3713 2572 3713 1747 
Q 3713 922 3314 415 
Q 2916 -91 2278 -91 
Q 1894 -91 1617 61 
Q 1341 213 1159 525 
z
M 3116 1747 
Q 3116 2381 2855 2742 
Q 2594 3103 2138 3103 
Q 1681 3103 1420 2742 
Q 1159 2381 1159 1747 
Q 1159 1113 1420 752 
Q 1681 391 2138 391 
Q 2594 391 2855 752 
Q 3116 1113 3116 1747 
z
" transform="scale(0.015625)"/>
       <path id="DejaVuSans-72" d="M 2631 2963 
Q 2534 3019 2420 3045 
Q 2306 3072 2169 3072 
Q 1681 3072 1420 2755 
Q 1159 2438 1159 1844 
L 1159 0 
L 581 0 
L 581 3500 
L 1159 3500 
L 1159 2956 
Q 1341 3275 1631 3429 
Q 1922 3584 2338 3584 
Q 2397 3584 2469 3576 
Q 2541 3569 2628 3553 
L 2631 2963 
z
" transform="scale(0.015625)"/>
       <path id="DejaVuSans-69" d="M 603 3500 
L 1178 3500 
L 1178 0 
L 603 0 
L 603 3500 
z
M 603 4863 
L 1178 4863 
L 1178 4134 
L 603 4134 
L 603 4863 
z
" transform="scale(0.015625)"/>
       <path id="DejaVuSans-6d" d="M 3328 2828 
Q 3544 3216 3844 3400 
Q 4144 3584 4550 3584 
Q 5097 3584 5394 3201 
Q 5691 2819 5691 2113 
L 5691 0 
L 5113 0 
L 5113 2094 
Q 5113 2597 4934 2840 
Q 4756 3084 4391 3084 
Q 3944 3084 3684 2787 
Q 3425 2491 3425 1978 
L 3425 0 
L 2847 0 
L 2847 2094 
Q 2847 2600 2669 2842 
Q 2491 3084 2119 3084 
Q 1678 3084 1418 2786 
Q 1159 2488 1159 1978 
L 1159 0 
L 581 0 
L 581 3500 
L 1159 3500 
L 1159 2956 
Q 1356 3278 1631 3431 
Q 1906 3584 2284 3584 
Q 2666 3584 2933 3390 
Q 3200 3197 3328 2828 
z
" transform="scale(0.015625)"/>
       <path id="DejaVuSans-6e" d="M 3513 2113 
L 3513 0 
L 2938 0 
L 2938 2094 
Q 2938 2591 2744 2837 
Q 2550 3084 2163 3084 
Q 1697 3084 1428 2787 
Q 1159 2491 1159 1978 
L 1159 0 
L 581 0 
L 581 3500 
L 1159 3500 
L 1159 2956 
Q 1366 3272 1645 3428 
Q 1925 3584 2291 3584 
Q 2894 3584 3203 3211 
Q 3513 2838 3513 2113 
z
" transform="scale(0.015625)"/>
       <path id="DejaVuSans-74" d="M 1172 4494 
L 1172 3500 
L 2356 3500 
L 2356 3053 
L 1172 3053 
L 1172 1153 
Q 1172 725 1289 603 
Q 1406 481 1766 481 
L 2356 481 
L 2356 0 
L 1766 0 
Q 1100 0 847 248 
Q 594 497 594 1153 
L 594 3053 
L 172 3053 
L 172 3500 
L 594 3500 
L 594 4494 
L 1172 4494 
z
" transform="scale(0.015625)"/>
      </defs>
      <use xlink:href="#DejaVuSans-65"/>
      <use xlink:href="#DejaVuSans-78" x="59.773438"/>
      <use xlink:href="#DejaVuSans-70" x="118.953125"/>
      <use xlink:href="#DejaVuSans-65" x="182.429688"/>
      <use xlink:href="#DejaVuSans-72" x="243.953125"/>
      <use xlink:href="#DejaVuSans-69" x="285.066406"/>
      <use xlink:href="#DejaVuSans-6d" x="312.849609"/>
      <use xlink:href="#DejaVuSans-65" x="410.261719"/>
      <use xlink:href="#DejaVuSans-6e" x="471.785156"/>
      <use xlink:href="#DejaVuSans-74" x="535.164062"/>
     </g>
    </g>
    <g id="line2d_19">
     <path d="M 301.393125 74.803875 
L 313.393125 74.803875 
L 325.393125 74.803875 
" style="fill: none; stroke: #ff7f0e; stroke-width: 1.5; stroke-linecap: square"/>
    </g>
    <g id="text_17">
     <!-- phase_1 -->
     <g transform="translate(334.993125 79.003875) scale(0.12 -0.12)">
      <defs>
       <path id="DejaVuSans-68" d="M 3513 2113 
L 3513 0 
L 2938 0 
L 2938 2094 
Q 2938 2591 2744 2837 
Q 2550 3084 2163 3084 
Q 1697 3084 1428 2787 
Q 1159 2491 1159 1978 
L 1159 0 
L 581 0 
L 581 4863 
L 1159 4863 
L 1159 2956 
Q 1366 3272 1645 3428 
Q 1925 3584 2291 3584 
Q 2894 3584 3203 3211 
Q 3513 2838 3513 2113 
z
" transform="scale(0.015625)"/>
       <path id="DejaVuSans-73" d="M 2834 3397 
L 2834 2853 
Q 2591 2978 2328 3040 
Q 2066 3103 1784 3103 
Q 1356 3103 1142 2972 
Q 928 2841 928 2578 
Q 928 2378 1081 2264 
Q 1234 2150 1697 2047 
L 1894 2003 
Q 2506 1872 2764 1633 
Q 3022 1394 3022 966 
Q 3022 478 2636 193 
Q 2250 -91 1575 -91 
Q 1294 -91 989 -36 
Q 684 19 347 128 
L 347 722 
Q 666 556 975 473 
Q 1284 391 1588 391 
Q 1994 391 2212 530 
Q 2431 669 2431 922 
Q 2431 1156 2273 1281 
Q 2116 1406 1581 1522 
L 1381 1569 
Q 847 1681 609 1914 
Q 372 2147 372 2553 
Q 372 3047 722 3315 
Q 1072 3584 1716 3584 
Q 2034 3584 2315 3537 
Q 2597 3491 2834 3397 
z
" transform="scale(0.015625)"/>
       <path id="DejaVuSans-5f" d="M 3263 -1063 
L 3263 -1509 
L -63 -1509 
L -63 -1063 
L 3263 -1063 
z
" transform="scale(0.015625)"/>
      </defs>
      <use xlink:href="#DejaVuSans-70"/>
      <use xlink:href="#DejaVuSans-68" x="63.476562"/>
      <use xlink:href="#DejaVuSans-61" x="126.855469"/>
      <use xlink:href="#DejaVuSans-73" x="188.134766"/>
      <use xlink:href="#DejaVuSans-65" x="240.234375"/>
      <use xlink:href="#DejaVuSans-5f" x="301.757812"/>
      <use xlink:href="#DejaVuSans-31" x="351.757812"/>
     </g>
    </g>
    <g id="line2d_20">
     <path d="M 301.393125 92.751375 
L 313.393125 92.751375 
L 325.393125 92.751375 
" style="fill: none; stroke: #2ca02c; stroke-width: 1.5; stroke-linecap: square"/>
    </g>
    <g id="text_18">
     <!-- phase_2 -->
     <g transform="translate(334.993125 96.951375) scale(0.12 -0.12)">
      <use xlink:href="#DejaVuSans-70"/>
      <use xlink:href="#DejaVuSans-68" x="63.476562"/>
      <use xlink:href="#DejaVuSans-61" x="126.855469"/>
      <use xlink:href="#DejaVuSans-73" x="188.134766"/>
      <use xlink:href="#DejaVuSans-65" x="240.234375"/>
      <use xlink:href="#DejaVuSans-5f" x="301.757812"/>
      <use xlink:href="#DejaVuSans-32" x="351.757812"/>
     </g>
    </g>
    <g id="line2d_21">
     <path d="M 301.393125 110.698875 
L 313.393125 110.698875 
L 325.393125 110.698875 
" style="fill: none; stroke: #d62728; stroke-width: 1.5; stroke-linecap: square"/>
    </g>
    <g id="text_19">
     <!-- phase_3 -->
     <g transform="translate(334.993125 114.898875) scale(0.12 -0.12)">
      <use xlink:href="#DejaVuSans-70"/>
      <use xlink:href="#DejaVuSans-68" x="63.476562"/>
      <use xlink:href="#DejaVuSans-61" x="126.855469"/>
      <use xlink:href="#DejaVuSans-73" x="188.134766"/>
      <use xlink:href="#DejaVuSans-65" x="240.234375"/>
      <use xlink:href="#DejaVuSans-5f" x="301.757812"/>
      <use xlink:href="#DejaVuSans-33" x="351.757812"/>
     </g>
    </g>
   </g>
  </g>
 </g>
 <defs>
  <clipPath id="p6ff6c3291d">
   <rect x="57.6" y="41.472" width="357.12" height="266.112"/>
  </clipPath>
 </defs>
</svg>
