<?xml version="1.0" encoding="utf-8" standalone="no"?>
<!DOCTYPE svg PUBLIC "-//W3C//DTD SVG 1.1//EN"
  "http://www.w3.org/Graphics/SVG/1.1/DTD/svg11.dtd">
<svg xmlns:xlink="http://www.w3.org/1999/xlink" width="460.8pt" height="345.6pt" viewBox="0 0 460.8 345.6" xmlns="http://www.w3.org/2000/svg" version="1.1">
 <metadata>
  <rdf:RDF xmlns:dc="http://purl.org/dc/elements/1.1/" xmlns:cc="http://creativecommons.org/ns#" xmlns:rdf="http://www.w3.org/1999/02/22-rdf-syntax-ns#">
   <cc:Work>
    <dc:type rdf:resource="http://purl.org/dc/dcmitype/StillImage"/>
    <dc:date>2026-02-06T16:03:25.566372</dc:date>
    <dc:format>image/svg+xml</dc:format>
    <dc:creator>
     <cc:Agent>
      <dc:title>Matplotlib v3.7.1, https://matplotlib.org/</dc:title>
     </cc:Agent>
    </dc:creator>
   </cc:Work>
  </rdf:RDF>
 </metadata>
 <defs>
  <style type="text/css">*{stroke-linejoin: round; stroke-linecap: butt}</style>
 </defs>
 <g id="figure_1">
  <g id="patch_1">
   <path d="M 0 345.6 
L 460.8 345.6 
L 460.8 0 
L 0 0 
z
" style="fill: #ffffff"/>
  </g>
  <g id="axes_1">
   <g id="patch_2">
    <path d="M 57.6 307.584 
L 414.72 307.584 
L 414.72 41.472 
L 57.6 41.472 
z
" style="fill: #ffffff"/>
   </g>
   <g id="matplotlib.axis_1">
    <g id="xtick_1">
     <g id="line2d_1">
      <defs>
       <path id="m85a99e8c79" d="M 0 0 
L 0 3.5 
" style="stroke: #000000; stroke-width: 0.8"/>
      </defs>
      <g>
       <use xlink:href="#m85a99e8c79" x="73.801758" y="307.584" style="stroke: #000000; stroke-width: 0.8"/>
      </g>
     </g>
     <g id="text_1">
      <!-- 10 -->
      <g transform="translate(66.166758 323.702125) scale(0.12 -0.12)">
       <defs>
        <path id="DejaVuSans-31" d="M 794 531 
L 1825 531 
L 1825 4091 
L 703 3866 
L 703 4441 
L 1819 4666 
L 2450 4666 
L 2450 531 
L 3481 531 
L 3481 0 
L 794 0 
L 794 531 
z
" transform="scale(0.015625)"/>
        <path id="DejaVuSans-30" d="M 2034 4250 
Q 1547 4250 1301 3770 
Q 1056 3291 1056 2328 
Q 1056 1369 1301 889 
Q 1547 409 2034 409 
Q 2525 409 2770 889 
Q 3016 1369 3016 2328 
Q 3016 3291 2770 3770 
Q 2525 4250 2034 4250 
z
M 2034 4750 
Q 2819 4750 3233 4129 
Q 3647 3509 3647 2328 
Q 3647 1150 3233 529 
Q 2819 -91 2034 -91 
Q 1250 -91 836 529 
Q 422 1150 422 2328 
Q 422 3509 836 4129 
Q 1250 4750 2034 4750 
z
" transform="scale(0.015625)"/>
       </defs>
       <use xlink:href="#DejaVuSans-31"/>
       <use xlink:href="#DejaVuSans-30" x="63.623047"/>
      </g>
     </g>
    </g>
    <g id="xtick_2">
     <g id="line2d_2">
      <g>
       <use xlink:href="#m85a99e8c79" x="114.388811" y="307.584" style="stroke: #000000; stroke-width: 0.8"/>
      </g>
     </g>
     <g id="text_2">
      <!-- 20 -->
      <g transform="translate(106.753811 323.702125) scale(0.12 -0.12)">
       <defs>
        <path id="DejaVuSans-32" d="M 1228 531 
L 3431 531 
L 3431 0 
L 469 0 
L 469 531 
Q 828 903 1448 1529 
Q 2069 2156 2228 2338 
Q 2531 2678 2651 2914 
Q 2772 3150 2772 3378 
Q 2772 3750 2511 3984 
Q 2250 4219 1831 4219 
Q 1534 4219 1204 4116 
Q 875 4013 500 3803 
L 500 4441 
Q 881 4594 1212 4672 
Q 1544 4750 1819 4750 
Q 2544 4750 2975 4387 
Q 3406 4025 3406 3419 
Q 3406 3131 3298 2873 
Q 3191 2616 2906 2266 
Q 2828 2175 2409 1742 
Q 1991 1309 1228 531 
z
" transform="scale(0.015625)"/>
       </defs>
       <use xlink:href="#DejaVuSans-32"/>
       <use xlink:href="#DejaVuSans-30" x="63.623047"/>
      </g>
     </g>
    </g>
    <g id="xtick_3">
     <g id="line2d_3">
      <g>
       <use xlink:href="#m85a99e8c79" x="154.975864" y="307.584" style="stroke: #000000; stroke-width: 0.8"/>
      </g>
     </g>
     <g id="text_3">
      <!-- 30 -->
      <g transform="translate(147.340864 323.702125) scale(0.12 -0.12)">
       <defs>
        <path id="DejaVuSans-33" d="M 2597 2516 
Q 3050 2419 3304 2112 
Q 3559 1806 3559 1356 
Q 3559 666 3084 287 
Q 2609 -91 1734 -91 
Q 1441 -91 1130 -33 
Q 819 25 488 141 
L 488 750 
Q 750 597 1062 519 
Q 1375 441 1716 441 
Q 2309 441 2620 675 
Q 2931 909 2931 1356 
Q 2931 1769 2642 2001 
Q 2353 2234 1838 2234 
L 1294 2234 
L 1294 2753 
L 1863 2753 
Q 2328 2753 2575 2939 
Q 2822 3125 2822 3475 
Q 2822 3834 2567 4026 
Q 2313 4219 1838 4219 
Q 1578 4219 1281 4162 
Q 984 4106 628 3988 
L 628 4550 
Q 988 4650 1302 4700 
Q 1616 4750 1894 4750 
Q 2613 4750 3031 4423 
Q 3450 4097 3450 3541 
Q 3450 3153 3228 2886 
Q 3006 2619 2597 2516 
z
" transform="scale(0.015625)"/>
       </defs>
       <use xlink:href="#DejaVuSans-33"/>
       <use xlink:href="#DejaVuSans-30" x="63.623047"/>
      </g>
     </g>
    </g>
    <g id="xtick_4">
     <g id="line2d_4">
      <g>
       <use xlink:href="#m85a99e8c79" x="195.562917" y="307.584" style="stroke: #000000; stroke-width: 0.8"/>
      </g>
     </g>
     <g id="text_4">
      <!-- 40 -->
      <g transform="translate(187.927917 323.702125) scale(0.12 -0.12)">
       <defs>
        <path id="DejaVuSans-34" d="M 2419 4116 
L 825 1625 
L 2419 1625 
L 2419 4116 
z
M 2253 4666 
L 3047 4666 
L 3047 1625 
L 3713 1625 
L 3713 1100 
L 3047 1100 
L 3047 0 
L 2419 0 
L 2419 1100 
L 313 1100 
L 313 1709 
L 2253 4666 
z
" transform="scale(0.015625)"/>
       </defs>
       <use xlink:href="#DejaVuSans-34"/>
       <use xlink:href="#DejaVuSans-30" x="63.623047"/>
      </g>
     </g>
    </g>
    <g id="xtick_5">
     <g id="line2d_5">
      <g>
       <use xlink:href="#m85a99e8c79" x="236.14997" y="307.584" style="stroke: #000000; stroke-width: 0.8"/>
      </g>
     </g>
     <g id="text_5">
      <!-- 50 -->
      <g transform="translate(228.51497 323.702125) scale(0.12 -0.12)">
       <defs>
        <path id="DejaVuSans-35" d="M 691 4666 
L 3169 4666 
L 3169 4134 
L 1269 4134 
L 1269 2991 
Q 1406 3038 1543 3061 
Q 1681 3084 1819 3084 
Q 2600 3084 3056 2656 
Q 3513 2228 3513 1497 
Q 3513 744 3044 326 
Q 2575 -91 1722 -91 
Q 1428 -91 1123 -41 
Q 819 9 494 109 
L 494 744 
Q 775 591 1075 516 
Q 1375 441 1709 441 
Q 2250 441 2565 725 
Q 2881 1009 2881 1497 
Q 2881 1984 2565 2268 
Q 2250 2553 1709 2553 
Q 1456 2553 1204 2497 
Q 953 2441 691 2322 
L 691 4666 
z
" transform="scale(0.015625)"/>
       </defs>
       <use xlink:href="#DejaVuSans-35"/>
       <use xlink:href="#DejaVuSans-30" x="63.623047"/>
      </g>
     </g>
    </g>
    <g id="xtick_6">
     <g id="line2d_6">
      <g>
       <use xlink:href="#m85a99e8c79" x="276.737023" y="307.584" style="stroke: #000000; stroke-width: 0.8"/>
      </g>
     </g>
     <g id="text_6">
      <!-- 60 -->
      <g transform="translate(269.102023 323.702125) scale(0.12 -0.12)">
       <defs>
        <path id="DejaVuSans-36" d="M 2113 2584 
Q 1688 2584 1439 2293 
Q 1191 2003 1191 1497 
Q 1191 994 1439 701 
Q 1688 409 2113 409 
Q 2538 409 2786 701 
Q 3034 994 3034 1497 
Q 3034 2003 2786 2293 
Q 2538 2584 2113 2584 
z
M 3366 4563 
L 3366 3988 
Q 3128 4100 2886 4159 
Q 2644 4219 2406 4219 
Q 1781 4219 1451 3797 
Q 1122 3375 1075 2522 
Q 1259 2794 1537 2939 
Q 1816 3084 2150 3084 
Q 2853 3084 3261 2657 
Q 3669 2231 3669 1497 
Q 3669 778 3244 343 
Q 2819 -91 2113 -91 
Q 1303 -91 875 529 
Q 447 1150 447 2328 
Q 447 3434 972 4092 
Q 1497 4750 2381 4750 
Q 2619 4750 2861 4703 
Q 3103 4656 3366 4563 
z
" transform="scale(0.015625)"/>
       </defs>
       <use xlink:href="#DejaVuSans-36"/>
       <use xlink:href="#DejaVuSans-30" x="63.623047"/>
      </g>
     </g>
    </g>
    <g id="xtick_7">
     <g id="line2d_7">
      <g>
       <use xlink:href="#m85a99e8c79" x="317.324075" y="307.584" style="stroke: #000000; stroke-width: 0.8"/>
      </g>
     </g>
     <g id="text_7">
      <!-- 70 -->
      <g transform="translate(309.689075 323.702125) scale(0.12 -0.12)">
       <defs>
        <path id="DejaVuSans-37" d="M 525 4666 
L 3525 4666 
L 3525 4397 
L 1831 0 
L 1172 0 
L 2766 4134 
L 525 4134 
L 525 4666 
z
" transform="scale(0.015625)"/>
       </defs>
       <use xlink:href="#DejaVuSans-37"/>
       <use xlink:href="#DejaVuSans-30" x="63.623047"/>
      </g>
     </g>
    </g>
    <g id="xtick_8">
     <g id="line2d_8">
      <g>
       <use xlink:href="#m85a99e8c79" x="357.911128" y="307.584" style="stroke: #000000; stroke-width: 0.8"/>
      </g>
     </g>
     <g id="text_8">
      <!-- 80 -->
      <g transform="translate(350.276128 323.702125) scale(0.12 -0.12)">
       <defs>
        <path id="DejaVuSans-38" d="M 2034 2216 
Q 1584 2216 1326 1975 
Q 1069 1734 1069 1313 
Q 1069 891 1326 650 
Q 1584 409 2034 409 
Q 2484 409 2743 651 
Q 3003 894 3003 1313 
Q 3003 1734 2745 1975 
Q 2488 2216 2034 2216 
z
M 1403 2484 
Q 997 2584 770 2862 
Q 544 3141 544 3541 
Q 544 4100 942 4425 
Q 1341 4750 2034 4750 
Q 2731 4750 3128 4425 
Q 3525 4100 3525 3541 
Q 3525 3141 3298 2862 
Q 3072 2584 2669 2484 
Q 3125 2378 3379 2068 
Q 3634 1759 3634 1313 
Q 3634 634 3220 271 
Q 2806 -91 2034 -91 
Q 1263 -91 848 271 
Q 434 634 434 1313 
Q 434 1759 690 2068 
Q 947 2378 1403 2484 
z
M 1172 3481 
Q 1172 3119 1398 2916 
Q 1625 2713 2034 2713 
Q 2441 2713 2670 2916 
Q 2900 3119 2900 3481 
Q 2900 3844 2670 4047 
Q 2441 4250 2034 4250 
Q 1625 4250 1398 4047 
Q 1172 3844 1172 3481 
z
" transform="scale(0.015625)"/>
       </defs>
       <use xlink:href="#DejaVuSans-38"/>
       <use xlink:href="#DejaVuSans-30" x="63.623047"/>
      </g>
     </g>
    </g>
    <g id="xtick_9">
     <g id="line2d_9">
      <g>
       <use xlink:href="#m85a99e8c79" x="398.498181" y="307.584" style="stroke: #000000; stroke-width: 0.8"/>
      </g>
     </g>
     <g id="text_9">
      <!-- 90 -->
      <g transform="translate(390.863181 323.702125) scale(0.12 -0.12)">
       <defs>
        <path id="DejaVuSans-39" d="M 703 97 
L 703 672 
Q 941 559 1184 500 
Q 1428 441 1663 441 
Q 2288 441 2617 861 
Q 2947 1281 2994 2138 
Q 2813 1869 2534 1725 
Q 2256 1581 1919 1581 
Q 1219 1581 811 2004 
Q 403 2428 403 3163 
Q 403 3881 828 4315 
Q 1253 4750 1959 4750 
Q 2769 4750 3195 4129 
Q 3622 3509 3622 2328 
Q 3622 1225 3098 567 
Q 2575 -91 1691 -91 
Q 1453 -91 1209 -44 
Q 966 3 703 97 
z
M 1959 2075 
Q 2384 2075 2632 2365 
Q 2881 2656 2881 3163 
Q 2881 3666 2632 3958 
Q 2384 4250 1959 4250 
Q 1534 4250 1286 3958 
Q 1038 3666 1038 3163 
Q 1038 2656 1286 2365 
Q 1534 2075 1959 2075 
z
" transform="scale(0.015625)"/>
       </defs>
       <use xlink:href="#DejaVuSans-39"/>
       <use xlink:href="#DejaVuSans-30" x="63.623047"/>
      </g>
     </g>
    </g>
    <g id="text_10">
     <!-- 2θ° -->
     <g transform="translate(225.67125 339.315875) scale(0.12 -0.12)">
      <defs>
       <path id="DejaVuSans-3b8" d="M 2953 2219 
L 963 2219 
Q 1009 1284 1225 888 
Q 1494 400 1959 400 
Q 2428 400 2688 891 
Q 2916 1322 2953 2219 
z
M 2944 2750 
Q 2856 3638 2688 3950 
Q 2419 4444 1959 4444 
Q 1481 4444 1228 3956 
Q 1028 3563 969 2750 
L 2944 2750 
z
M 1959 4913 
Q 2709 4913 3138 4250 
Q 3566 3591 3566 2422 
Q 3566 1256 3138 594 
Q 2709 -72 1959 -72 
Q 1206 -72 781 594 
Q 353 1256 353 2422 
Q 353 3591 781 4250 
Q 1206 4913 1959 4913 
z
" transform="scale(0.015625)"/>
       <path id="DejaVuSans-b0" d="M 1600 4347 
Q 1350 4347 1178 4173 
Q 1006 4000 1006 3750 
Q 1006 3503 1178 3333 
Q 1350 3163 1600 3163 
Q 1850 3163 2022 3333 
Q 2194 3503 2194 3750 
Q 2194 3997 2020 4172 
Q 1847 4347 1600 4347 
z
M 1600 4750 
Q 1800 4750 1984 4673 
Q 2169 4597 2303 4453 
Q 2447 4313 2519 4134 
Q 2591 3956 2591 3750 
Q 2591 3338 2302 3052 
Q 2013 2766 1594 2766 
Q 1172 2766 890 3047 
Q 609 3328 609 3750 
Q 609 4169 896 4459 
Q 1184 4750 1600 4750 
z
" transform="scale(0.015625)"/>
      </defs>
      <use xlink:href="#DejaVuSans-32"/>
      <use xlink:href="#DejaVuSans-3b8" x="63.623047"/>
      <use xlink:href="#DejaVuSans-b0" x="124.804688"/>
     </g>
    </g>
   </g>
   <g id="matplotlib.axis_2">
    <g id="ytick_1">
     <g id="line2d_10">
      <defs>
       <path id="m4ffe8cc111" d="M 0 0 
L -3.5 0 
" style="stroke: #000000; stroke-width: 0.8"/>
      </defs>
      <g>
       <use xlink:href="#m4ffe8cc111" x="57.6" y="295.488308" style="stroke: #000000; stroke-width: 0.8"/>
      </g>
     </g>
     <g id="text_11">
      <!-- 0 -->
      <g transform="translate(42.965 300.047371) scale(0.12 -0.12)">
       <use xlink:href="#DejaVuSans-30"/>
      </g>
     </g>
    </g>
    <g id="ytick_2">
     <g id="line2d_11">
      <g>
       <use xlink:href="#m4ffe8cc111" x="57.6" y="240.653477" style="stroke: #000000; stroke-width: 0.8"/>
      </g>
     </g>
     <g id="text_12">
      <!-- 5000 -->
      <g transform="translate(20.06 245.21254) scale(0.12 -0.12)">
       <use xlink:href="#DejaVuSans-35"/>
       <use xlink:href="#DejaVuSans-30" x="63.623047"/>
       <use xlink:href="#DejaVuSans-30" x="127.246094"/>
       <use xlink:href="#DejaVuSans-30" x="190.869141"/>
      </g>
     </g>
    </g>
    <g id="ytick_3">
     <g id="line2d_12">
      <g>
       <use xlink:href="#m4ffe8cc111" x="57.6" y="185.818646" style="stroke: #000000; stroke-width: 0.8"/>
      </g>
     </g>
     <g id="text_13">
      <!-- 10000 -->
      <g transform="translate(12.425 190.377708) scale(0.12 -0.12)">
       <use xlink:href="#DejaVuSans-31"/>
       <use xlink:href="#DejaVuSans-30" x="63.623047"/>
       <use xlink:href="#DejaVuSans-30" x="127.246094"/>
       <use xlink:href="#DejaVuSans-30" x="190.869141"/>
       <use xlink:href="#DejaVuSans-30" x="254.492188"/>
      </g>
     </g>
    </g>
    <g id="ytick_4">
     <g id="line2d_13">
      <g>
       <use xlink:href="#m4ffe8cc111" x="57.6" y="130.983815" style="stroke: #000000; stroke-width: 0.8"/>
      </g>
     </g>
     <g id="text_14">
      <!-- 15000 -->
      <g transform="translate(12.425 135.542877) scale(0.12 -0.12)">
       <use xlink:href="#DejaVuSans-31"/>
       <use xlink:href="#DejaVuSans-35" x="63.623047"/>
       <use xlink:href="#DejaVuSans-30" x="127.246094"/>
       <use xlink:href="#DejaVuSans-30" x="190.869141"/>
       <use xlink:href="#DejaVuSans-30" x="254.492188"/>
      </g>
     </g>
    </g>
    <g id="ytick_5">
     <g id="line2d_14">
      <g>
       <use xlink:href="#m4ffe8cc111" x="57.6" y="76.148983" style="stroke: #000000; stroke-width: 0.8"/>
      </g>
     </g>
     <g id="text_15">
      <!-- 20000 -->
      <g transform="translate(12.425 80.708046) scale(0.12 -0.12)">
       <use xlink:href="#DejaVuSans-32"/>
       <use xlink:href="#DejaVuSans-30" x="63.623047"/>
       <use xlink:href="#DejaVuSans-30" x="127.246094"/>
       <use xlink:href="#DejaVuSans-30" x="190.869141"/>
       <use xlink:href="#DejaVuSans-30" x="254.492188"/>
      </g>
     </g>
    </g>
    <g id="text_16">
     <!-- I (a.u.) -->
     <g transform="translate(5.929375 194.179875) rotate(-90) scale(0.12 -0.12)">
      <defs>
       <path id="DejaVuSans-49" d="M 628 4666 
L 1259 4666 
L 1259 0 
L 628 0 
L 628 4666 
z
" transform="scale(0.015625)"/>
       <path id="DejaVuSans-20" transform="scale(0.015625)"/>
       <path id="DejaVuSans-28" d="M 1984 4856 
Q 1566 4138 1362 3434 
Q 1159 2731 1159 2009 
Q 1159 1288 1364 580 
Q 1569 -128 1984 -844 
L 1484 -844 
Q 1016 -109 783 600 
Q 550 1309 550 2009 
Q 550 2706 781 3412 
Q 1013 4119 1484 4856 
L 1984 4856 
z
" transform="scale(0.015625)"/>
       <path id="DejaVuSans-61" d="M 2194 1759 
Q 1497 1759 1228 1600 
Q 959 1441 959 1056 
Q 959 750 1161 570 
Q 1363 391 1709 391 
Q 2188 391 2477 730 
Q 2766 1069 2766 1631 
L 2766 1759 
L 2194 1759 
z
M 3341 1997 
L 3341 0 
L 2766 0 
L 2766 531 
Q 2569 213 2275 61 
Q 1981 -91 1556 -91 
Q 1019 -91 701 211 
Q 384 513 384 1019 
Q 384 1609 779 1909 
Q 1175 2209 1959 2209 
L 2766 2209 
L 2766 2266 
Q 2766 2663 2505 2880 
Q 2244 3097 1772 3097 
Q 1472 3097 1187 3025 
Q 903 2953 641 2809 
L 641 3341 
Q 956 3463 1253 3523 
Q 1550 3584 1831 3584 
Q 2591 3584 2966 3190 
Q 3341 2797 3341 1997 
z
" transform="scale(0.015625)"/>
       <path id="DejaVuSans-2e" d="M 684 794 
L 1344 794 
L 1344 0 
L 684 0 
L 684 794 
z
" transform="scale(0.015625)"/>
       <path id="DejaVuSans-75" d="M 544 1381 
L 544 3500 
L 1119 3500 
L 1119 1403 
Q 1119 906 1312 657 
Q 1506 409 1894 409 
Q 2359 409 2629 706 
Q 2900 1003 2900 1516 
L 2900 3500 
L 3475 3500 
L 3475 0 
L 2900 0 
L 2900 538 
Q 2691 219 2414 64 
Q 2138 -91 1772 -91 
Q 1169 -91 856 284 
Q 544 659 544 1381 
z
M 1991 3584 
L 1991 3584 
z
" transform="scale(0.015625)"/>
       <path id="DejaVuSans-29" d="M 513 4856 
L 1013 4856 
Q 1481 4119 1714 3412 
Q 1947 2706 1947 2009 
Q 1947 1309 1714 600 
Q 1481 -109 1013 -844 
L 513 -844 
Q 928 -128 1133 580 
Q 1338 1288 1338 2009 
Q 1338 2731 1133 3434 
Q 928 4138 513 4856 
z
" transform="scale(0.015625)"/>
      </defs>
      <use xlink:href="#DejaVuSans-49"/>
      <use xlink:href="#DejaVuSans-20" x="29.492188"/>
      <use xlink:href="#DejaVuSans-28" x="61.279297"/>
      <use xlink:href="#DejaVuSans-61" x="100.292969"/>
      <use xlink:href="#DejaVuSans-2e" x="161.572266"/>
      <use xlink:href="#DejaVuSans-75" x="193.359375"/>
      <use xlink:href="#DejaVuSans-2e" x="256.738281"/>
      <use xlink:href="#DejaVuSans-29" x="288.525391"/>
     </g>
    </g>
   </g>
   <g id="line2d_15">
    <path d="M 73.832727 292.198218 
L 74.045895 292.933005 
L 74.152479 292.37369 
L 74.259063 292.603996 
L 74.472231 292.494326 
L 74.898566 292.998807 
L 75.111734 292.790435 
L 75.218318 292.790435 
L 75.324902 292.98784 
L 75.431486 292.779468 
L 75.53807 293.185245 
L 75.751237 292.933005 
L 75.857821 292.965906 
L 75.964405 292.51626 
L 76.177573 292.911071 
L 76.390741 292.7356 
L 76.817076 293.042675 
L 77.136828 292.636897 
L 77.243412 292.790435 
L 77.45658 292.965906 
L 77.776331 292.702699 
L 77.989499 292.856236 
L 78.096083 293.130411 
L 78.309251 292.724633 
L 78.415835 292.87817 
L 78.522419 292.768501 
L 78.735586 293.009774 
L 78.84217 293.042675 
L 78.948754 292.669798 
L 79.055338 293.053642 
L 79.161922 292.856236 
L 79.37509 293.108477 
L 79.481674 293.031708 
L 79.588258 292.724633 
L 79.694842 292.790435 
L 79.801425 293.064609 
L 79.908009 292.87817 
L 80.014593 293.064609 
L 80.121177 292.658831 
L 80.334345 293.042675 
L 80.440929 292.867203 
L 80.547513 293.229113 
L 80.76068 292.922038 
L 80.867264 293.283948 
L 80.973848 293.218146 
L 81.187016 292.834302 
L 81.2936 293.24008 
L 81.506768 293.09751 
L 81.613352 293.34975 
L 81.826519 292.933005 
L 81.933103 293.141377 
L 82.039687 293.09751 
L 82.252855 292.867203 
L 82.359439 293.283948 
L 82.679191 293.294915 
L 82.785774 293.426519 
L 82.998942 293.185245 
L 83.531862 293.196212 
L 83.638446 292.954939 
L 83.74503 293.009774 
L 83.851613 293.305882 
L 83.958197 293.053642 
L 84.064781 293.525221 
L 84.384533 293.207179 
L 84.597701 293.404585 
L 84.704285 293.229113 
L 84.810868 293.547155 
L 84.917452 293.459419 
L 85.024036 293.185245 
L 85.13062 293.645858 
L 85.237204 293.130411 
L 85.343788 293.514254 
L 85.556956 293.272981 
L 85.66354 293.503287 
L 85.876707 293.371684 
L 85.983291 293.569089 
L 86.089875 293.34975 
L 86.303043 293.481353 
L 86.409627 293.305882 
L 86.622795 293.382651 
L 86.729379 293.174278 
L 86.835963 293.49232 
L 87.475466 293.382651 
L 87.58205 293.777462 
L 87.901801 292.998807 
L 88.114969 293.415552 
L 88.328137 293.580056 
L 88.434721 293.371684 
L 88.647889 293.558122 
L 88.754473 293.415552 
L 88.861057 293.744561 
L 89.074224 293.448453 
L 89.287392 293.569089 
L 89.50056 293.536188 
L 89.607144 293.580056 
L 89.713728 293.437486 
L 89.820312 293.656825 
L 89.926895 293.404585 
L 90.140063 293.832296 
L 90.353231 293.525221 
L 90.459815 293.766495 
L 90.672983 293.49232 
L 90.886151 293.448453 
L 90.992734 293.656825 
L 91.099318 293.34975 
L 91.205902 293.689726 
L 91.312486 293.634891 
L 91.525654 293.316849 
L 91.738822 293.71166 
L 91.951989 293.371684 
L 92.058573 293.229113 
L 92.165157 293.755528 
L 92.271741 293.634891 
L 92.378325 293.766495 
L 92.698077 293.503287 
L 92.804661 293.788428 
L 92.911245 293.634891 
L 93.017828 293.777462 
L 93.230996 293.547155 
L 93.33758 293.799395 
L 93.444164 293.470386 
L 93.550748 293.580056 
L 93.657332 293.514254 
L 93.763916 293.667792 
L 93.8705 293.459419 
L 94.083667 293.810362 
L 94.296835 293.448453 
L 94.403419 293.832296 
L 94.510003 293.481353 
L 94.616587 293.634891 
L 94.723171 293.371684 
L 94.829755 293.722627 
L 94.936339 293.503287 
L 95.149506 293.898098 
L 95.25609 293.569089 
L 95.362674 293.733594 
L 95.469258 293.623924 
L 95.575842 293.700693 
L 95.78901 293.580056 
L 96.108761 293.920032 
L 96.215345 293.722627 
L 96.321929 293.788428 
L 96.535097 293.60199 
L 96.641681 293.766495 
L 96.748265 293.580056 
L 96.961433 293.766495 
L 97.068016 293.60199 
L 97.1746 293.920032 
L 97.387768 293.580056 
L 97.600936 293.733594 
L 97.70752 293.514254 
L 97.814104 293.996801 
L 97.920688 293.536188 
L 98.027272 293.744561 
L 98.240439 293.700693 
L 98.453607 293.700693 
L 98.560191 293.810362 
L 98.773359 293.656825 
L 99.09311 293.722627 
L 99.199694 293.689726 
L 99.306278 293.941966 
L 99.519446 293.766495 
L 99.62603 293.985834 
L 99.945782 293.843263 
L 100.052366 293.810362 
L 100.158949 294.029702 
L 100.372117 293.645858 
L 100.691869 293.898098 
L 100.905037 293.634891 
L 101.118204 294.10647 
L 101.224788 293.952933 
L 101.331372 294.084537 
L 101.54454 293.645858 
L 101.651124 293.536188 
L 101.864292 293.865197 
L 102.184043 293.788428 
L 102.397211 293.71166 
L 102.610379 293.799395 
L 102.716963 293.667792 
L 102.823547 294.07357 
L 102.930131 293.843263 
L 103.036715 294.018735 
L 103.356466 293.60199 
L 103.569634 294.040669 
L 103.99597 293.667792 
L 104.209137 293.941966 
L 104.635473 293.930999 
L 104.848641 293.591023 
L 105.168393 293.985834 
L 105.274976 293.755528 
L 105.488144 294.051636 
L 105.594728 293.9639 
L 105.701312 294.095504 
L 106.021064 293.634891 
L 106.127648 294.095504 
L 106.234231 293.832296 
L 106.340815 293.974867 
L 106.660567 293.722627 
L 106.767151 293.865197 
L 106.873735 293.777462 
L 106.980319 294.029702 
L 107.086903 293.744561 
L 107.513238 293.974867 
L 107.619822 293.887131 
L 107.726406 294.051636 
L 107.83299 293.777462 
L 108.046158 294.029702 
L 108.152742 293.799395 
L 108.365909 293.887131 
L 108.579077 293.71166 
L 108.898829 293.974867 
L 109.111997 293.788428 
L 109.218581 294.018735 
L 109.325164 293.85423 
L 109.431748 294.10647 
L 109.644916 293.941966 
L 109.7515 294.117437 
L 110.177836 293.788428 
L 110.604171 293.952933 
L 110.710755 293.755528 
L 111.030507 293.909065 
L 111.350258 293.788428 
L 111.456842 294.062603 
L 111.883178 293.865197 
L 112.20293 293.9639 
L 112.309514 293.591023 
L 112.416097 293.71166 
L 112.522681 293.569089 
L 112.735849 294.051636 
L 112.949017 293.678759 
L 113.375352 293.9639 
L 113.481936 293.832296 
L 113.695104 294.161305 
L 113.908272 293.810362 
L 114.014856 293.996801 
L 114.228024 293.788428 
L 114.334608 293.722627 
L 114.441191 294.040669 
L 114.547775 293.865197 
L 114.654359 294.018735 
L 114.760943 293.832296 
L 114.867527 294.062603 
L 115.080695 293.744561 
L 115.293863 294.062603 
L 115.50703 293.799395 
L 115.613614 293.985834 
L 115.826782 293.832296 
L 116.03995 294.07357 
L 116.146534 293.821329 
L 116.253118 294.084537 
L 116.572869 293.722627 
L 116.786037 294.062603 
L 116.999205 293.645858 
L 117.105789 294.260008 
L 117.212373 294.172272 
L 117.425541 293.832296 
L 117.638708 293.920032 
L 117.745292 294.183239 
L 117.95846 293.71166 
L 118.171628 293.909065 
L 118.384796 293.799395 
L 118.597963 293.887131 
L 118.704547 293.404585 
L 118.811131 293.437486 
L 119.024299 293.119444 
L 119.237467 292.055648 
L 119.450635 290.05966 
L 119.770386 280.40873 
L 120.090138 248.604528 
L 120.623057 293.34975 
L 120.729641 293.393618 
L 120.836225 293.316849 
L 121.049393 293.788428 
L 121.475729 293.9639 
L 121.582312 293.930999 
L 121.688896 294.062603 
L 121.79548 293.85423 
L 122.221816 294.040669 
L 122.434984 294.029702 
L 122.648151 293.821329 
L 122.861319 294.018735 
L 122.967903 293.623924 
L 123.181071 294.139371 
L 123.287655 294.007768 
L 123.394239 294.062603 
L 123.500823 293.744561 
L 123.71399 294.07357 
L 123.820574 293.9639 
L 123.927158 294.238074 
L 124.24691 293.887131 
L 124.353494 293.788428 
L 124.460078 294.227107 
L 124.566661 293.898098 
L 124.673245 294.260008 
L 124.779829 294.150338 
L 124.886413 294.270975 
L 124.992997 294.051636 
L 125.206165 294.161305 
L 125.312749 293.930999 
L 125.525917 294.128404 
L 125.6325 294.040669 
L 125.739084 294.194206 
L 125.845668 294.040669 
L 125.952252 294.172272 
L 126.272004 294.062603 
L 126.378588 294.10647 
L 126.485172 294.314843 
L 126.804923 294.117437 
L 127.018091 294.347744 
L 127.231259 294.029702 
L 127.337843 294.051636 
L 127.444427 293.930999 
L 127.551011 294.172272 
L 127.657594 293.788428 
L 127.870762 293.876164 
L 127.977346 293.930999 
L 128.403682 291.189257 
L 128.510266 288.984897 
L 128.61685 289.226171 
L 128.830017 290.399636 
L 129.149769 293.404585 
L 129.362937 293.9639 
L 129.469521 294.172272 
L 129.576105 294.051636 
L 129.789272 294.260008 
L 129.895856 294.084537 
L 130.00244 294.32581 
L 130.109024 294.249041 
L 130.322192 294.347744 
L 130.53536 294.128404 
L 130.748527 294.292909 
L 130.855111 294.10647 
L 131.068279 294.446446 
L 131.174863 294.161305 
L 131.388031 294.512248 
L 131.494615 294.21614 
L 131.601199 294.391612 
L 131.92095 294.238074 
L 132.027534 294.369678 
L 132.347286 294.260008 
L 132.560454 294.413546 
L 132.880205 294.227107 
L 132.986789 294.523215 
L 133.199957 294.260008 
L 133.306541 294.610951 
L 133.519709 294.238074 
L 133.732877 294.424513 
L 133.83946 294.621918 
L 133.946044 294.556116 
L 134.052628 294.336777 
L 134.159212 294.599984 
L 134.478964 294.32581 
L 134.585548 294.501281 
L 134.798715 294.172272 
L 134.905299 294.446446 
L 135.011883 294.391612 
L 135.118467 294.512248 
L 135.225051 294.369678 
L 135.331635 294.676753 
L 135.544803 294.369678 
L 135.864554 294.479347 
L 135.971138 294.260008 
L 136.184306 294.512248 
L 136.29089 294.512248 
L 136.397474 294.358711 
L 136.717226 294.567083 
L 136.930393 294.413546 
L 137.036977 294.610951 
L 137.143561 294.227107 
L 137.250145 294.292909 
L 137.356729 294.57805 
L 137.463313 294.391612 
L 137.569897 294.545149 
L 137.676481 294.205173 
L 137.889648 294.479347 
L 138.2094 294.446446 
L 138.315984 294.534182 
L 138.529152 294.358711 
L 139.062071 294.545149 
L 139.381823 294.369678 
L 139.488407 294.545149 
L 139.701575 294.413546 
L 139.808159 294.512248 
L 139.914742 294.32581 
L 140.12791 294.589017 
L 140.447662 294.435479 
L 140.554246 294.68772 
L 140.980581 294.303876 
L 141.193749 294.479347 
L 141.833253 294.446446 
L 141.939836 294.654819 
L 142.04642 294.523215 
L 142.259588 294.643852 
L 142.57934 294.621918 
L 142.792508 294.281942 
L 142.899092 294.676753 
L 143.005675 294.380645 
L 143.112259 294.621918 
L 143.218843 294.424513 
L 143.432011 294.589017 
L 143.751763 294.227107 
L 143.858347 294.270975 
L 143.96493 293.580056 
L 144.071514 293.667792 
L 144.391266 289.928056 
L 144.604434 287.99787 
L 144.924186 292.461426 
L 145.137353 294.161305 
L 145.670273 294.698687 
L 145.883441 294.545149 
L 145.990024 294.654819 
L 146.203192 294.446446 
L 146.309776 294.654819 
L 146.522944 294.490314 
L 146.736112 294.534182 
L 146.94928 294.68772 
L 147.055863 294.435479 
L 147.269031 294.698687 
L 147.375615 294.643852 
L 147.482199 294.391612 
L 147.588783 294.599984 
L 147.695367 294.380645 
L 147.801951 294.654819 
L 147.908535 294.380645 
L 148.015118 294.654819 
L 148.121702 294.57805 
L 148.228286 294.83029 
L 148.441454 294.490314 
L 148.548038 294.413546 
L 148.86779 294.57805 
L 148.974374 294.490314 
L 149.080957 294.643852 
L 149.720461 294.391612 
L 149.933629 294.632885 
L 150.146796 294.57805 
L 150.359964 294.632885 
L 150.466548 294.490314 
L 150.679716 294.753522 
L 150.892884 294.424513 
L 151.106051 294.545149 
L 151.212635 294.479347 
L 151.319219 294.643852 
L 151.532387 294.610951 
L 151.638971 294.57805 
L 151.852139 294.380645 
L 151.958723 294.567083 
L 152.17189 294.512248 
L 152.278474 294.227107 
L 152.70481 291.956945 
L 153.024562 287.153414 
L 153.664065 294.347744 
L 153.770649 294.249041 
L 153.983817 294.556116 
L 154.090401 294.424513 
L 154.196984 294.775455 
L 154.303568 294.424513 
L 154.410152 294.621918 
L 154.516736 294.369678 
L 154.62332 294.632885 
L 154.943072 294.556116 
L 155.156239 294.523215 
L 155.262823 294.731588 
L 155.369407 294.457413 
L 155.475991 294.599984 
L 155.689159 294.402579 
L 155.902327 294.665786 
L 156.008911 294.249041 
L 156.115495 294.556116 
L 156.222078 294.512248 
L 156.328662 294.589017 
L 156.754998 294.161305 
L 156.861582 293.744561 
L 156.968166 293.821329 
L 157.394501 288.557186 
L 157.714253 276.263216 
L 157.820837 276.921234 
L 158.034005 285.409666 
L 158.140589 286.835372 
L 158.353756 293.09751 
L 158.566924 294.095504 
L 158.780092 294.051636 
L 158.886676 294.161305 
L 158.99326 293.85423 
L 159.099844 294.402579 
L 159.313011 293.974867 
L 159.419595 294.227107 
L 159.526179 294.161305 
L 159.632763 294.260008 
L 159.952515 293.733594 
L 160.059099 293.985834 
L 160.592018 293.470386 
L 160.698602 293.481353 
L 160.805186 293.009774 
L 160.91177 293.163311 
L 161.231522 290.015792 
L 161.444689 282.645991 
L 161.657857 263.684106 
L 161.871025 199.856363 
L 162.190777 53.568 
L 162.723696 259.275386 
L 162.936864 283.271108 
L 163.150032 290.860248 
L 163.363199 292.636897 
L 163.789535 293.481353 
L 163.896119 293.470386 
L 164.109287 294.161305 
L 164.215871 294.018735 
L 164.322455 293.9639 
L 164.535622 294.194206 
L 164.642206 294.270975 
L 164.74879 294.095504 
L 164.961958 294.347744 
L 165.175126 294.205173 
L 165.601461 294.643852 
L 165.814629 294.336777 
L 166.027797 294.589017 
L 166.134381 294.21614 
L 166.347549 294.523215 
L 166.6673 294.336777 
L 166.880468 294.512248 
L 166.987052 294.545149 
L 167.093636 294.435479 
L 167.306804 294.610951 
L 167.413387 294.46838 
L 167.626555 294.676753 
L 167.733139 294.413546 
L 167.946307 294.709654 
L 168.266059 294.654819 
L 168.479226 294.874158 
L 168.58581 294.643852 
L 168.692394 294.68772 
L 168.905562 294.424513 
L 169.012146 294.68772 
L 169.11873 294.57805 
L 169.331898 294.775455 
L 169.545065 294.457413 
L 169.651649 294.709654 
L 169.758233 294.46838 
L 169.864817 294.775455 
L 170.291153 294.490314 
L 170.397737 294.775455 
L 170.50432 294.57805 
L 170.610904 294.621918 
L 170.717488 294.512248 
L 170.930656 294.567083 
L 171.143824 294.336777 
L 171.463575 292.933005 
L 171.570159 292.077582 
L 171.889911 285.870279 
L 171.996495 286.758603 
L 172.209663 290.487372 
L 172.316247 291.244092 
L 172.529414 294.205173 
L 172.635998 294.303876 
L 172.742582 294.621918 
L 172.849166 294.534182 
L 173.275502 294.983828 
L 173.382086 294.731588 
L 173.48867 294.797389 
L 173.808421 294.676753 
L 174.021589 294.775455 
L 174.128173 294.68772 
L 174.341341 294.863191 
L 174.447925 294.874158 
L 174.554508 294.753522 
L 174.661092 294.885125 
L 174.767676 294.654819 
L 174.980844 294.896092 
L 175.300596 294.665786 
L 175.40718 294.950927 
L 175.513764 294.709654 
L 175.833515 294.819323 
L 176.046683 294.665786 
L 176.153267 294.896092 
L 176.366435 294.676753 
L 176.579602 294.852224 
L 177.112522 294.786422 
L 177.32569 294.885125 
L 177.538858 294.764488 
L 177.645441 294.983828 
L 177.752025 294.896092 
L 177.858609 294.961894 
L 178.071777 294.775455 
L 178.604696 294.928993 
L 179.031032 294.479347 
L 179.137616 294.753522 
L 179.457368 293.229113 
L 179.563952 292.033714 
L 179.883703 283.600117 
L 179.990287 284.641979 
L 180.203455 290.114495 
L 180.310039 289.149402 
L 180.523207 293.9639 
L 180.62979 294.720621 
L 180.949542 294.643852 
L 181.375878 294.731588 
L 181.482462 294.621918 
L 181.589046 294.874158 
L 181.695629 294.698687 
L 181.908797 294.918026 
L 182.015381 294.567083 
L 182.441717 294.610951 
L 182.548301 294.534182 
L 182.974636 293.34975 
L 183.187804 290.048693 
L 183.507556 281.944105 
L 183.61414 282.492453 
L 183.827307 288.392681 
L 183.933891 288.140441 
L 184.253643 293.996801 
L 184.466811 294.610951 
L 184.786562 294.786422 
L 184.893146 294.654819 
L 184.99973 294.841257 
L 185.212898 294.676753 
L 185.319482 294.709654 
L 185.53265 294.918026 
L 185.639234 294.994795 
L 185.852401 294.808356 
L 186.065569 294.797389 
L 186.278737 294.983828 
L 186.491905 294.83029 
L 186.705073 294.907059 
L 186.811656 294.841257 
L 186.91824 295.060597 
L 187.024824 294.852224 
L 187.131408 295.071564 
L 187.344576 294.83029 
L 187.557744 294.852224 
L 187.984079 294.918026 
L 188.303831 294.83029 
L 188.410415 295.016729 
L 188.623583 294.775455 
L 188.730167 294.808356 
L 188.83675 295.005762 
L 188.943334 294.896092 
L 189.049918 295.08253 
L 189.263086 294.797389 
L 189.36967 294.83029 
L 189.582838 295.016729 
L 189.902589 294.731588 
L 190.115757 294.907059 
L 190.222341 294.918026 
L 190.328925 294.786422 
L 190.542093 294.885125 
L 190.648677 294.83029 
L 190.755261 295.005762 
L 190.861844 294.896092 
L 190.968428 295.016729 
L 191.181596 294.863191 
L 191.501348 294.961894 
L 191.607932 294.83029 
L 191.714516 295.038663 
L 191.927683 294.852224 
L 192.140851 294.972861 
L 192.247435 294.819323 
L 192.673771 294.994795 
L 192.780355 294.742555 
L 192.886938 294.896092 
L 192.993522 294.841257 
L 193.100106 294.928993 
L 193.526442 294.238074 
L 193.633026 293.85423 
L 193.846194 291.770507 
L 194.059361 287.756597 
L 194.165945 288.425582 
L 194.379113 291.562134 
L 194.485697 291.5402 
L 194.592281 291.858242 
L 194.805449 294.139371 
L 195.018616 294.446446 
L 195.1252 294.128404 
L 195.551536 290.246098 
L 195.764704 292.801402 
L 196.084455 293.514254 
L 196.297623 294.720621 
L 196.404207 294.863191 
L 196.617375 294.764488 
L 196.723959 295.005762 
L 196.937126 294.918026 
L 197.896382 295.137365 
L 198.109549 294.972861 
L 198.216133 294.93996 
L 198.322717 294.720621 
L 198.535885 294.950927 
L 198.855637 295.027696 
L 199.175388 294.83029 
L 199.281972 294.994795 
L 199.601724 294.863191 
L 199.814892 294.950927 
L 199.921476 294.753522 
L 200.134643 294.918026 
L 200.347811 295.104464 
L 200.454395 294.907059 
L 200.667563 295.060597 
L 200.774147 294.972861 
L 200.880731 295.038663 
L 200.987315 294.928993 
L 201.200482 295.104464 
L 201.41365 294.841257 
L 201.520234 294.885125 
L 201.626818 295.04963 
L 201.94657 294.950927 
L 202.159737 295.005762 
L 202.372905 294.994795 
L 202.586073 295.016729 
L 202.799241 294.874158 
L 202.905825 295.071564 
L 203.225576 294.950927 
L 203.33216 295.005762 
L 203.438744 294.874158 
L 203.651912 294.983828 
L 203.758496 295.060597 
L 203.86508 294.896092 
L 203.971664 295.005762 
L 204.078247 294.83029 
L 204.291415 294.972861 
L 204.397999 294.928993 
L 204.504583 295.115431 
L 204.824335 294.93996 
L 205.463838 294.808356 
L 205.570422 294.994795 
L 206.103341 294.841257 
L 206.316509 294.797389 
L 206.529677 294.347744 
L 206.742845 293.689726 
L 206.849429 293.667792 
L 207.062597 294.303876 
L 207.16918 294.139371 
L 207.488932 294.775455 
L 207.7021 294.961894 
L 208.128436 294.950927 
L 208.235019 294.786422 
L 208.341603 295.027696 
L 208.448187 294.972861 
L 208.554771 295.08253 
L 208.767939 294.907059 
L 208.874523 294.972861 
L 208.981107 294.775455 
L 209.087691 294.907059 
L 209.300858 294.654819 
L 209.407442 294.556116 
L 209.833778 291.726639 
L 210.15353 293.85423 
L 210.260113 293.294915 
L 210.686449 294.863191 
L 211.219368 294.950927 
L 211.432536 294.786422 
L 211.53912 295.005762 
L 211.645704 294.731588 
L 211.752288 294.961894 
L 211.858872 294.786422 
L 212.07204 294.983828 
L 212.178624 294.742555 
L 212.285207 294.972861 
L 212.498375 294.786422 
L 212.711543 294.907059 
L 212.818127 295.08253 
L 213.031295 294.753522 
L 213.244462 294.93996 
L 213.351046 294.841257 
L 213.564214 295.016729 
L 213.670798 294.775455 
L 213.777382 294.863191 
L 213.883966 294.797389 
L 213.99055 294.961894 
L 214.097134 294.852224 
L 214.203718 295.016729 
L 214.416885 294.808356 
L 214.523469 294.961894 
L 214.630053 294.775455 
L 214.736637 294.961894 
L 214.843221 294.808356 
L 215.162973 295.016729 
L 215.269556 294.57805 
L 215.589308 294.841257 
L 216.122228 294.501281 
L 216.441979 293.985834 
L 216.548563 294.336777 
L 216.655147 294.029702 
L 216.761731 294.062603 
L 216.868315 293.744561 
L 217.294651 290.344801 
L 217.401234 287.372753 
L 217.614402 271.021007 
L 217.934154 243.581657 
L 218.147322 269.266292 
L 218.360489 268.290232 
L 218.467073 273.598244 
L 218.680241 290.289966 
L 218.893409 293.612957 
L 219.106577 294.10647 
L 219.426328 294.479347 
L 219.639496 294.523215 
L 219.959248 294.775455 
L 220.065832 294.632885 
L 220.172416 294.742555 
L 220.279 294.665786 
L 220.598751 294.896092 
L 220.918503 294.83029 
L 221.025087 294.907059 
L 221.131671 294.786422 
L 221.344839 294.896092 
L 221.984342 294.841257 
L 222.19751 294.983828 
L 222.410677 294.874158 
L 222.517261 294.961894 
L 222.730429 294.928993 
L 223.263349 294.950927 
L 223.369933 295.071564 
L 223.476516 294.918026 
L 223.689684 294.93996 
L 223.902852 294.918026 
L 224.009436 294.93996 
L 224.11602 294.797389 
L 224.329188 294.994795 
L 224.435771 294.808356 
L 224.542355 294.994795 
L 224.968691 294.896092 
L 225.075275 294.874158 
L 225.181859 295.115431 
L 225.395027 294.928993 
L 225.50161 295.038663 
L 225.714778 294.808356 
L 225.821362 294.983828 
L 226.03453 294.918026 
L 226.460866 294.589017 
L 226.674033 294.885125 
L 226.887201 294.950927 
L 226.993785 294.775455 
L 227.313537 294.896092 
L 227.526704 295.016729 
L 227.739872 294.786422 
L 228.059624 294.874158 
L 228.379376 294.501281 
L 228.48596 294.709654 
L 228.699127 294.621918 
L 228.805711 294.819323 
L 229.018879 294.786422 
L 229.338631 294.907059 
L 229.87155 294.742555 
L 230.191302 294.961894 
L 230.297886 294.68772 
L 230.40447 294.753522 
L 230.724221 294.139371 
L 230.937389 292.549161 
L 231.257141 290.542206 
L 231.470309 291.693738 
L 231.576892 291.518266 
L 231.79006 292.132417 
L 232.003228 293.810362 
L 232.32298 294.512248 
L 232.536148 294.819323 
L 232.642731 294.797389 
L 232.749315 294.994795 
L 232.855899 294.950927 
L 233.069067 294.994795 
L 233.282235 294.93996 
L 233.815154 295.005762 
L 234.028322 295.093497 
L 234.24149 294.983828 
L 234.348074 295.016729 
L 234.561242 294.928993 
L 234.774409 294.994795 
L 234.880993 294.863191 
L 235.094161 294.93996 
L 235.413913 294.819323 
L 235.520497 295.08253 
L 235.627081 294.972861 
L 235.946832 295.038663 
L 236.16 295.005762 
L 236.799503 295.016729 
L 237.119255 294.764488 
L 237.225839 294.863191 
L 237.758758 294.084537 
L 238.07851 294.665786 
L 238.291678 294.490314 
L 238.61143 294.994795 
L 238.824597 294.972861 
L 239.250933 294.819323 
L 239.570685 295.181233 
L 239.677269 294.928993 
L 239.783852 295.016729 
L 239.890436 294.907059 
L 240.103604 295.148332 
L 240.210188 294.983828 
L 240.316772 295.115431 
L 240.423356 294.994795 
L 240.636524 295.038663 
L 240.849691 295.060597 
L 240.956275 294.918026 
L 241.062859 295.115431 
L 241.276027 295.093497 
L 241.91553 295.027696 
L 242.022114 295.137365 
L 242.128698 294.983828 
L 242.341866 295.005762 
L 242.44845 294.972861 
L 242.555034 295.247035 
L 242.768202 295.005762 
L 243.087953 295.093497 
L 243.301121 294.972861 
L 243.514289 295.115431 
L 243.940624 295.005762 
L 244.260376 295.08253 
L 244.36696 294.896092 
L 244.793296 295.071564 
L 244.899879 294.93996 
L 245.113047 295.093497 
L 245.219631 294.896092 
L 245.539383 295.159299 
L 246.28547 295.038663 
L 246.605222 295.071564 
L 246.711806 295.093497 
L 246.924973 295.016729 
L 247.138141 294.983828 
L 247.351309 295.08253 
L 247.457893 295.04963 
L 247.564477 295.159299 
L 247.671061 294.983828 
L 247.777645 295.08253 
L 247.884228 294.950927 
L 248.097396 295.137365 
L 248.310564 295.04963 
L 249.269819 295.04963 
L 249.482987 294.950927 
L 249.696155 295.093497 
L 249.802739 295.203167 
L 250.015906 294.994795 
L 250.442242 295.08253 
L 250.761994 294.961894 
L 250.868578 295.115431 
L 250.975161 294.961894 
L 251.081745 295.093497 
L 251.188329 294.907059 
L 251.294913 295.038663 
L 251.614665 294.753522 
L 251.721249 294.479347 
L 251.934417 293.514254 
L 252.041 293.130411 
L 252.360752 294.205173 
L 252.467336 294.161305 
L 252.57392 294.336777 
L 252.680504 293.985834 
L 253.000255 294.918026 
L 253.746343 295.04963 
L 253.959511 294.928993 
L 254.066094 295.071564 
L 254.385846 294.994795 
L 254.599014 295.08253 
L 255.345101 295.104464 
L 255.451685 295.115431 
L 255.558269 294.972861 
L 255.984605 295.071564 
L 256.091188 294.972861 
L 256.41094 295.126398 
L 256.624108 295.038663 
L 256.730692 295.148332 
L 256.837276 294.928993 
L 256.94386 295.060597 
L 257.050443 294.983828 
L 257.157027 295.115431 
L 257.370195 294.896092 
L 257.796531 295.08253 
L 258.009699 294.93996 
L 258.116282 295.170266 
L 258.222866 294.918026 
L 258.542618 295.137365 
L 258.755786 294.972861 
L 258.86237 294.961894 
L 258.968954 295.071564 
L 259.075537 294.928993 
L 259.288705 295.126398 
L 259.501873 294.928993 
L 259.608457 294.93996 
L 259.715041 295.08253 
L 260.141376 294.950927 
L 260.354544 295.126398 
L 260.461128 294.885125 
L 260.674296 295.104464 
L 260.78088 294.83029 
L 260.887464 295.04963 
L 261.207215 294.797389 
L 261.633551 294.83029 
L 261.740135 294.534182 
L 261.846719 294.665786 
L 262.059887 293.821329 
L 262.273054 291.518266 
L 262.486222 288.787492 
L 262.592806 287.822399 
L 262.805974 290.772513 
L 263.019142 291.430531 
L 263.125726 291.441498 
L 263.232309 291.276993 
L 263.552061 293.174278 
L 263.658645 293.174278 
L 263.871813 292.746567 
L 264.191564 294.172272 
L 264.298148 294.205173 
L 264.511316 293.9639 
L 264.724484 294.501281 
L 264.937652 294.896092 
L 265.044236 295.071564 
L 265.15082 294.885125 
L 265.363987 295.04963 
L 265.470571 294.928993 
L 265.683739 294.994795 
L 265.790323 294.928993 
L 265.896907 295.060597 
L 266.110075 294.93996 
L 266.216658 295.038663 
L 266.429826 294.928993 
L 266.53641 295.071564 
L 267.175914 294.742555 
L 267.602249 293.24008 
L 267.708833 292.593029 
L 268.135169 294.018735 
L 268.348336 293.569089 
L 268.561504 294.183239 
L 268.774672 294.852224 
L 268.98784 294.720621 
L 269.094424 294.742555 
L 269.414175 294.512248 
L 269.840511 294.621918 
L 270.160263 294.07357 
L 270.480014 294.413546 
L 270.799766 294.490314 
L 270.90635 294.435479 
L 271.012934 294.556116 
L 271.119518 294.402579 
L 271.332685 294.720621 
L 271.545853 294.249041 
L 271.652437 293.985834 
L 271.865605 294.490314 
L 271.972189 294.665786 
L 272.185357 294.402579 
L 272.82486 292.87817 
L 274.103867 295.038663 
L 274.210451 294.885125 
L 274.317035 294.983828 
L 274.423618 294.907059 
L 274.530202 295.038663 
L 274.849954 294.950927 
L 274.956538 294.983828 
L 275.063122 294.819323 
L 275.27629 294.852224 
L 275.382873 294.753522 
L 275.809209 292.922038 
L 275.915793 293.130411 
L 276.022377 293.262014 
L 276.235545 294.260008 
L 276.342129 294.150338 
L 276.448712 294.314843 
L 276.555296 294.062603 
L 276.981632 294.907059 
L 277.088216 294.808356 
L 277.301384 295.08253 
L 277.407968 294.928993 
L 277.621135 295.04963 
L 277.727719 294.863191 
L 277.834303 295.071564 
L 278.154055 294.961894 
L 278.473806 295.115431 
L 278.686974 294.93996 
L 279.006726 295.104464 
L 279.11331 294.950927 
L 279.326478 295.038663 
L 279.539645 295.148332 
L 279.646229 294.797389 
L 279.859397 294.994795 
L 279.965981 294.852224 
L 280.179149 294.994795 
L 280.818652 294.885125 
L 281.03182 294.523215 
L 281.458156 293.623924 
L 281.671323 294.413546 
L 281.777907 294.523215 
L 282.417411 294.029702 
L 282.523994 293.700693 
L 283.056914 294.380645 
L 283.163498 294.139371 
L 283.48325 294.720621 
L 283.589833 294.490314 
L 283.803001 294.874158 
L 284.016169 294.841257 
L 284.122753 295.016729 
L 284.442505 294.885125 
L 284.549088 294.972861 
L 284.655672 294.742555 
L 284.762256 294.928993 
L 284.975424 294.918026 
L 285.188592 294.928993 
L 285.295176 294.83029 
L 285.508344 295.016729 
L 285.614927 294.885125 
L 285.828095 295.159299 
L 286.254431 294.950927 
L 286.361015 295.170266 
L 286.467599 294.928993 
L 286.574183 295.060597 
L 286.680766 294.928993 
L 286.893934 295.126398 
L 287.000518 294.841257 
L 287.107102 295.027696 
L 287.426854 294.753522 
L 287.533438 295.115431 
L 287.853189 295.038663 
L 288.919028 295.04963 
L 289.132196 295.060597 
L 289.771699 294.764488 
L 289.878283 295.005762 
L 290.517787 294.128404 
L 290.730954 294.446446 
L 290.944122 294.281942 
L 291.050706 294.523215 
L 291.263874 293.920032 
L 291.690209 294.336777 
L 291.796793 294.599984 
L 292.116545 294.523215 
L 292.542881 294.786422 
L 292.649465 294.950927 
L 292.756048 294.852224 
L 292.969216 295.016729 
L 293.395552 294.731588 
L 294.035055 294.93996 
L 294.99431 295.071564 
L 295.207478 295.005762 
L 295.740398 294.896092 
L 295.846981 295.126398 
L 296.060149 294.950927 
L 296.273317 294.994795 
L 296.486485 294.819323 
L 296.699653 294.764488 
L 296.91282 294.907059 
L 297.019404 294.863191 
L 297.125988 294.961894 
L 297.232572 294.874158 
L 297.339156 294.93996 
L 297.658908 294.808356 
L 298.085243 294.994795 
L 298.298411 294.797389 
L 298.404995 294.885125 
L 298.724747 294.490314 
L 298.937914 293.196212 
L 299.044498 293.426519 
L 299.151082 293.262014 
L 299.36425 294.490314 
L 299.470834 294.479347 
L 299.790586 293.777462 
L 300.216921 294.950927 
L 300.323505 294.961894 
L 300.430089 294.808356 
L 300.536673 294.896092 
L 300.643257 294.599984 
L 300.856424 294.786422 
L 300.963008 294.808356 
L 301.176176 294.589017 
L 301.28276 294.621918 
L 301.389344 294.523215 
L 301.602512 293.744561 
L 301.81568 291.748573 
L 302.135431 282.295048 
L 302.242015 283.720753 
L 302.561767 292.044681 
L 302.668351 291.342795 
L 302.881519 288.326879 
L 302.988102 288.765558 
L 303.307854 293.909065 
L 303.73419 294.797389 
L 303.947357 294.797389 
L 304.053941 294.896092 
L 304.160525 294.83029 
L 304.480277 295.04963 
L 304.693445 294.885125 
L 305.013196 295.016729 
L 305.11978 294.841257 
L 305.226364 294.918026 
L 305.332948 294.808356 
L 305.439532 294.863191 
L 305.546116 295.093497 
L 305.759284 294.621918 
L 305.865868 294.698687 
L 305.972451 294.490314 
L 306.398787 294.720621 
L 306.505371 294.567083 
L 306.611955 294.972861 
L 306.718539 294.589017 
L 306.825123 294.665786 
L 306.931707 294.545149 
L 307.251458 294.928993 
L 307.57121 294.93996 
L 307.677794 294.961894 
L 307.890962 294.764488 
L 308.210713 295.060597 
L 308.530465 295.04963 
L 308.743633 295.005762 
L 308.850217 295.1922 
L 309.063384 294.907059 
L 309.169968 294.983828 
L 309.809472 294.643852 
L 310.129223 294.665786 
L 310.235807 294.994795 
L 310.448975 294.808356 
L 310.768727 294.797389 
L 311.088478 294.928993 
L 311.195062 294.863191 
L 311.301646 295.159299 
L 311.621398 294.983828 
L 311.727982 294.841257 
L 311.94115 295.038663 
L 312.047734 294.896092 
L 312.260901 295.071564 
L 312.367485 295.005762 
L 312.474069 295.104464 
L 312.580653 295.016729 
L 312.793821 295.04963 
L 313.006989 294.961894 
L 313.113572 295.126398 
L 313.32674 295.016729 
L 313.753076 294.994795 
L 313.966244 295.071564 
L 314.072828 295.126398 
L 314.605747 294.841257 
L 314.712331 295.038663 
L 315.032083 294.676753 
L 315.351834 294.775455 
L 315.458418 294.972861 
L 315.991338 294.68772 
L 316.097922 294.93996 
L 316.417673 294.775455 
L 316.630841 295.005762 
L 316.737425 295.093497 
L 317.057177 294.93996 
L 317.163761 294.983828 
L 317.270344 295.203167 
L 317.376928 295.016729 
L 317.69668 295.148332 
L 317.909848 295.027696 
L 318.016432 295.093497 
L 318.442767 294.83029 
L 318.655935 295.104464 
L 318.762519 294.720621 
L 318.975687 294.983828 
L 319.188855 294.885125 
L 319.295438 295.005762 
L 319.402022 294.841257 
L 319.828358 295.038663 
L 319.934942 294.961894 
L 320.041526 295.04963 
L 320.361277 294.874158 
L 320.574445 295.016729 
L 321.107365 295.093497 
L 321.320532 294.918026 
L 321.746868 295.005762 
L 321.960036 295.148332 
L 322.06662 295.038663 
L 322.173204 295.159299 
L 322.279787 294.907059 
L 322.492955 295.060597 
L 322.812707 294.972861 
L 323.132459 295.08253 
L 323.239043 294.961894 
L 323.345626 295.08253 
L 323.45221 294.983828 
L 323.665378 295.027696 
L 323.771962 294.83029 
L 323.98513 295.104464 
L 324.198298 294.961894 
L 324.304882 294.994795 
L 324.518049 294.808356 
L 324.944385 294.643852 
L 325.050969 294.83029 
L 325.157553 294.753522 
L 325.264137 294.972861 
L 325.477304 294.918026 
L 325.583888 295.005762 
L 325.690472 294.907059 
L 325.797056 294.961894 
L 326.010224 294.797389 
L 326.223392 295.071564 
L 326.969479 294.819323 
L 327.076063 295.005762 
L 327.182647 294.885125 
L 327.289231 295.016729 
L 327.502398 294.972861 
L 328.035318 294.874158 
L 328.35507 294.918026 
L 328.887989 294.918026 
L 329.634076 294.808356 
L 329.953828 294.402579 
L 330.166996 294.643852 
L 330.27358 294.950927 
L 330.486747 294.950927 
L 330.593331 294.545149 
L 330.806499 294.742555 
L 331.019667 294.918026 
L 331.232835 294.885125 
L 331.339419 294.93996 
L 331.552586 294.83029 
L 331.765754 294.885125 
L 331.872338 294.983828 
L 332.085506 294.775455 
L 332.298674 294.643852 
L 332.405258 294.501281 
L 332.511841 294.589017 
L 332.618425 294.172272 
L 332.938177 294.643852 
L 333.044761 294.610951 
L 333.364513 294.062603 
L 333.471097 293.71166 
L 333.684264 294.084537 
L 334.004016 294.665786 
L 334.1106 294.534182 
L 334.217184 294.720621 
L 334.323768 294.479347 
L 334.430352 294.720621 
L 334.536935 294.490314 
L 334.643519 294.610951 
L 334.856687 294.961894 
L 335.176439 294.885125 
L 335.389607 294.819323 
L 335.709358 295.027696 
L 336.02911 294.93996 
L 336.242278 294.852224 
L 336.348862 294.972861 
L 336.562029 294.841257 
L 336.668613 294.928993 
L 336.881781 294.742555 
L 336.988365 294.764488 
L 337.094949 294.534182 
L 337.308117 294.698687 
L 337.841036 293.700693 
L 338.054204 294.21614 
L 338.160788 294.062603 
L 338.48054 291.726639 
L 338.800291 282.645991 
L 338.906875 278.204369 
L 339.013459 279.136562 
L 339.333211 290.882182 
L 339.439795 291.276993 
L 339.86613 286.714735 
L 339.972714 288.096573 
L 340.185882 292.933005 
L 340.39905 294.018735 
L 340.505634 294.183239 
L 340.612218 294.117437 
L 340.825385 294.501281 
L 341.145137 294.786422 
L 341.464889 294.863191 
L 341.571473 294.632885 
L 341.678056 294.950927 
L 341.78464 294.852224 
L 342.104392 294.928993 
L 342.210976 294.797389 
L 342.31756 294.863191 
L 342.424144 295.093497 
L 342.530728 294.950927 
L 342.743895 294.972861 
L 342.957063 294.961894 
L 343.170231 295.016729 
L 343.916318 294.972861 
L 344.555822 295.137365 
L 344.662406 294.918026 
L 344.768989 295.038663 
L 344.875573 294.863191 
L 345.088741 295.071564 
L 345.408493 294.950927 
L 345.621661 295.115431 
L 345.834828 295.016729 
L 346.6875 294.841257 
L 346.900667 294.950927 
L 347.007251 294.885125 
L 347.220419 294.961894 
L 347.327003 294.928993 
L 347.540171 295.071564 
L 347.646755 294.852224 
L 347.753339 295.04963 
L 347.859922 294.676753 
L 348.179674 295.038663 
L 348.60601 295.005762 
L 348.712594 294.885125 
L 348.819177 295.038663 
L 348.925761 294.972861 
L 349.138929 295.060597 
L 349.352097 294.950927 
L 349.458681 295.268969 
L 349.671849 294.994795 
L 349.9916 295.060597 
L 350.311352 295.016729 
L 350.417936 295.148332 
L 350.737688 294.896092 
L 350.950855 295.038663 
L 351.057439 295.060597 
L 351.164023 294.93996 
L 351.270607 295.08253 
L 351.590359 294.863191 
L 351.696943 295.214134 
L 352.123278 295.104464 
L 352.229862 294.918026 
L 352.656198 295.126398 
L 352.975949 294.918026 
L 353.295701 295.093497 
L 353.402285 295.04963 
L 353.508869 295.148332 
L 353.828621 294.885125 
L 354.041788 295.027696 
L 354.148372 295.203167 
L 354.468124 295.060597 
L 354.787876 295.016729 
L 354.894459 295.159299 
L 355.214211 294.896092 
L 355.640547 295.1922 
L 355.853715 294.961894 
L 355.960298 295.005762 
L 356.066882 294.885125 
L 356.173466 295.181233 
L 356.386634 294.961894 
L 356.599802 295.04963 
L 356.706386 295.071564 
L 356.919554 294.972861 
L 357.239305 295.225101 
L 357.345889 295.115431 
L 357.452473 295.181233 
L 357.665641 294.972861 
L 357.878809 295.04963 
L 357.985392 294.918026 
L 358.19856 295.038663 
L 358.305144 294.994795 
L 358.518312 295.060597 
L 358.944648 295.071564 
L 359.051231 294.928993 
L 359.264399 295.08253 
L 359.477567 295.027696 
L 359.584151 295.104464 
L 359.797319 294.907059 
L 359.903903 295.126398 
L 360.010486 295.005762 
L 360.436822 295.148332 
L 360.64999 295.038663 
L 360.756574 295.137365 
L 360.969742 295.071564 
L 361.076325 295.093497 
L 361.182909 294.753522 
L 361.289493 294.786422 
L 361.502661 294.93996 
L 361.822413 295.04963 
L 362.355332 294.983828 
L 362.675084 295.060597 
L 363.421171 294.93996 
L 363.527755 295.093497 
L 363.740923 295.08253 
L 363.847507 295.137365 
L 364.060675 294.918026 
L 364.167258 295.038663 
L 364.273842 294.896092 
L 364.380426 295.093497 
L 364.48701 294.972861 
L 364.700178 295.005762 
L 364.806762 295.071564 
L 364.913346 295.005762 
L 365.01993 295.115431 
L 365.233097 294.907059 
L 365.339681 294.918026 
L 365.446265 294.742555 
L 365.552849 294.928993 
L 365.766017 294.720621 
L 365.979185 294.874158 
L 366.085769 294.907059 
L 366.192352 294.775455 
L 366.298936 294.961894 
L 366.512104 294.928993 
L 366.618688 294.93996 
L 366.725272 294.621918 
L 366.93844 294.994795 
L 367.684527 295.04963 
L 367.791111 294.83029 
L 367.897695 294.983828 
L 368.004279 294.896092 
L 368.32403 295.093497 
L 368.643782 295.016729 
L 368.750366 295.115431 
L 368.963534 294.994795 
L 369.709621 295.093497 
L 370.029373 295.060597 
L 370.24254 295.071564 
L 370.455708 294.93996 
L 370.562292 295.071564 
L 370.77546 295.016729 
L 370.882044 295.060597 
L 370.988628 294.797389 
L 371.521547 295.104464 
L 371.734715 294.83029 
L 371.841299 295.08253 
L 371.947883 294.907059 
L 372.054467 295.060597 
L 372.161051 295.005762 
L 372.267634 295.181233 
L 372.374218 294.896092 
L 372.480802 295.104464 
L 372.69397 294.885125 
L 372.800554 295.038663 
L 372.907138 294.994795 
L 373.013722 294.797389 
L 373.120306 295.038663 
L 373.22689 294.83029 
L 373.333473 294.961894 
L 373.653225 294.270975 
L 374.186145 291.002819 
L 374.292728 290.827348 
L 374.719064 294.10647 
L 375.1454 292.922038 
L 375.358567 292.856236 
L 375.678319 294.567083 
L 375.784903 294.46838 
L 375.998071 294.961894 
L 376.211239 294.863191 
L 376.317822 295.104464 
L 376.53099 294.983828 
L 376.744158 295.038663 
L 376.850742 294.928993 
L 377.06391 295.104464 
L 377.170494 294.907059 
L 377.277078 295.1922 
L 377.596829 294.918026 
L 377.809997 295.060597 
L 378.769252 295.016729 
L 378.875836 295.203167 
L 378.98242 294.950927 
L 379.089004 295.04963 
L 379.195588 294.983828 
L 379.408755 295.115431 
L 379.515339 294.907059 
L 379.621923 295.126398 
L 379.728507 294.928993 
L 380.048259 295.005762 
L 380.154843 294.863191 
L 380.368011 295.04963 
L 380.687762 294.972861 
L 380.794346 295.093497 
L 381.007514 294.918026 
L 381.220682 295.159299 
L 381.433849 295.005762 
L 381.540433 294.994795 
L 381.753601 295.08253 
L 381.860185 295.115431 
L 382.073353 294.950927 
L 382.712856 295.08253 
L 382.81944 294.654819 
L 382.926024 294.720621 
L 383.139192 294.413546 
L 383.35236 294.819323 
L 383.458943 294.698687 
L 383.565527 294.797389 
L 383.672111 294.589017 
L 383.778695 294.885125 
L 383.885279 294.676753 
L 384.311615 294.808356 
L 384.418199 294.775455 
L 384.524782 294.972861 
L 384.73795 294.918026 
L 384.951118 295.093497 
L 385.27087 294.885125 
L 385.484037 295.104464 
L 385.590621 295.060597 
L 385.697205 295.1922 
L 385.803789 294.928993 
L 386.123541 295.1922 
L 386.230125 295.038663 
L 386.336709 295.104464 
L 386.443293 294.972861 
L 386.65646 295.225101 
L 386.763044 295.038663 
L 386.976212 295.170266 
L 387.18938 295.203167 
L 387.615715 295.027696 
L 387.935467 295.214134 
L 388.148635 294.950927 
L 388.468387 295.181233 
L 388.681554 295.104464 
L 388.894722 295.115431 
L 389.10789 295.005762 
L 389.214474 295.1922 
L 389.321058 295.093497 
L 389.640809 295.148332 
L 389.747393 295.181233 
L 389.960561 294.972861 
L 390.173729 295.115431 
L 390.493481 295.126398 
L 390.919816 295.093497 
L 391.0264 295.258002 
L 391.239568 295.093497 
L 391.452736 295.060597 
L 391.665903 295.148332 
L 391.772487 295.236068 
L 391.879071 295.038663 
L 392.092239 295.159299 
L 392.305407 295.181233 
L 392.411991 295.027696 
L 392.731742 295.137365 
L 392.94491 295.126398 
L 393.051494 295.247035 
L 393.158078 295.104464 
L 393.371246 295.203167 
L 393.584414 295.115431 
L 397.421434 295.148332 
L 397.528018 295.290903 
L 397.954353 295.060597 
L 398.274105 295.159299 
L 398.380689 294.972861 
L 398.487273 295.159299 
L 398.487273 295.159299 
" clip-path="url(#pbd65bf4a7f)" style="fill: none; stroke: #1f77b4; stroke-width: 1.5; stroke-linecap: square"/>
   </g>
   <g id="line2d_16">
    <path d="M 73.832727 295.488 
L 143.538595 295.390774 
L 143.751763 295.227583 
L 143.96493 294.583939 
L 144.178098 292.941962 
L 144.49785 289.003397 
L 144.924186 294.221932 
L 145.137353 295.112324 
L 145.350521 295.364235 
L 145.883441 295.446929 
L 148.974374 295.476202 
L 158.673508 295.36801 
L 159.952515 295.185194 
L 160.592018 294.879155 
L 160.91177 294.502496 
L 161.124938 293.913974 
L 161.338105 292.216523 
L 161.551273 287.114065 
L 161.764441 274.343584 
L 161.977609 238.349085 
L 162.084193 203.365241 
L 162.617112 284.962174 
L 162.936864 292.858719 
L 163.150032 294.122685 
L 163.469783 294.729946 
L 163.896119 295.04749 
L 164.642206 295.267919 
L 166.134381 295.400403 
L 170.397737 295.466885 
L 196.723959 295.483794 
L 214.523469 295.374149 
L 215.90906 295.178891 
L 216.441979 294.941302 
L 216.761731 294.620135 
L 216.974899 294.063178 
L 217.188067 292.223857 
L 217.401234 286.463392 
L 217.720986 265.089884 
L 217.934154 250.483287 
L 218.040738 249.830285 
L 218.253906 263.23837 
L 218.680241 289.449747 
L 218.893409 293.230309 
L 219.106577 294.355152 
L 219.426328 294.841646 
L 219.959248 295.138122 
L 220.811919 295.315394 
L 222.730429 295.426 
L 229.125463 295.475982 
L 251.081745 295.414319 
L 251.508081 295.248704 
L 251.827833 294.729897 
L 252.147584 294.060029 
L 252.254168 294.004965 
L 252.467336 294.274668 
L 253.000255 295.264717 
L 253.426591 295.414567 
L 255.025349 295.464217 
L 260.461128 295.388904 
L 261.420383 295.21308 
L 261.740135 294.936248 
L 261.953303 294.479006 
L 262.273054 293.047339 
L 262.805974 290.156328 
L 262.912558 290.234048 
L 263.125726 291.253756 
L 263.658645 294.286267 
L 263.978397 294.999522 
L 264.298148 295.233864 
L 265.044236 295.37558 
L 267.175914 295.456743 
L 277.621135 295.484129 
L 300.749841 295.380543 
L 301.176176 295.19098 
L 301.389344 294.836356 
L 301.602512 294.043758 
L 301.922263 291.645667 
L 302.455183 287.349253 
L 302.561767 287.322849 
L 302.774935 288.414864 
L 303.521022 294.458787 
L 303.840774 295.176578 
L 304.160525 295.356712 
L 305.11978 295.437793 
L 309.702888 295.47952 
L 329.101157 295.406492 
L 330.913083 295.244813 
L 331.872338 295.425206 
L 334.217184 295.45415 
L 338.267372 295.373154 
L 338.48054 295.242681 
L 338.693707 294.877712 
L 339.013459 293.706478 
L 339.333211 292.649865 
L 339.439795 292.623532 
L 339.652962 293.147057 
L 340.185882 295.052708 
L 340.505634 295.365185 
L 341.145137 295.422143 
L 351.057439 295.480687 
L 372.587386 295.395783 
L 373.22689 295.203231 
L 373.546641 294.907842 
L 373.972977 294.161831 
L 374.61248 292.87924 
L 374.825648 292.768591 
L 375.038816 292.917402 
L 375.465151 293.752022 
L 376.104655 294.947414 
L 376.53099 295.276809 
L 377.170494 295.409084 
L 379.515339 295.466856 
L 395.502924 295.486729 
L 398.487273 295.487028 
L 398.487273 295.487028 
" clip-path="url(#pbd65bf4a7f)" style="fill: none; stroke: #ff7f0e; stroke-width: 1.5; stroke-linecap: square"/>
   </g>
   <g id="line2d_17">
    <path d="M 73.832727 295.459924 
L 115.187279 295.313801 
L 117.638708 295.146185 
L 118.384796 294.904525 
L 118.811131 294.520599 
L 119.024299 294.092786 
L 119.237467 293.013196 
L 119.450635 289.418689 
L 119.663802 279.288864 
L 119.983554 257.805868 
L 120.40989 288.000371 
L 120.623057 292.572687 
L 120.836225 293.945441 
L 121.155977 294.592665 
L 121.582312 294.924577 
L 122.3284 295.13804 
L 123.820574 295.253035 
L 127.018091 295.248644 
L 127.764178 295.087098 
L 127.977346 294.759773 
L 128.190514 293.644606 
L 128.61685 290.266075 
L 129.149769 294.727085 
L 129.362937 295.083896 
L 129.789272 295.224754 
L 131.174863 295.299636 
L 140.234494 295.348675 
L 151.532387 295.285503 
L 151.958723 295.143013 
L 152.17189 294.823064 
L 152.385058 293.953401 
L 152.598226 292.13102 
L 152.917978 288.315151 
L 153.344313 293.688669 
L 153.664065 294.947291 
L 153.983817 295.209027 
L 154.729904 295.276564 
L 156.008911 295.182209 
L 156.435246 295.025545 
L 156.648414 294.762731 
L 156.861582 293.954182 
L 157.07475 291.823193 
L 157.394501 284.463438 
L 157.607669 278.826897 
L 157.927421 287.755948 
L 158.247172 293.135602 
L 158.46034 294.425305 
L 158.673508 294.847043 
L 158.99326 295.001173 
L 159.632763 295.002724 
L 160.272266 294.808058 
L 160.698602 294.477399 
L 161.018354 293.944354 
L 161.231522 293.045214 
L 161.338105 291.914715 
L 161.444689 289.488935 
L 161.657857 274.652939 
L 161.871025 233.376693 
L 162.190777 125.423099 
L 162.29736 130.924907 
L 162.723696 262.017679 
L 162.936864 285.737557 
L 163.150032 292.232438 
L 163.363199 293.716342 
L 163.682951 294.406513 
L 164.109287 294.811524 
L 164.74879 295.081139 
L 165.814629 295.253789 
L 168.052891 295.351156 
L 170.291153 295.283913 
L 170.824072 295.087366 
L 171.03724 294.760275 
L 171.250408 293.921575 
L 171.463575 292.104352 
L 171.783327 287.260407 
L 171.996495 290.332182 
L 172.316247 293.837819 
L 172.635998 294.95038 
L 172.95575 295.216722 
L 173.701837 295.346834 
L 175.940099 295.402368 
L 178.498113 295.305451 
L 178.817864 295.186487 
L 179.031032 294.898972 
L 179.2442 294.064848 
L 179.457368 292.15763 
L 179.670535 287.985812 
L 179.777119 284.897518 
L 179.883703 285.75905 
L 180.203455 292.559746 
L 180.523207 294.682585 
L 180.736374 295.094295 
L 181.056126 295.244943 
L 181.802213 295.251392 
L 182.228549 295.133253 
L 182.441717 294.932587 
L 182.654885 294.391957 
L 182.868052 293.105453 
L 183.08122 290.522649 
L 183.400972 282.901266 
L 183.507556 283.978538 
L 183.827307 291.370468 
L 184.147059 294.184115 
L 184.466811 295.028464 
L 184.786562 295.233776 
L 185.53265 295.357558 
L 187.770911 295.424823 
L 192.354019 295.360909 
L 192.993522 295.227895 
L 193.20669 295.056764 
L 193.419858 294.610027 
L 193.633026 293.56272 
L 193.846194 291.051839 
L 194.059361 288.69969 
L 194.379113 293.305999 
L 194.592281 294.269014 
L 194.805449 294.492021 
L 195.018616 294.145464 
L 195.231784 292.964382 
L 195.444952 291.734893 
L 196.084455 294.843916 
L 196.404207 295.143811 
L 196.937126 295.314994 
L 198.216133 295.41424 
L 203.012409 295.451769 
L 205.890174 295.359103 
L 206.209925 295.201956 
L 206.423093 294.910299 
L 206.742845 294.210312 
L 207.16918 295.154709 
L 207.488932 295.330498 
L 208.128436 295.376896 
L 208.874523 295.261213 
L 209.194274 295.027665 
L 209.407442 294.56643 
L 209.727194 292.492288 
L 209.833778 292.817615 
L 210.15353 294.752859 
L 210.473281 295.190601 
L 211.006201 295.367149 
L 212.391791 295.443609 
L 215.90906 295.43897 
L 216.335395 295.238345 
L 216.655147 295.460652 
L 220.385583 295.465469 
L 225.927946 295.370131 
L 226.141114 295.262416 
L 226.354282 295.113549 
L 226.674033 295.352687 
L 227.420121 295.376337 
L 228.059624 295.175167 
L 228.272792 295.015803 
L 229.018879 295.34866 
L 229.551798 295.337173 
L 229.764966 295.2049 
L 230.084718 295.27694 
L 230.511054 295.041492 
L 230.724221 294.617098 
L 230.937389 293.03337 
L 231.150557 291.435248 
L 231.363725 291.647295 
L 231.470309 291.521206 
L 231.683476 292.630109 
L 232.003228 294.360217 
L 232.32298 295.038078 
L 232.642731 295.259234 
L 233.388819 295.383373 
L 235.520497 295.419906 
L 236.799503 295.303359 
L 237.225839 295.094655 
L 237.652175 294.654952 
L 238.291678 295.262363 
L 239.037765 295.402654 
L 241.276027 295.45775 
L 259.395289 295.466691 
L 262.486222 295.369625 
L 262.912558 295.1356 
L 263.765229 294.508003 
L 264.084981 294.689631 
L 264.831068 295.293473 
L 265.363987 295.395249 
L 266.53641 295.317495 
L 267.06933 295.096278 
L 267.282497 294.790696 
L 267.495665 294.024459 
L 267.708833 293.132096 
L 267.815417 293.241354 
L 268.241753 294.773334 
L 268.561504 295.036929 
L 269.094424 295.040114 
L 269.520759 294.989283 
L 269.840511 294.902854 
L 270.266847 294.595796 
L 270.586598 294.979067 
L 271.012934 295.025038 
L 271.332685 294.903978 
L 271.545853 294.543908 
L 271.865605 294.86584 
L 272.185357 294.718837 
L 272.398524 294.345476 
L 272.718276 293.612137 
L 272.931444 293.474534 
L 273.144612 294.001009 
L 273.464363 294.783531 
L 273.784115 295.079014 
L 274.317035 295.223388 
L 274.956538 295.172577 
L 275.27629 294.982838 
L 275.489457 294.667879 
L 275.702625 293.979486 
L 275.809209 293.418935 
L 275.915793 293.500797 
L 276.235545 294.725975 
L 276.555296 295.123471 
L 277.088216 295.318192 
L 278.260639 295.399488 
L 280.392317 295.340992 
L 280.925236 295.176317 
L 281.138404 294.786299 
L 281.351572 294.088375 
L 281.458156 294.206662 
L 281.777907 294.896317 
L 281.991075 294.848657 
L 282.310827 294.519962 
L 282.523994 294.189308 
L 282.95033 294.537439 
L 283.696417 295.13077 
L 284.335921 295.274852 
L 287.959773 295.424775 
L 289.878283 295.29579 
L 290.304619 295.039974 
L 290.517787 294.590479 
L 290.837538 294.853478 
L 291.370458 294.482963 
L 291.477042 294.453672 
L 292.542881 295.225102 
L 293.0758 295.300507 
L 293.395552 295.146295 
L 293.715304 295.372237 
L 294.99431 295.415009 
L 296.273317 295.334065 
L 296.699653 295.191253 
L 297.019404 295.328781 
L 297.765492 295.265231 
L 298.298411 295.063099 
L 298.724747 294.671403 
L 299.044498 293.550118 
L 299.470834 294.824483 
L 300.003753 295.166072 
L 300.749841 295.314581 
L 302.028847 295.309229 
L 303.414438 295.326855 
L 305.226364 295.385324 
L 305.6527 295.245926 
L 306.185619 294.93024 
L 306.825123 295.172099 
L 307.358042 295.180255 
L 308.317297 295.369073 
L 309.276552 295.265737 
L 309.702888 295.107578 
L 309.916056 295.005117 
L 310.555559 295.281434 
L 311.727982 295.40747 
L 314.072828 295.395111 
L 314.818915 295.253859 
L 315.138666 295.048099 
L 315.565002 295.237439 
L 315.884754 295.066768 
L 316.311089 295.32974 
L 317.483512 295.392337 
L 324.518049 295.233608 
L 324.837801 295.024317 
L 325.157553 295.221681 
L 325.477304 295.341842 
L 326.862895 295.331834 
L 328.248486 295.377548 
L 330.593331 295.382421 
L 331.978922 295.23593 
L 332.405258 295.021776 
L 332.618425 294.699138 
L 332.938177 294.965278 
L 333.257929 294.801935 
L 333.57768 294.190244 
L 333.790848 294.629319 
L 334.1106 295.027226 
L 334.750103 295.24749 
L 335.815942 295.317581 
L 337.094949 295.193056 
L 337.414701 295.061799 
L 337.627868 294.510766 
L 337.841036 294.205121 
L 338.054204 294.364942 
L 338.267372 293.542017 
L 338.48054 290.714286 
L 338.800291 281.996451 
L 339.333211 292.69514 
L 339.439795 292.830179 
L 339.546379 292.214321 
L 339.759546 290.008025 
L 339.86613 290.239356 
L 339.972714 289.483575 
L 340.292466 294.207891 
L 340.612218 294.870331 
L 341.038553 295.149328 
L 341.78464 295.310891 
L 343.383399 295.373722 
L 348.07309 295.35517 
L 348.499426 295.39301 
L 359.370983 295.395337 
L 360.11707 295.422305 
L 361.182909 295.323933 
L 361.502661 295.240328 
L 362.03558 295.413131 
L 364.060675 295.357869 
L 364.380426 295.372291 
L 365.01993 295.359223 
L 365.979185 295.20021 
L 366.512104 295.300902 
L 367.897695 295.31127 
L 368.32403 295.391614 
L 370.135957 295.430861 
L 370.882044 295.369205 
L 371.095212 295.230195 
L 371.414963 295.399825 
L 374.186145 295.438943 
L 378.662668 295.425966 
L 381.220682 295.410833 
L 382.606272 295.359907 
L 382.81944 295.137321 
L 383.139192 294.782371 
L 383.35236 295.156348 
L 384.205031 295.069802 
L 385.484037 295.408223 
L 388.361803 295.434419 
L 398.487273 295.461602 
L 398.487273 295.461602 
" clip-path="url(#pbd65bf4a7f)" style="fill: none; stroke: #2ca02c; stroke-width: 1.5; stroke-linecap: square"/>
   </g>
   <g id="patch_3">
    <path d="M 57.6 307.584 
L 57.6 41.472 
" style="fill: none; stroke: #000000; stroke-width: 0.8; stroke-linejoin: miter; stroke-linecap: square"/>
   </g>
   <g id="patch_4">
    <path d="M 414.72 307.584 
L 414.72 41.472 
" style="fill: none; stroke: #000000; stroke-width: 0.8; stroke-linejoin: miter; stroke-linecap: square"/>
   </g>
   <g id="patch_5">
    <path d="M 57.6 307.584 
L 414.72 307.584 
" style="fill: none; stroke: #000000; stroke-width: 0.8; stroke-linejoin: miter; stroke-linecap: square"/>
   </g>
   <g id="patch_6">
    <path d="M 57.6 41.472 
L 414.72 41.472 
" style="fill: none; stroke: #000000; stroke-width: 0.8; stroke-linejoin: miter; stroke-linecap: square"/>
   </g>
   <g id="legend_1">
    <g id="patch_7">
     <path d="M 298.993125 103.91325 
L 406.32 103.91325 
Q 408.72 103.91325 408.72 101.51325 
L 408.72 49.872 
Q 408.72 47.472 406.32 47.472 
L 298.993125 47.472 
Q 296.593125 47.472 296.593125 49.872 
L 296.593125 101.51325 
Q 296.593125 103.91325 298.993125 103.91325 
z
" style="fill: #ffffff; opacity: 0.8; stroke: #cccccc; stroke-linejoin: miter"/>
    </g>
    <g id="line2d_18">
     <path d="M 301.393125 57.190125 
L 313.393125 57.190125 
L 325.393125 57.190125 
" style="fill: none; stroke: #1f77b4; stroke-width: 1.5; stroke-linecap: square"/>
    </g>
    <g id="text_17">
     <!-- experiment -->
     <g transform="translate(334.993125 61.390125) scale(0.12 -0.12)">
      <defs>
       <path id="DejaVuSans-65" d="M 3597 1894 
L 3597 1613 
L 953 1613 
Q 991 1019 1311 708 
Q 1631 397 2203 397 
Q 2534 397 2845 478 
Q 3156 559 3463 722 
L 3463 178 
Q 3153 47 2828 -22 
Q 2503 -91 2169 -91 
Q 1331 -91 842 396 
Q 353 884 353 1716 
Q 353 2575 817 3079 
Q 1281 3584 2069 3584 
Q 2775 3584 3186 3129 
Q 3597 2675 3597 1894 
z
M 3022 2063 
Q 3016 2534 2758 2815 
Q 2500 3097 2075 3097 
Q 1594 3097 1305 2825 
Q 1016 2553 972 2059 
L 3022 2063 
z
" transform="scale(0.015625)"/>
       <path id="DejaVuSans-78" d="M 3513 3500 
L 2247 1797 
L 3578 0 
L 2900 0 
L 1881 1375 
L 863 0 
L 184 0 
L 1544 1831 
L 300 3500 
L 978 3500 
L 1906 2253 
L 2834 3500 
L 3513 3500 
z
" transform="scale(0.015625)"/>
       <path id="DejaVuSans-70" d="M 1159 525 
L 1159 -1331 
L 581 -1331 
L 581 3500 
L 1159 3500 
L 1159 2969 
Q 1341 3281 1617 3432 
Q 1894 3584 2278 3584 
Q 2916 3584 3314 3078 
Q 3713 2572 3713 1747 
Q 3713 922 3314 415 
Q 2916 -91 2278 -91 
Q 1894 -91 1617 61 
Q 1341 213 1159 525 
z
M 3116 1747 
Q 3116 2381 2855 2742 
Q 2594 3103 2138 3103 
Q 1681 3103 1420 2742 
Q 1159 2381 1159 1747 
Q 1159 1113 1420 752 
Q 1681 391 2138 391 
Q 2594 391 2855 752 
Q 3116 1113 3116 1747 
z
" transform="scale(0.015625)"/>
       <path id="DejaVuSans-72" d="M 2631 2963 
Q 2534 3019 2420 3045 
Q 2306 3072 2169 3072 
Q 1681 3072 1420 2755 
Q 1159 2438 1159 1844 
L 1159 0 
L 581 0 
L 581 3500 
L 1159 3500 
L 1159 2956 
Q 1341 3275 1631 3429 
Q 1922 3584 2338 3584 
Q 2397 3584 2469 3576 
Q 2541 3569 2628 3553 
L 2631 2963 
z
" transform="scale(0.015625)"/>
       <path id="DejaVuSans-69" d="M 603 3500 
L 1178 3500 
L 1178 0 
L 603 0 
L 603 3500 
z
M 603 4863 
L 1178 4863 
L 1178 4134 
L 603 4134 
L 603 4863 
z
" transform="scale(0.015625)"/>
       <path id="DejaVuSans-6d" d="M 3328 2828 
Q 3544 3216 3844 3400 
Q 4144 3584 4550 3584 
Q 5097 3584 5394 3201 
Q 5691 2819 5691 2113 
L 5691 0 
L 5113 0 
L 5113 2094 
Q 5113 2597 4934 2840 
Q 4756 3084 4391 3084 
Q 3944 3084 3684 2787 
Q 3425 2491 3425 1978 
L 3425 0 
L 2847 0 
L 2847 2094 
Q 2847 2600 2669 2842 
Q 2491 3084 2119 3084 
Q 1678 3084 1418 2786 
Q 1159 2488 1159 1978 
L 1159 0 
L 581 0 
L 581 3500 
L 1159 3500 
L 1159 2956 
Q 1356 3278 1631 3431 
Q 1906 3584 2284 3584 
Q 2666 3584 2933 3390 
Q 3200 3197 3328 2828 
z
" transform="scale(0.015625)"/>
       <path id="DejaVuSans-6e" d="M 3513 2113 
L 3513 0 
L 2938 0 
L 2938 2094 
Q 2938 2591 2744 2837 
Q 2550 3084 2163 3084 
Q 1697 3084 1428 2787 
Q 1159 2491 1159 1978 
L 1159 0 
L 581 0 
L 581 3500 
L 1159 3500 
L 1159 2956 
Q 1366 3272 1645 3428 
Q 1925 3584 2291 3584 
Q 2894 3584 3203 3211 
Q 3513 2838 3513 2113 
z
" transform="scale(0.015625)"/>
       <path id="DejaVuSans-74" d="M 1172 4494 
L 1172 3500 
L 2356 3500 
L 2356 3053 
L 1172 3053 
L 1172 1153 
Q 1172 725 1289 603 
Q 1406 481 1766 481 
L 2356 481 
L 2356 0 
L 1766 0 
Q 1100 0 847 248 
Q 594 497 594 1153 
L 594 3053 
L 172 3053 
L 172 3500 
L 594 3500 
L 594 4494 
L 1172 4494 
z
" transform="scale(0.015625)"/>
      </defs>
      <use xlink:href="#DejaVuSans-65"/>
      <use xlink:href="#DejaVuSans-78" x="59.773438"/>
      <use xlink:href="#DejaVuSans-70" x="118.953125"/>
      <use xlink:href="#DejaVuSans-65" x="182.429688"/>
      <use xlink:href="#DejaVuSans-72" x="243.953125"/>
      <use xlink:href="#DejaVuSans-69" x="285.066406"/>
      <use xlink:href="#DejaVuSans-6d" x="312.849609"/>
      <use xlink:href="#DejaVuSans-65" x="410.261719"/>
      <use xlink:href="#DejaVuSans-6e" x="471.785156"/>
      <use xlink:href="#DejaVuSans-74" x="535.164062"/>
     </g>
    </g>
    <g id="line2d_19">
     <path d="M 301.393125 74.803875 
L 313.393125 74.803875 
L 325.393125 74.803875 
" style="fill: none; stroke: #ff7f0e; stroke-width: 1.5; stroke-linecap: square"/>
    </g>
    <g id="text_18">
     <!-- NaCl -->
     <g transform="translate(334.993125 79.003875) scale(0.12 -0.12)">
      <defs>
       <path id="DejaVuSans-4e" d="M 628 4666 
L 1478 4666 
L 3547 763 
L 3547 4666 
L 4159 4666 
L 4159 0 
L 3309 0 
L 1241 3903 
L 1241 0 
L 628 0 
L 628 4666 
z
" transform="scale(0.015625)"/>
       <path id="DejaVuSans-43" d="M 4122 4306 
L 4122 3641 
Q 3803 3938 3442 4084 
Q 3081 4231 2675 4231 
Q 1875 4231 1450 3742 
Q 1025 3253 1025 2328 
Q 1025 1406 1450 917 
Q 1875 428 2675 428 
Q 3081 428 3442 575 
Q 3803 722 4122 1019 
L 4122 359 
Q 3791 134 3420 21 
Q 3050 -91 2638 -91 
Q 1578 -91 968 557 
Q 359 1206 359 2328 
Q 359 3453 968 4101 
Q 1578 4750 2638 4750 
Q 3056 4750 3426 4639 
Q 3797 4528 4122 4306 
z
" transform="scale(0.015625)"/>
       <path id="DejaVuSans-6c" d="M 603 4863 
L 1178 4863 
L 1178 0 
L 603 0 
L 603 4863 
z
" transform="scale(0.015625)"/>
      </defs>
      <use xlink:href="#DejaVuSans-4e"/>
      <use xlink:href="#DejaVuSans-61" x="74.804688"/>
      <use xlink:href="#DejaVuSans-43" x="136.083984"/>
      <use xlink:href="#DejaVuSans-6c" x="205.908203"/>
     </g>
    </g>
    <g id="line2d_20">
     <path d="M 301.393125 92.417625 
L 313.393125 92.417625 
L 325.393125 92.417625 
" style="fill: none; stroke: #2ca02c; stroke-width: 1.5; stroke-linecap: square"/>
    </g>
    <g id="text_19">
     <!-- Li2CO3 -->
     <g transform="translate(334.993125 96.617625) scale(0.12 -0.12)">
      <defs>
       <path id="DejaVuSans-4c" d="M 628 4666 
L 1259 4666 
L 1259 531 
L 3531 531 
L 3531 0 
L 628 0 
L 628 4666 
z
" transform="scale(0.015625)"/>
       <path id="DejaVuSans-4f" d="M 2522 4238 
Q 1834 4238 1429 3725 
Q 1025 3213 1025 2328 
Q 1025 1447 1429 934 
Q 1834 422 2522 422 
Q 3209 422 3611 934 
Q 4013 1447 4013 2328 
Q 4013 3213 3611 3725 
Q 3209 4238 2522 4238 
z
M 2522 4750 
Q 3503 4750 4090 4092 
Q 4678 3434 4678 2328 
Q 4678 1225 4090 567 
Q 3503 -91 2522 -91 
Q 1538 -91 948 565 
Q 359 1222 359 2328 
Q 359 3434 948 4092 
Q 1538 4750 2522 4750 
z
" transform="scale(0.015625)"/>
      </defs>
      <use xlink:href="#DejaVuSans-4c"/>
      <use xlink:href="#DejaVuSans-69" x="55.712891"/>
      <use xlink:href="#DejaVuSans-32" x="83.496094"/>
      <use xlink:href="#DejaVuSans-43" x="147.119141"/>
      <use xlink:href="#DejaVuSans-4f" x="216.943359"/>
      <use xlink:href="#DejaVuSans-33" x="295.654297"/>
     </g>
    </g>
   </g>
  </g>
 </g>
 <defs>
  <clipPath id="pbd65bf4a7f">
   <rect x="57.6" y="41.472" width="357.12" height="266.112"/>
  </clipPath>
 </defs>
</svg>
